<svg width="225" height="313" viewBox="0 0 225 313" fill="none" xmlns="http://www.w3.org/2000/svg">
<path d="M53.7672 306.116C56.5652 300.105 60.3103 294.787 62.5944 293.579L90.7688 290.655C91.6832 291.644 92.7738 294.671 93.2966 297.521C93.8156 300.35 91.6932 302.546 88.9513 303.415C86.1443 304.305 83.2406 305.386 80.612 306.561C74.4535 309.316 68.1116 313.183 61.3706 312.911C59.6348 312.841 58.014 312.661 56.548 312.365C53.7198 311.795 52.5496 308.731 53.7672 306.116Z" fill="#503A1F"/>
<path d="M104.074 278.537L99.5 271.5L61.5 264L55.0157 268.437C53.2195 269.666 52.4246 271.915 53.05 274L54.3332 278.277C54.7771 279.757 55.106 281.269 55.3171 282.799L56.5545 291.77C56.8369 293.818 58.0099 295.636 59.7591 296.737L62.9139 298.724C67.74 301.762 73.6338 302.596 79.1134 301.015L93.5931 296.839C95.3147 296.342 96.5 294.766 96.5 292.975C96.5 290.772 97.4726 288.681 99.1578 287.262L103.297 283.776C104.841 282.476 105.174 280.229 104.074 278.537Z" fill="#6E5434"/>
<path d="M171.13 306.116C168.332 300.105 164.587 294.787 162.303 293.579L134.129 290.655C133.214 291.644 132.124 294.671 131.601 297.521C131.082 300.35 133.205 302.546 135.946 303.415C138.753 304.305 141.657 305.386 144.286 306.561C150.444 309.316 156.786 313.183 163.527 312.911C165.263 312.841 166.884 312.661 168.35 312.365C171.178 311.795 172.348 308.731 171.13 306.116Z" fill="#503A1F"/>
<path d="M120.824 278.537L125.398 271.5L163.398 264L169.882 268.437C171.678 269.666 172.473 271.915 171.848 274L170.564 278.277C170.121 279.757 169.792 281.269 169.581 282.799L168.343 291.77C168.061 293.818 166.888 295.636 165.139 296.737L161.984 298.724C157.158 301.762 151.264 302.596 145.784 301.015L131.305 296.839C129.583 296.342 128.398 294.766 128.398 292.975C128.398 290.772 127.425 288.681 125.74 287.262L121.601 283.776C120.057 282.476 119.724 280.229 120.824 278.537Z" fill="#6E5434"/>
<path d="M56.499 248.742L58.8505 266.966C59.2536 270.091 61.2613 272.777 64.1437 274.049L70.3972 276.808C74.3958 278.572 78.787 279.257 83.1329 278.794L97.6252 277.253C99.088 277.097 100.347 276.151 100.904 274.79L104.5 266C106 266.5 109 267 112.5 267C116 267 119 266.5 120.5 266L124.096 274.79C124.653 276.151 125.912 277.097 127.375 277.253L141.867 278.794C146.213 279.257 150.604 278.572 154.603 276.808L160.856 274.049C163.739 272.777 165.746 270.091 166.15 266.966L168.501 248.742C169.149 243.721 168.122 238.627 165.58 234.249L160.5 225.5H112.5H64.5L59.4197 234.249C56.8778 238.627 55.8511 243.721 56.499 248.742Z" fill="#0D1935"/>
<mask id="mask0_435_20371" style="mask-type:alpha" maskUnits="userSpaceOnUse" x="52" y="219" width="121" height="38">
<path d="M62 219L112.5 230L163 219L171.307 230.384C173.963 234.023 172.539 239.186 168.395 240.951L132.764 256.12C128.94 257.748 124.505 256.176 122.56 252.503L116.919 241.847C115.041 238.299 109.959 238.299 108.081 241.847L102.44 252.503C100.495 256.176 96.0604 257.748 92.2357 256.12L56.6053 240.951C52.4606 239.186 51.0374 234.023 53.6928 230.384L62 219Z" fill="#9C9A9A"/>
</mask>
<g mask="url(#mask0_435_20371)">
<path d="M62 219L112.5 230L163 219L171.307 230.384C173.963 234.023 172.539 239.186 168.395 240.951L132.764 256.12C128.94 257.748 124.505 256.176 122.56 252.503L116.919 241.847C115.041 238.299 109.959 238.299 108.081 241.847L102.44 252.503C100.495 256.176 96.0604 257.748 92.2357 256.12L56.6053 240.951C52.4606 239.186 51.0374 234.023 53.6928 230.384L62 219Z" fill="#008FA0"/>
<path d="M109 241L100.72 249.97C98.4353 252.445 94.9601 253.437 91.7132 252.542L68 246L93.5 259.5L103.5 257L109 241Z" fill="#006A76"/>
<ellipse cx="80.5039" cy="228.75" rx="31.5934" ry="12.8494" transform="rotate(-3.2228 80.5039 228.75)" fill="#00B0C5"/>
<ellipse cx="154.022" cy="242.027" rx="28.1462" ry="13.2568" transform="rotate(-24.7186 154.022 242.027)" fill="#00B0C5"/>
<path d="M166.415 238.754L141.5 252.5L171.5 241.5L174.5 232L167.5 225L169.322 231.986C170.015 234.641 168.818 237.428 166.415 238.754Z" fill="#1BE7FF"/>
</g>
<path d="M60.5943 217.645L60 212L112.5 227.5L165 212L164.406 217.645C164.159 219.992 162.56 221.975 160.319 222.715L127.86 233.43C117.885 236.723 107.115 236.723 97.1404 233.43L64.6805 222.715C62.4402 221.975 60.8412 219.992 60.5943 217.645Z" fill="#081125"/>
<mask id="mask1_435_20371" style="mask-type:alpha" maskUnits="userSpaceOnUse" x="46" y="129" width="133" height="101">
<path d="M53.0432 203.05L46 174V129H112.5H179V174L171.957 203.05C170.309 209.848 165.229 215.291 158.562 217.404L127.604 227.214C117.776 230.328 107.224 230.328 97.3957 227.214L66.4384 217.404C59.7707 215.291 54.6913 209.848 53.0432 203.05Z" fill="#9C9A9A"/>
</mask>
<g mask="url(#mask1_435_20371)">
<path d="M54.5033 209.073L46 174V129H112.5H179V174L170.497 209.073C169.755 212.132 167.469 214.581 164.469 215.532L127.604 227.214C117.776 230.328 107.224 230.328 97.3957 227.214L60.5311 215.532C57.5307 214.581 55.2449 212.132 54.5033 209.073Z" fill="#008FA0"/>
<path d="M56.7811 178.966L68.5 151.5V128.5H43V174L53 214L101.5 229L86.6372 224.223C78.1252 221.487 70.7753 215.978 65.7608 208.575L58.6183 198.032C54.8047 192.402 54.1126 185.22 56.7811 178.966Z" fill="#006A76"/>
<path d="M167.719 178.966L156 151.5V128.5H181.5V174L171.5 214L123 229L137.863 224.223C146.375 221.487 153.725 215.978 158.739 208.575L165.882 198.032C169.695 192.402 170.387 185.22 167.719 178.966Z" fill="#006A76"/>
<mask id="mask2_435_20371" style="mask-type:alpha" maskUnits="userSpaceOnUse" x="61" y="168" width="49" height="39">
<path d="M102.652 176.479L76.4042 169.261C72.6912 168.24 68.7776 170.009 67.091 173.471L61.9436 184.037C61.0678 185.834 61.3474 187.981 62.6545 189.495L64.126 191.199C67.9579 195.635 73.0058 198.852 78.646 200.452L100.597 206.677C102.423 207.195 104.387 206.818 105.892 205.66L107.658 204.301C109.135 203.166 110 201.408 110 199.546V186.121C110 181.62 106.992 177.673 102.652 176.479Z" fill="#D9D9D9"/>
</mask>
<g mask="url(#mask2_435_20371)">
<path d="M102.652 176.479L76.4042 169.261C72.6912 168.24 68.7776 170.009 67.091 173.471L61.9436 184.037C61.0678 185.834 61.3474 187.981 62.6545 189.495L64.126 191.199C67.9579 195.635 73.0058 198.852 78.646 200.452L100.597 206.677C102.423 207.195 104.387 206.818 105.892 205.66L107.658 204.301C109.135 203.166 110 201.408 110 199.546V186.121C110 181.62 106.992 177.673 102.652 176.479Z" fill="#007785"/>
<ellipse cx="85.1502" cy="181.746" rx="25.55" ry="16.5851" transform="rotate(-11.51 85.1502 181.746)" fill="#00B0C5"/>
<path d="M70.5115 174.863L67.445 180.76C66.9587 181.695 68.0632 182.649 68.9177 182.032L73.9215 178.418C74.2956 178.148 74.7516 178.015 75.2123 178.043L89.8583 178.921C91.0585 178.994 91.3413 177.275 90.1813 176.959L75.1128 172.849C73.2962 172.354 71.3801 173.192 70.5115 174.863Z" fill="#1BE7FF"/>
</g>
<mask id="mask3_435_20371" style="mask-type:alpha" maskUnits="userSpaceOnUse" x="115" y="168" width="50" height="39">
<path d="M122.848 176.479L149.096 169.261C152.809 168.24 156.722 170.009 158.409 173.471L163.556 184.037C164.432 185.834 164.153 187.981 162.846 189.495L161.374 191.199C157.542 195.635 152.494 198.852 146.854 200.452L124.903 206.677C123.077 207.195 121.113 206.818 119.608 205.66L117.842 204.301C116.365 203.166 115.5 201.408 115.5 199.546V186.121C115.5 181.62 118.508 177.673 122.848 176.479Z" fill="#D9D9D9"/>
</mask>
<g mask="url(#mask3_435_20371)">
<path d="M122.848 176.479L149.096 169.261C152.809 168.24 156.722 170.009 158.409 173.471L163.556 184.037C164.432 185.834 164.153 187.981 162.846 189.495L161.374 191.199C157.542 195.635 152.494 198.852 146.854 200.452L124.903 206.677C123.077 207.195 121.113 206.818 119.608 205.66L117.842 204.301C116.365 203.166 115.5 201.408 115.5 199.546V186.121C115.5 181.62 118.508 177.673 122.848 176.479Z" fill="#007785"/>
<ellipse cx="133.48" cy="183.404" rx="26.3376" ry="17.0963" transform="rotate(-24.8348 133.48 183.404)" fill="#00B0C5"/>
<path d="M120 185.79V191.485C120 192.599 121.545 192.879 121.936 191.836L123.631 187.317C124.188 185.833 125.309 184.629 126.749 183.969L136.877 179.327C137.998 178.814 137.377 177.122 136.19 177.456L123.649 180.976C121.491 181.581 120 183.549 120 185.79Z" fill="#1BE7FF"/>
</g>
<mask id="mask4_435_20371" style="mask-type:alpha" maskUnits="userSpaceOnUse" x="73" y="203" width="37" height="21">
<path d="M76.8891 203.375L106.396 211.952C108.531 212.573 110 214.53 110 216.753V217.449C110 221.465 106.133 224.347 102.285 223.199L87.011 218.644C83.4099 217.57 80.1843 215.503 77.7038 212.68L73.7981 208.236C71.8171 205.982 74.0073 202.537 76.8891 203.375Z" fill="#C1C1C1"/>
</mask>
<g mask="url(#mask4_435_20371)">
<path d="M76.8891 203.375L106.396 211.952C108.531 212.573 110 214.53 110 216.753V217.449C110 221.465 106.133 224.347 102.285 223.199L87.011 218.644C83.4099 217.57 80.1843 215.503 77.7038 212.68L73.7981 208.236C71.8171 205.982 74.0073 202.537 76.8891 203.375Z" fill="#00B0C5"/>
<path d="M80.6713 215.566L81.5 217.5L70 207L74 201L112.5 213.5L86.1676 208.679C82.2439 207.96 79.1 211.9 80.6713 215.566Z" fill="#1BE7FF"/>
</g>
<mask id="mask5_435_20371" style="mask-type:alpha" maskUnits="userSpaceOnUse" x="115" y="203" width="37" height="21">
<path d="M148.111 203.375L118.604 211.952C116.469 212.573 115 214.53 115 216.753V217.449C115 221.465 118.867 224.347 122.715 223.199L137.989 218.644C141.59 217.57 144.816 215.503 147.296 212.68L151.202 208.236C153.183 205.982 150.993 202.537 148.111 203.375Z" fill="#C1C1C1"/>
</mask>
<g mask="url(#mask5_435_20371)">
<path d="M148.111 203.375L118.604 211.952C116.469 212.573 115 214.53 115 216.753V217.449C115 221.465 118.867 224.347 122.715 223.199L137.989 218.644C141.59 217.57 144.816 215.503 147.296 212.68L151.202 208.236C153.183 205.982 150.993 202.537 148.111 203.375Z" fill="#00B0C5"/>
<path d="M120.22 220.758L121.5 223.5H113V212L153.5 201.5L122.861 214.015C120.215 215.095 119.012 218.169 120.22 220.758Z" fill="#1BE7FF"/>
</g>
</g>
<mask id="mask6_435_20371" style="mask-type:alpha" maskUnits="userSpaceOnUse" x="5" y="218" width="38" height="30">
<path d="M41.1826 229.202L35.9823 222.383L12.2306 218.099L6.59408 222.696C5.60669 223.501 5.06206 224.729 5.12759 226.001L5.39311 231.157C5.4847 232.936 6.36144 234.582 7.78621 235.65L14.9115 240.991L17.8724 245.396C19.0281 247.115 21.1242 247.943 23.1429 247.479L26.1604 246.785C27.4669 246.484 28.5981 245.671 29.2998 244.529L33.2841 238.042L35.9678 238.495C37.1057 238.687 38.2529 238.21 38.9182 237.267L41.2701 233.934C42.2772 232.507 42.2418 230.591 41.1826 229.202Z" fill="#C1C1C1"/>
</mask>
<g mask="url(#mask6_435_20371)">
<path d="M41.1826 229.202L35.9823 222.383L12.2306 218.099L6.59408 222.696C5.60669 223.501 5.06206 224.729 5.12759 226.001L5.39311 231.157C5.4847 232.936 6.36144 234.582 7.78621 235.65L14.9115 240.991L17.8724 245.396C19.0281 247.115 21.1242 247.943 23.1429 247.479L26.1604 246.785C27.4669 246.484 28.5981 245.671 29.2998 244.529L33.2841 238.042L35.9678 238.495C37.1057 238.687 38.2529 238.21 38.9182 237.267L41.2701 233.934C42.2772 232.507 42.2418 230.591 41.1826 229.202Z" fill="#6E5434"/>
<path d="M9.99739 219.835L12.5 218H32.5L36.7961 223.288C37.9552 224.714 37.5706 226.838 35.985 227.767L28.9653 231.882C26.2007 233.503 22.783 233.531 19.9919 231.957L10.3976 226.545C7.86704 225.117 7.65448 221.553 9.99739 219.835Z" fill="#503A1F"/>
</g>
<mask id="mask7_435_20371" style="mask-type:alpha" maskUnits="userSpaceOnUse" x="6" y="195" width="37" height="35">
<path d="M38.15 200.879L37.5 200.5L14.5 195L12.0078 195.831C8.26334 197.079 5.98877 200.872 6.65108 204.763L8.9498 218.268C9.29842 220.316 10.5389 222.103 12.3356 223.146L21.6139 228.534C23.7179 229.756 26.3054 229.797 28.4475 228.644L35.3871 224.907C37.0571 224.008 38.2907 222.469 38.8056 220.644L41.8187 209.961C42.8086 206.451 41.2998 202.717 38.15 200.879Z" fill="#D9D9D9"/>
</mask>
<g mask="url(#mask7_435_20371)">
<path d="M38.15 200.879L37.5 200.5L14.5 195L12.0078 195.831C8.26334 197.079 5.98877 200.872 6.65108 204.763L8.9498 218.268C9.29842 220.316 10.5389 222.103 12.3356 223.146L21.6139 228.534C23.7179 229.756 26.3054 229.797 28.4475 228.644L35.3871 224.907C37.0571 224.008 38.2907 222.469 38.8056 220.644L41.8187 209.961C42.8086 206.451 41.2998 202.717 38.15 200.879Z" fill="#6E5434"/>
<path d="M25.5 231.5L26.5 210.5L46 200.5L40.5 224L25.5 231.5Z" fill="#503A1F"/>
<path d="M19.5551 209.89L12.6678 205.814C8.35143 203.259 8.8885 196.851 13.5698 195.05L21.5 192L39.9457 202.204C42.0719 203.38 41.9909 206.464 39.806 207.527L33.7569 210.47C29.226 212.674 23.8912 212.456 19.5551 209.89Z" fill="#886A45"/>
</g>
<path d="M12.7707 198.819L13.5759 189.358C14.0729 183.518 19.4631 179.356 25.239 180.352L33.188 181.722C38.8059 182.691 42.4787 188.153 41.2564 193.721L39.5226 201.619C39.1928 203.122 38.1895 204.389 36.8025 205.055L32.178 207.275C28.6227 208.981 24.4557 208.832 21.0316 206.875L15.272 203.584C13.5816 202.618 12.6056 200.759 12.7707 198.819Z" fill="#32BE42"/>
<mask id="mask8_435_20371" style="mask-type:alpha" maskUnits="userSpaceOnUse" x="182" y="218" width="38" height="30">
<path d="M183.817 229.202L189.018 222.383L212.769 218.099L218.406 222.696C219.393 223.501 219.938 224.729 219.872 226.001L219.607 231.157C219.515 232.936 218.639 234.582 217.214 235.65L210.089 240.991L207.128 245.396C205.972 247.115 203.876 247.943 201.857 247.479L198.84 246.785C197.533 246.484 196.402 245.671 195.7 244.529L191.716 238.042L189.032 238.495C187.894 238.687 186.747 238.21 186.082 237.267L183.73 233.934C182.723 232.507 182.758 230.591 183.817 229.202Z" fill="#C1C1C1"/>
</mask>
<g mask="url(#mask8_435_20371)">
<path d="M183.817 229.202L189.018 222.383L212.769 218.099L218.406 222.696C219.393 223.501 219.938 224.729 219.872 226.001L219.607 231.157C219.515 232.936 218.639 234.582 217.214 235.65L210.089 240.991L207.128 245.396C205.972 247.115 203.876 247.943 201.857 247.479L198.84 246.785C197.533 246.484 196.402 245.671 195.7 244.529L191.716 238.042L189.032 238.495C187.894 238.687 186.747 238.21 186.082 237.267L183.73 233.934C182.723 232.507 182.758 230.591 183.817 229.202Z" fill="#6E5434"/>
<path d="M215.003 219.835L212.5 218H192.5L188.204 223.288C187.045 224.714 187.429 226.838 189.015 227.767L196.035 231.882C198.799 233.503 202.217 233.531 205.008 231.957L214.602 226.545C217.133 225.117 217.346 221.553 215.003 219.835Z" fill="#503A1F"/>
</g>
<mask id="mask9_435_20371" style="mask-type:alpha" maskUnits="userSpaceOnUse" x="182" y="195" width="37" height="35">
<path d="M186.85 200.879L187.5 200.5L210.5 195L212.992 195.831C216.737 197.079 219.011 200.872 218.349 204.763L216.05 218.268C215.702 220.316 214.461 222.103 212.664 223.146L203.386 228.534C201.282 229.756 198.695 229.797 196.552 228.644L189.613 224.907C187.943 224.008 186.709 222.469 186.194 220.644L183.181 209.961C182.191 206.451 183.7 202.717 186.85 200.879Z" fill="#D9D9D9"/>
</mask>
<g mask="url(#mask9_435_20371)">
<path d="M186.85 200.879L187.5 200.5L210.5 195L212.992 195.831C216.737 197.079 219.011 200.872 218.349 204.763L216.05 218.268C215.702 220.316 214.461 222.103 212.664 223.146L203.386 228.534C201.282 229.756 198.695 229.797 196.552 228.644L189.613 224.907C187.943 224.008 186.709 222.469 186.194 220.644L183.181 209.961C182.191 206.451 183.7 202.717 186.85 200.879Z" fill="#6E5434"/>
<path d="M199.5 231.5L198.5 210.5L179 200.5L184.5 224L199.5 231.5Z" fill="#503A1F"/>
<path d="M205.445 209.89L212.332 205.814C216.649 203.259 216.111 196.851 211.43 195.05L203.5 192L185.054 202.204C182.928 203.38 183.009 206.464 185.194 207.527L191.243 210.47C195.774 212.674 201.109 212.456 205.445 209.89Z" fill="#886A45"/>
</g>
<path d="M212.229 198.819L211.424 189.358C210.927 183.518 205.537 179.356 199.761 180.352L191.812 181.722C186.194 182.691 182.521 188.153 183.744 193.721L185.477 201.619C185.807 203.122 186.811 204.389 188.197 205.055L192.822 207.275C196.377 208.981 200.544 208.832 203.968 206.875L209.728 203.584C211.418 202.618 212.394 200.759 212.229 198.819Z" fill="#32BE42"/>
<mask id="mask10_435_20371" style="mask-type:alpha" maskUnits="userSpaceOnUse" x="10" y="172" width="43" height="23">
<path d="M10 179.781V172.5L52.5 178.5L48.602 187.005C47.5895 189.214 45.6275 190.843 43.2698 191.433L33.9632 193.759C30.7735 194.557 27.4 194.116 24.5223 192.525L14.1305 186.783C11.582 185.374 10 182.692 10 179.781Z" fill="#D9D9D9"/>
</mask>
<g mask="url(#mask10_435_20371)">
<path d="M10 179.781V172.5L52.5 178.5L48.602 187.005C47.5895 189.214 45.6275 190.843 43.2698 191.433L33.9632 193.759C30.7735 194.557 27.4 194.116 24.5223 192.525L14.1305 186.783C11.582 185.374 10 182.692 10 179.781Z" fill="#FF6600"/>
<path d="M27.6697 187.481L14.097 180.198C12.2438 179.204 10 180.546 10 182.65V184.5L6.5 182.5L28.5 196L37.7682 193.051C38.8176 192.717 39.5648 191.787 39.6645 190.69C39.8313 188.856 38.1762 187.384 36.3742 187.763L33.6431 188.338C31.6132 188.766 29.4976 188.462 27.6697 187.481Z" fill="#FE8900"/>
</g>
<mask id="mask11_435_20371" style="mask-type:alpha" maskUnits="userSpaceOnUse" x="5" y="129" width="63" height="57">
<path d="M8.69724 142.931L28.4125 130.174C30.0611 129.108 32.0821 128.782 33.9822 129.278L51.7278 133.907C53.2022 134.292 54.5109 135.147 55.4551 136.343L66.386 150.189C67.994 152.226 68.3433 154.985 67.2936 157.358L58.9236 176.281C58.0279 178.306 56.2271 179.788 54.0676 180.277L33.5883 184.914C31.9207 185.292 30.1725 185.046 28.6737 184.223L9.13119 173.494C6.89177 172.264 5.5 169.912 5.5 167.358V148.808C5.5 146.434 6.7037 144.221 8.69724 142.931Z" fill="#EFEBEB"/>
</mask>
<g mask="url(#mask11_435_20371)">
<path d="M8.69724 142.931L28.4125 130.174C30.0611 129.108 32.0821 128.782 33.9822 129.278L51.7278 133.907C53.2022 134.292 54.5109 135.147 55.4551 136.343L66.386 150.189C67.994 152.226 68.3433 154.985 67.2936 157.358L58.9236 176.281C58.0279 178.306 56.2271 179.788 54.0676 180.277L33.5883 184.914C31.9207 185.292 30.1725 185.046 28.6737 184.223L9.13119 173.494C6.89177 172.264 5.5 169.912 5.5 167.358V148.808C5.5 146.434 6.7037 144.221 8.69724 142.931Z" fill="#FFBA08"/>
<ellipse cx="26.0973" cy="144.668" rx="23.7466" ry="22" transform="rotate(-9.64632 26.0973 144.668)" fill="#FFD159"/>
<path d="M28.8882 177.944L3 165V187H71V124H19.5V136C36.5573 131.025 50.9311 144.098 57.7833 153.622C59.2461 155.655 59.2379 158.343 58.0016 160.521L51.1005 172.68C50.0853 174.469 48.3349 175.72 46.314 176.103L33.3199 178.561C31.815 178.846 30.2581 178.629 28.8882 177.944Z" fill="#FE8900"/>
</g>
<ellipse cx="42.1063" cy="159.893" rx="5.5" ry="3" transform="rotate(-41.5333 42.1063 159.893)" fill="#FFF6E0"/>
<circle cx="41.5" cy="156.5" r="1.5" fill="#FFF6E0"/>
<circle cx="37.5" cy="163.5" r="1.5" fill="#FFF6E0"/>
<circle cx="40" cy="167" r="1" fill="white"/>
<circle cx="38" cy="154" r="1" fill="white"/>
<circle cx="50" cy="154" r="1" fill="white"/>
<mask id="mask12_435_20371" style="mask-type:alpha" maskUnits="userSpaceOnUse" x="172" y="172" width="43" height="23">
<path d="M215 179.781V172.5L172.5 178.5L176.398 187.005C177.411 189.214 179.372 190.843 181.73 191.433L191.037 193.759C194.227 194.557 197.6 194.116 200.478 192.525L210.869 186.783C213.418 185.374 215 182.692 215 179.781Z" fill="#D9D9D9"/>
</mask>
<g mask="url(#mask12_435_20371)">
<path d="M215 179.781V172.5L172.5 178.5L176.398 187.005C177.411 189.214 179.372 190.843 181.73 191.433L191.037 193.759C194.227 194.557 197.6 194.116 200.478 192.525L210.869 186.783C213.418 185.374 215 182.692 215 179.781Z" fill="#FF6600"/>
<path d="M197.33 187.481L210.903 180.198C212.756 179.204 215 180.546 215 182.65V184.5L218.5 182.5L196.5 196L187.232 193.051C186.182 192.717 185.435 191.787 185.335 190.69C185.169 188.856 186.824 187.384 188.626 187.763L191.357 188.338C193.387 188.766 195.502 188.462 197.33 187.481Z" fill="#FE8900"/>
</g>
<mask id="mask13_435_20371" style="mask-type:alpha" maskUnits="userSpaceOnUse" x="157" y="129" width="63" height="57">
<path d="M216.303 142.931L196.588 130.174C194.939 129.108 192.918 128.782 191.018 129.278L173.272 133.907C171.798 134.292 170.489 135.147 169.545 136.343L158.614 150.189C157.006 152.226 156.657 154.985 157.706 157.358L166.076 176.281C166.972 178.306 168.773 179.788 170.932 180.277L191.412 184.914C193.079 185.292 194.827 185.046 196.326 184.223L215.869 173.494C218.108 172.264 219.5 169.912 219.5 167.358V148.808C219.5 146.434 218.296 144.221 216.303 142.931Z" fill="#EFEBEB"/>
</mask>
<g mask="url(#mask13_435_20371)">
<path d="M216.303 142.931L196.588 130.174C194.939 129.108 192.918 128.782 191.018 129.278L173.272 133.907C171.798 134.292 170.489 135.147 169.545 136.343L158.614 150.189C157.006 152.226 156.657 154.985 157.706 157.358L166.076 176.281C166.972 178.306 168.773 179.788 170.932 180.277L191.412 184.914C193.079 185.292 194.827 185.046 196.326 184.223L215.869 173.494C218.108 172.264 219.5 169.912 219.5 167.358V148.808C219.5 146.434 218.296 144.221 216.303 142.931Z" fill="#FFBA08"/>
<ellipse cx="23.7466" cy="22" rx="23.7466" ry="22" transform="matrix(-0.985861 -0.167566 -0.167566 0.985861 226 126.958)" fill="#FFD159"/>
<path d="M196.112 177.944L222 165V187H154V124H205.5V136C188.443 131.025 174.069 144.098 167.217 153.622C165.754 155.655 165.762 158.343 166.998 160.521L173.899 172.68C174.915 174.469 176.665 175.72 178.686 176.103L191.68 178.561C193.185 178.846 194.742 178.629 196.112 177.944Z" fill="#FE8900"/>
</g>
<ellipse cx="5.5" cy="3" rx="5.5" ry="3" transform="matrix(-0.74857 -0.663056 -0.663056 0.74857 189 161.294)" fill="#FFF6E0"/>
<circle cx="1.5" cy="1.5" r="1.5" transform="matrix(-1 0 0 1 185 155)" fill="#FFF6E0"/>
<circle cx="1.5" cy="1.5" r="1.5" transform="matrix(-1 0 0 1 189 162)" fill="#FFF6E0"/>
<circle cx="1" cy="1" r="1" transform="matrix(-1 0 0 1 186 166)" fill="white"/>
<circle cx="1" cy="1" r="1" transform="matrix(-1 0 0 1 188 153)" fill="white"/>
<circle cx="1" cy="1" r="1" transform="matrix(-1 0 0 1 176 153)" fill="white"/>
<mask id="mask14_435_20371" style="mask-type:alpha" maskUnits="userSpaceOnUse" x="28" y="102" width="169" height="77">
<path d="M30.3766 123.195C46.7552 113.769 75.4737 102 112.5 102C149.526 102 178.245 113.769 194.623 123.195C197.745 124.991 196.827 129.886 193.377 130.918C185.705 133.213 176.472 136.514 172.5 138.5C169.5 150 163.5 160.5 157.5 167.5C150 173 139.167 177.167 132.5 179C120.5 178 93.4 175.2 81 172C71.8 167.6 58.1667 147.833 52.5 138.5C48.5276 136.514 39.2954 133.213 31.6229 130.918C28.1725 129.886 27.2551 124.991 30.3766 123.195Z" fill="#D9D9D9"/>
</mask>
<g mask="url(#mask14_435_20371)">
<path d="M22 128.5C35.5 119 68 102 112.5 102C157 102 189.5 119 203 128.5C196.5 129.5 178.5 135.5 172.5 138.5C169.5 150 163.5 160.5 157.5 167.5C150 173 139.167 177.167 132.5 179C120.5 178 93.4 175.2 81 172C71.8 167.6 58.1667 147.833 52.5 138.5C46.5 135.5 28.5 129.5 22 128.5Z" fill="#6E5434"/>
<path d="M75.023 161.207L60.233 144.215C58.1035 141.768 55.464 139.817 52.5 138.5V182.5H172.5V138.5L171.492 138.932C169.876 139.625 168.533 140.83 167.671 142.363L156.922 161.471C155.998 163.115 154.579 164.427 152.868 165.222L141.5 170.5L149.5 161.5L152.194 154.765C152.616 153.71 151.232 152.88 150.501 153.749L146.5 158.5L133 168.5L106.988 163.081C105.805 162.834 105.281 164.509 106.394 164.981L126.5 173.5L88.7723 168.579C83.4426 167.884 78.5518 165.262 75.023 161.207Z" fill="#503A1F"/>
<path d="M151 119.5C130.5 146.5 90 145 73.5 119.5L76.5 63.5H148.5C149 72.3333 150.2 98.3 151 119.5Z" fill="#503A1F"/>
<path d="M50.6362 129.32C41.3907 126.038 30.5252 123.436 26 122.5V106.5H74L78.0762 126.881C78.6115 129.558 77.161 132.236 74.6263 133.249C72.6995 134.02 70.5055 133.675 68.9081 132.351L51 117.5L52.0437 121.675C52.238 122.452 51.4848 123.131 50.7318 122.857L41.5 119.5C42.8812 120.881 48.9785 125.261 51.4818 128.315C52.0024 128.95 51.41 129.595 50.6362 129.32Z" fill="#503A1F"/>
<path d="M174.364 129.32C183.609 126.038 194.475 123.436 199 122.5V106.5H151L146.924 126.881C146.388 129.558 147.839 132.236 150.374 133.249C152.3 134.02 154.494 133.675 156.092 132.351L174 117.5L172.956 121.675C172.762 122.452 173.515 123.131 174.268 122.857L183.5 119.5C182.119 120.881 176.022 125.261 173.518 128.315C172.998 128.95 173.59 129.595 174.364 129.32Z" fill="#503A1F"/>
</g>
<path d="M102.188 143.925L86.6879 139.16C85.5223 138.802 84.8518 140.445 85.9353 141.005L97.4407 146.945C99.4653 147.991 101.654 148.682 103.911 148.991L121.562 151.4L117.343 152.838C116.333 153.182 116.492 154.657 117.553 154.778L125.037 155.628C127.135 155.866 129.242 155.266 130.899 153.957L137.116 149.046C137.957 148.382 137.304 147.039 136.262 147.289L131.125 148.525L141.095 139.352C141.978 138.541 140.945 137.147 139.912 137.754L128.589 144.41C126.581 145.589 124.252 146.102 121.935 145.873L102.188 143.925Z" fill="#886A45"/>
<path d="M112.116 172.587L111.781 188.59" stroke="#081125" stroke-width="3.19735"/>
<mask id="mask15_435_20371" style="mask-type:alpha" maskUnits="userSpaceOnUse" x="96" y="185" width="34" height="35">
<path d="M99.9621 191.31L109.664 186.164C110.66 185.635 111.815 185.489 112.911 185.753L123.283 188.248C124.619 188.57 125.743 189.469 126.349 190.702L128.721 195.523C129.647 197.407 129.188 199.679 127.602 201.054L124.616 203.644C122.951 205.088 122.537 207.505 123.626 209.42L124.299 210.603C125.269 212.308 124.737 214.474 123.088 215.537L117.669 219.031C116.599 219.72 115.25 219.811 114.098 219.271L108.451 216.626C106.929 215.913 106.08 214.263 106.383 212.61L106.515 211.892C106.902 209.785 105.79 207.688 103.828 206.826L99.509 204.929C97.6096 204.094 96.4991 202.096 96.7932 200.043L97.5529 194.737C97.7623 193.275 98.6576 192.002 99.9621 191.31Z" fill="#F3D57E"/>
</mask>
<g mask="url(#mask15_435_20371)">
<path d="M97.8861 192.411L111.21 185.344L125.392 188.756L130.293 198.72L121.754 206.127L126.028 213.643L115.95 220.139L105.868 215.416L107.175 208.296L96.2957 203.517L97.8861 192.411Z" fill="#FFBA08"/>
<path fill-rule="evenodd" clip-rule="evenodd" d="M107.103 187.522C100.483 191.384 99.2156 194.477 107.171 197.077C116.569 200.149 116.456 201.744 115.889 209.717C115.323 217.69 119.366 217.176 126.027 213.643L115.95 220.139L105.868 215.416L107.175 208.297L96.2957 203.517L97.8861 192.411L107.103 187.522ZM111.208 185.345C111.209 185.345 111.209 185.344 111.21 185.344L111.21 185.344L111.21 185.344L111.208 185.345Z" fill="#FE8900"/>
<path d="M111.474 203.052L102.251 203.012C102.011 203.011 101.973 203.356 102.208 203.407L109.779 205.043C110.711 205.245 111.653 204.751 112.018 203.87C112.179 203.481 111.895 203.054 111.474 203.052Z" fill="#FFBA08"/>
<path d="M109.097 199.003L102.251 202.13C101.8 202.336 101.946 203.01 102.441 203.013L111.471 203.053C111.844 203.054 112.065 202.635 111.853 202.328L109.67 199.161C109.542 198.977 109.301 198.91 109.097 199.003Z" fill="#081125"/>
<path d="M120.919 213.573L119.914 211.593C119.697 211.164 120.198 210.729 120.592 211.005L122.41 212.28C122.656 212.452 122.675 212.81 122.448 213.007L121.634 213.713C121.407 213.91 121.055 213.841 120.919 213.573Z" fill="#081125"/>
<path d="M116.923 216.063L116.774 213.266C116.746 212.747 117.463 212.584 117.662 213.064L118.554 215.218C118.63 215.402 118.58 215.613 118.43 215.744L117.688 216.388C117.397 216.64 116.944 216.447 116.923 216.063Z" fill="#081125"/>
<path d="M113.838 216.034L113.979 214.039C114.017 213.516 113.292 213.345 113.091 213.83L112.4 215.499C112.312 215.711 112.394 215.956 112.592 216.073L113.141 216.399C113.437 216.574 113.813 216.377 113.838 216.034Z" fill="#081125"/>
<path d="M109.349 214.448L110.395 212.682C110.662 212.231 110.091 211.754 109.695 212.098L108.06 213.515C107.822 213.722 107.856 214.101 108.128 214.262L108.716 214.61C108.936 214.74 109.219 214.668 109.349 214.448Z" fill="#081125"/>
<path d="M122.15 200.546L121.753 206.127L130.293 198.72L122.15 200.546Z" fill="#FE8900"/>
<path d="M119.386 198.747L125.362 199.172C125.873 199.208 125.954 199.925 125.464 200.075L118.209 202.289C117.823 202.407 117.482 202.008 117.658 201.645L118.937 199.006C119.02 198.836 119.198 198.734 119.386 198.747Z" fill="#081125"/>
<path d="M112.806 207.678L114.753 209.367C114.942 209.531 115.226 209.515 115.395 209.332L117.635 206.907C117.935 206.582 117.651 206.061 117.216 206.138L113.028 206.874C112.645 206.942 112.512 207.423 112.806 207.678Z" fill="#081125"/>
<path d="M120.845 190.38L111.958 188.152C111.675 188.082 111.397 188.283 111.377 188.574C111.362 188.788 111.494 188.985 111.699 189.052L120.546 191.944C121.631 192.299 122.573 192.994 123.232 193.926L125.777 197.532C125.907 197.716 126.155 197.771 126.35 197.66C126.56 197.54 126.633 197.274 126.514 197.064L124.134 192.878C123.425 191.631 122.236 190.729 120.845 190.38Z" fill="white"/>
</g>
<path fill-rule="evenodd" clip-rule="evenodd" d="M77.7007 126.869C74.1779 126.619 71.1192 129.272 70.8689 132.795C70.6187 136.317 73.2716 139.376 76.7944 139.626C80.3172 139.877 83.3759 137.224 83.6262 133.701C83.8765 130.178 81.2235 127.119 77.7007 126.869ZM76.5678 142.816C81.852 143.191 86.4401 139.212 86.8155 133.927C87.1909 128.643 83.2115 124.055 77.9273 123.68C72.6431 123.304 68.055 127.284 67.6796 132.568C67.3042 137.852 71.2836 142.44 76.5678 142.816Z" fill="#FFD159"/>
<path fill-rule="evenodd" clip-rule="evenodd" d="M148.205 127.07C144.683 126.819 141.624 129.472 141.374 132.995C141.123 136.518 143.776 139.577 147.299 139.827C150.822 140.077 153.881 137.424 154.131 133.901C154.381 130.378 151.728 127.32 148.205 127.07ZM147.072 143.016C152.357 143.391 156.945 139.412 157.32 134.128C157.696 128.844 153.716 124.256 148.432 123.88C143.148 123.505 138.56 127.484 138.184 132.768C137.809 138.053 141.788 142.641 147.072 143.016Z" fill="#FFD159"/>
<path d="M79.8705 141.447C85.8088 181.937 136.951 183.967 144.681 142.846" stroke="#081125" stroke-width="3.19735"/>
<path d="M140.01 140.912L143.482 137.152L148.153 139.086L147.813 143.87L143.029 143.53L140.01 140.912Z" fill="#FE8900"/>
<path d="M76.5108 143.613L76.8507 138.829L80.9506 137.518L83.8567 141.731L80.5541 143.099L76.5108 143.613Z" fill="#FE8900"/>
<ellipse cx="112.116" cy="172.587" rx="3.99669" ry="4.79603" transform="rotate(4.06367 112.116 172.587)" fill="#FFBA08"/>
<ellipse cx="93.8385" cy="166.625" rx="3.19735" ry="3.99669" transform="rotate(27.5772 93.8385 166.625)" fill="#FFBA08"/>
<ellipse cx="131.081" cy="166.225" rx="3.19735" ry="3.99669" transform="rotate(-29.6223 131.081 166.225)" fill="#FFBA08"/>
<circle cx="122.267" cy="191.799" r="1.61744" transform="rotate(4.06367 122.267 191.799)" fill="white"/>
<circle cx="110.017" cy="188.149" r="0.693187" transform="rotate(4.06367 110.017 188.149)" fill="white"/>
<circle cx="120.357" cy="192.59" r="1.15531" transform="rotate(4.06367 120.357 192.59)" fill="white"/>
<circle cx="123.649" cy="191.897" r="0.693187" transform="rotate(4.06367 123.649 191.897)" fill="white"/>
<circle cx="120.257" cy="187.486" r="0.693187" transform="rotate(4.06367 120.257 187.486)" fill="white"/>
<circle cx="116.851" cy="193.036" r="0.462124" transform="rotate(4.06367 116.851 193.036)" fill="white"/>
<path d="M151 119.5C121.5 145.5 87 135 73.5 119.5L76.5 60.5H148.5C149 69.3333 150.2 98.3 151 119.5Z" fill="#32BE42"/>
<path d="M88.6969 88.2792H95.6045H102.512C104.638 88.2792 106.331 90.1324 105.679 92.1556C104.463 95.9225 101.679 100.061 95.6045 100.061C89.5295 100.061 86.7457 95.9225 85.5304 92.1556C84.8777 90.1324 86.571 88.2792 88.6969 88.2792Z" fill="#298733"/>
<mask id="mask16_435_20371" style="mask-type:alpha" maskUnits="userSpaceOnUse" x="84" y="87" width="23" height="11">
<path d="M87.9661 87H95.6047H103.243C105.369 87 107.057 88.8762 106.169 90.808C104.695 94.0183 101.534 97.1375 95.6047 97.1375C89.675 97.1375 86.5147 94.0183 85.0402 90.808C84.1529 88.8762 85.8402 87 87.9661 87Z" fill="white"/>
</mask>
<g mask="url(#mask16_435_20371)">
<path d="M87.9661 87H95.6047H103.243C105.369 87 107.057 88.8762 106.169 90.808C104.695 94.0183 101.534 97.1375 95.6047 97.1375C89.675 97.1375 86.5147 94.0183 85.0402 90.808C84.1529 88.8762 85.8402 87 87.9661 87Z" fill="white"/>
<path d="M106.809 91.071C97.3121 96.5666 88.0906 93.3608 84.667 91.071C82.6395 97.0468 91.1585 98.7185 95.6715 98.8075C99.0284 98.5185 105.956 96.5666 106.809 91.071Z" fill="#299936"/>
<circle cx="95.6162" cy="87.7426" r="3.57521" fill="#29404D"/>
</g>
<path d="M135.303 88.2792H128.395H121.488C119.362 88.2792 117.669 90.1324 118.321 92.1556C119.537 95.9225 122.321 100.061 128.395 100.061C134.47 100.061 137.254 95.9225 138.47 92.1556C139.122 90.1324 137.429 88.2792 135.303 88.2792Z" fill="#298733"/>
<mask id="mask17_435_20371" style="mask-type:alpha" maskUnits="userSpaceOnUse" x="117" y="87" width="23" height="11">
<path d="M136.034 87H128.395H120.757C118.631 87 116.943 88.8762 117.831 90.808C119.305 94.0183 122.466 97.1375 128.395 97.1375C134.325 97.1375 137.485 94.0183 138.96 90.808C139.847 88.8762 138.16 87 136.034 87Z" fill="white"/>
</mask>
<g mask="url(#mask17_435_20371)">
<path d="M136.034 87H128.395H120.757C118.631 87 116.943 88.8762 117.831 90.808C119.305 94.0183 122.466 97.1375 128.395 97.1375C134.325 97.1375 137.485 94.0183 138.96 90.808C139.847 88.8762 138.16 87 136.034 87Z" fill="white"/>
<path d="M117.191 91.071C126.688 96.5666 135.909 93.3608 139.333 91.071C141.361 97.0468 132.841 98.7185 128.329 98.8075C124.972 98.5185 118.044 96.5666 117.191 91.071Z" fill="#299936"/>
<circle cx="3.57521" cy="3.57521" r="3.57521" transform="matrix(-1 0 0 1 131.959 84.1674)" fill="#29404D"/>
</g>
<path d="M87 78.5C97 78.5 102.5 86 112 86C121.5 86 127 78.5 137 78.5C146 78.5 145.5 93 146 100H149V66H112H75V100H78C78.5 93 78 78.5 87 78.5Z" fill="#299936"/>
<path d="M147 77C117.4 63.4 87.6667 71.3333 76.5 77V61.5H147V77Z" fill="#298733"/>
<mask id="mask18_435_20371" style="mask-type:alpha" maskUnits="userSpaceOnUse" x="56" y="71" width="17" height="48">
<path d="M72.5 71.5L56.5 106.5L69.5 119L72.5 71.5Z" fill="#B3B3B3"/>
</mask>
<g mask="url(#mask18_435_20371)">
<path d="M72.5 71.5L56.5 106.5L69.5 119L72.5 71.5Z" fill="#008FA0"/>
<path d="M73.5 61.5L47.5 102.5L62.244 107.005C63.9719 107.533 65.7709 106.425 66.0773 104.645L73.5 61.5Z" fill="#00B0C5"/>
</g>
<mask id="mask19_435_20371" style="mask-type:alpha" maskUnits="userSpaceOnUse" x="151" y="71" width="17" height="48">
<path d="M151.5 71.5L167.5 106.5L154.5 119L151.5 71.5Z" fill="#B3B3B3"/>
</mask>
<g mask="url(#mask19_435_20371)">
<path d="M151.5 71.5L167.5 106.5L154.5 119L151.5 71.5Z" fill="#008FA0"/>
<path d="M150.5 61.5L176.5 102.5L161.756 107.005C160.028 107.533 158.229 106.425 157.923 104.645L150.5 61.5Z" fill="#00B0C5"/>
</g>
<mask id="mask20_435_20371" style="mask-type:alpha" maskUnits="userSpaceOnUse" x="74" y="22" width="76" height="34">
<path fill-rule="evenodd" clip-rule="evenodd" d="M150 56C150 37.2223 132.987 22 112 22C91.0132 22 74 37.2223 74 56H150Z" fill="#B3B3B3"/>
</mask>
<g mask="url(#mask20_435_20371)">
<ellipse cx="112" cy="56" rx="38" ry="34" fill="#1BE7FF"/>
<mask id="mask21_435_20371" style="mask-type:alpha" maskUnits="userSpaceOnUse" x="68" y="25" width="77" height="61">
<ellipse cx="106.5" cy="55.5" rx="38.5" ry="30.5" fill="#B3B3B3"/>
</mask>
<g mask="url(#mask21_435_20371)">
<ellipse cx="106.5" cy="55.5" rx="38.5" ry="30.5" fill="#008FA0"/>
<ellipse cx="115.554" cy="24.1918" rx="37.5001" ry="16.9521" transform="rotate(8.017 115.554 24.1918)" fill="#00B0C5"/>
</g>
</g>
<mask id="mask22_435_20371" style="mask-type:alpha" maskUnits="userSpaceOnUse" x="48" y="47" width="128" height="83">
<path d="M79 72.5C90.5 68 101.5 66 112 66C122.5 66 133.5 68 145 72.5C145.38 80.475 146.39 109.512 146.92 125.124C146.971 126.626 147.725 128.007 148.956 128.87C150.747 130.123 153.16 130.003 154.817 128.578L173.795 112.256C175.618 110.688 175.968 107.998 174.605 106.016C172.971 103.64 169.605 103.276 167.502 105.249L155.5 116.5L152.166 58.3908C152.063 56.6027 151.021 54.9918 149.375 54.2848C138.378 49.5596 122.715 47 112 47C101.285 47 85.6218 49.5596 74.6246 54.2848C72.9791 54.9918 71.9367 56.6027 71.8341 58.3908L68.5 116.5L56.4984 105.249C54.3947 103.276 51.0287 103.64 49.395 106.016C48.0325 107.998 48.3817 110.688 50.2052 112.256L69.1833 128.578C70.8404 130.003 73.2529 130.123 75.0435 128.87C76.2753 128.007 77.0294 126.626 77.0803 125.124C77.6095 109.512 78.6202 80.475 79 72.5Z" fill="#D9D9D9"/>
</mask>
<g mask="url(#mask22_435_20371)">
<path d="M79 72.5C90.5 68 101.5 66 112 66C122.5 66 133.5 68 145 72.5C145.4 80.9 146.5 112.667 147 127.5L152 131L177 109.5L171.5 101.5L155.5 116.5L152 55.5C141 50 123.6 47 112 47C100.4 47 83 50 72 55.5L68.5 116.5L52.5 101.5L47 109.5L72 131L77 127.5C77.5 112.667 78.6 80.9 79 72.5Z" fill="#FE8900"/>
<path d="M50.4172 107.325L47 109.5L66.5 56L86 50.5C76.25 53.25 76 55 75.1409 68L72.3731 119.551C72.232 122.179 69.0174 123.364 67.2037 121.458L54.2015 107.789C53.213 106.75 51.6272 106.555 50.4172 107.325Z" fill="#FFBA08"/>
<path d="M173.583 107.325L177 109.5L157.5 56L138 50.5C147.75 53.25 148 55 148.859 68L151.627 119.551C151.768 122.179 154.983 123.364 156.796 121.458L169.798 107.789C170.787 106.75 172.373 106.555 173.583 107.325Z" fill="#FFBA08"/>
<path d="M79 73.6788V77.5H112H145V73.6788C145 70.7886 143.456 68.078 140.77 67.0093C132.629 63.769 121.253 62 112 62C102.747 62 91.3713 63.769 83.2297 67.0093C80.5443 68.078 79 70.7886 79 73.6788Z" fill="#FF6600"/>
</g>
<mask id="mask23_435_20371" style="mask-type:alpha" maskUnits="userSpaceOnUse" x="102" y="0" width="20" height="34">
<path d="M103.813 29.3353L107.448 31.8503C110.187 33.7454 113.813 33.7454 116.552 31.8503L120.187 29.3353C121.266 28.5888 121.734 27.228 121.344 25.9755L113.909 2.12544C113.326 0.252347 110.674 0.252347 110.091 2.12544L102.656 25.9755C102.266 27.228 102.734 28.5888 103.813 29.3353Z" fill="#D9D9D9"/>
</mask>
<g mask="url(#mask23_435_20371)">
<path d="M103.813 29.3353L107.448 31.8503C110.187 33.7454 113.813 33.7454 116.552 31.8503L120.187 29.3353C121.266 28.5888 121.734 27.228 121.344 25.9755L113.909 2.12544C113.326 0.252347 110.674 0.252347 110.091 2.12544L102.656 25.9755C102.266 27.228 102.734 28.5888 103.813 29.3353Z" fill="#FE8900"/>
<path d="M107.001 19.9946L112 0H115L123.5 25L116.665 28.0758C111.333 30.4752 105.583 25.6671 107.001 19.9946Z" fill="#FFBA08"/>
<path d="M114.5 2C107 24 116.5 27.5 123 22L114.5 2Z" fill="#FFD159"/>
</g>
<mask id="mask24_435_20371" style="mask-type:alpha" maskUnits="userSpaceOnUse" x="75" y="15" width="21" height="23">
<path d="M85.7087 37.2006L89.094 36.8854C91.6449 36.6479 93.7819 34.8548 94.4587 32.3839L95.357 29.1047C95.6236 28.1314 95.2269 27.0978 94.3776 26.5528L78.204 16.1747C76.9338 15.3597 75.3716 16.6705 75.9537 18.0629L83.3656 35.7929C83.7548 36.724 84.7039 37.2942 85.7087 37.2006Z" fill="#D9D9D9"/>
</mask>
<g mask="url(#mask24_435_20371)">
<path d="M85.7087 37.2006L89.094 36.8854C91.6449 36.6479 93.7819 34.8548 94.4587 32.3839L95.357 29.1047C95.6236 28.1314 95.2269 27.0978 94.3776 26.5528L78.204 16.1747C76.9338 15.3597 75.3716 16.6705 75.9537 18.0629L83.3656 35.7929C83.7548 36.724 84.7039 37.2942 85.7087 37.2006Z" fill="#FE8900"/>
<path d="M82.9688 30.1201L76.0279 15.8664L77.7957 14.383L95.1658 24.9118L92.6589 30.1039C90.7033 34.1542 84.9379 34.1639 82.9688 30.1201Z" fill="#FFBA08"/>
<path d="M78.49 15.8088C84.9485 32.481 92.2771 29.8461 93.3878 23.3912L78.49 15.8088Z" fill="#FFD159"/>
</g>
<mask id="mask25_435_20371" style="mask-type:alpha" maskUnits="userSpaceOnUse" x="128" y="15" width="21" height="23">
<path d="M138.518 37.2006L135.132 36.8854C132.581 36.6479 130.444 34.8548 129.768 32.3839L128.869 29.1047C128.603 28.1314 128.999 27.0978 129.849 26.5528L146.022 16.1747C147.293 15.3597 148.855 16.6705 148.273 18.0629L140.861 35.7929C140.471 36.724 139.522 37.2942 138.518 37.2006Z" fill="#D9D9D9"/>
</mask>
<g mask="url(#mask25_435_20371)">
<path d="M138.518 37.2006L135.132 36.8854C132.581 36.6479 130.444 34.8548 129.768 32.3839L128.869 29.1047C128.603 28.1314 128.999 27.0978 129.849 26.5528L146.022 16.1747C147.293 15.3597 148.855 16.6705 148.273 18.0629L140.861 35.7929C140.471 36.724 139.522 37.2942 138.518 37.2006Z" fill="#FE8900"/>
<path d="M141.258 30.1201L148.198 15.8664L146.431 14.383L129.061 24.9118L131.567 30.1039C133.523 34.1542 139.288 34.1639 141.258 30.1201Z" fill="#FFBA08"/>
<path d="M145.736 15.8088C139.278 32.481 131.949 29.8461 130.839 23.3912L145.736 15.8088Z" fill="#FFD159"/>
</g>
<mask id="mask26_435_20371" style="mask-type:alpha" maskUnits="userSpaceOnUse" x="0" y="1" width="111" height="67">
<path d="M70.8608 39.0489C80.9238 42.4705 99.8484 46.804 110.5 46.804V67.804C94.0056 65.575 69.5617 58.5764 58.077 52.1239C55.6074 50.7364 53.7177 48.5943 52.0944 46.273C46.0248 37.5936 36.9811 26.1018 30.764 19.2222C28.3355 16.535 25.5337 14.2092 22.3047 12.5684C16.603 9.67132 9.015 6.94872 2.28967 5.13371C0.250899 4.5835 0.19608 1.77266 2.28991 1.49839C12.0786 0.216184 21.8523 1.62432 28.423 3.27607C31.8498 4.13752 35.0956 5.61215 37.8939 7.76962C45.9005 13.9426 56.9736 25.7519 65.1491 35.0938C66.7043 36.8709 68.625 38.2887 70.8608 39.0489Z" fill="#EFEBEB"/>
</mask>
<g mask="url(#mask26_435_20371)">
<path d="M70.8608 39.0489C80.9238 42.4705 99.8484 46.804 110.5 46.804V67.804C94.0056 65.575 69.5617 58.5764 58.077 52.1239C55.6074 50.7364 53.7177 48.5943 52.0944 46.273C46.0248 37.5936 36.9811 26.1018 30.764 19.2222C28.3355 16.535 25.5337 14.2092 22.3047 12.5684C16.603 9.67132 9.015 6.94872 2.28967 5.13371C0.250899 4.5835 0.19608 1.77266 2.28991 1.49839C12.0786 0.216184 21.8523 1.62432 28.423 3.27607C31.8498 4.13752 35.0956 5.61215 37.8939 7.76962C45.9005 13.9426 56.9736 25.7519 65.1491 35.0938C66.7043 36.8709 68.625 38.2887 70.8608 39.0489Z" fill="#F4E8B2"/>
<path d="M46 33C31 13.5 26 8.5 1 5V8L25.5 19L51.5 55L111 70L105 64C62.1864 54.0434 60.2469 51.5218 46.1844 33.2397L46 33Z" fill="#CCC39B"/>
<path d="M68.419 46.0671C73.6432 48.3168 79.3549 50.1207 85.6163 51.2618C88.2002 51.7327 90.5 49.6872 90.5 47.0607C90.5 44.9865 89.0447 43.1968 87.0141 42.7738L78.5 41L44 -7.49998C32.5 -9.83332 5 -9.29999 -1 3.50001C30.3502 0.606149 39.8338 16.7874 62.4561 41.7216C64.1265 43.5628 66.1357 45.0839 68.419 46.0671Z" fill="#F6F1DA"/>
</g>
<mask id="mask27_435_20371" style="mask-type:alpha" maskUnits="userSpaceOnUse" x="114" y="1" width="110" height="67">
<path d="M153.639 39.0489C143.576 42.4705 124.652 46.804 114 46.804V67.804C130.494 65.575 154.938 58.5764 166.423 52.1239C168.893 50.7364 170.782 48.5943 172.406 46.273C178.475 37.5936 187.519 26.1018 193.736 19.2222C196.164 16.535 198.966 14.2092 202.195 12.5684C207.897 9.67132 215.485 6.94872 222.21 5.13371C224.249 4.5835 224.304 1.77266 222.21 1.49839C212.421 0.216184 202.648 1.62432 196.077 3.27607C192.65 4.13752 189.404 5.61215 186.606 7.76962C178.6 13.9426 167.526 25.7519 159.351 35.0938C157.796 36.8709 155.875 38.2887 153.639 39.0489Z" fill="#EFEBEB"/>
</mask>
<g mask="url(#mask27_435_20371)">
<path d="M153.639 39.0489C143.576 42.4705 124.652 46.804 114 46.804V67.804C130.494 65.575 154.938 58.5764 166.423 52.1239C168.893 50.7364 170.782 48.5943 172.406 46.273C178.475 37.5936 187.519 26.1018 193.736 19.2222C196.164 16.535 198.966 14.2092 202.195 12.5684C207.897 9.67132 215.485 6.94872 222.21 5.13371C224.249 4.5835 224.304 1.77266 222.21 1.49839C212.421 0.216184 202.648 1.62432 196.077 3.27607C192.65 4.13752 189.404 5.61215 186.606 7.76962C178.6 13.9426 167.526 25.7519 159.351 35.0938C157.796 36.8709 155.875 38.2887 153.639 39.0489Z" fill="#F4E8B2"/>
<path d="M178.5 33C193.5 13.5 198.5 8.5 223.5 5V8L199 19L173 55L113.5 70L119.5 64C162.314 54.0434 164.253 51.5218 178.316 33.2397L178.5 33Z" fill="#CCC39B"/>
<path d="M156.081 46.0671C150.857 48.3168 145.145 50.1207 138.884 51.2618C136.3 51.7327 134 49.6872 134 47.0607C134 44.9865 135.455 43.1968 137.486 42.7738L146 41L180.5 -7.49998C192 -9.83332 219.5 -9.29999 225.5 3.50001C194.15 0.606149 184.666 16.7874 162.044 41.7216C160.374 43.5628 158.364 45.0839 156.081 46.0671Z" fill="#F6F1DA"/>
</g>
<ellipse cx="112" cy="121" rx="16" ry="5" fill="#298733"/>
<path d="M91.6039 107.086C98.1361 109.522 105.684 111 112 111C118.316 111 125.864 109.522 132.396 107.086C135.948 105.761 140.185 108.124 140.337 111.913C140.438 114.46 139.261 116.929 137.026 118.155C130.643 121.66 122.223 124 112 124C101.777 124 93.3567 121.66 86.9736 118.155C84.7389 116.929 83.5616 114.46 83.6635 111.913C83.815 108.124 88.0516 105.761 91.6039 107.086Z" fill="#C75353"/>
<path d="M88 112C94.5 114.5 104 116.5 112.5 116.5C121 116.5 130.5 114.5 137 112C134.97 114.827 127.5 117.5 123 118.5C120.799 120.589 117.014 121 112.5 121C107.986 121 104.201 120.589 102 118.5C97.5 117.5 90.0302 114.827 88 112Z" fill="#783232"/>
<ellipse cx="112" cy="120.5" rx="16" ry="5" fill="#298733"/>
<path d="M91.6039 106.586C98.1361 109.022 105.684 110.5 112 110.5C118.316 110.5 125.864 109.022 132.396 106.586C135.948 105.261 140.185 107.624 140.337 111.413C140.438 113.96 139.261 116.429 137.026 117.655C130.643 121.16 122.223 123.5 112 123.5C101.777 123.5 93.3567 121.16 86.9736 117.655C84.7389 116.429 83.5616 113.96 83.6635 111.413C83.815 107.624 88.0516 105.261 91.6039 106.586Z" fill="#C75353"/>
<path d="M88 111.5C94.5 114 104 116 112.5 116C121 116 130.5 114 137 111.5C134.97 114.327 127.5 117 123 118C120.799 120.089 117.014 120.5 112.5 120.5C107.986 120.5 104.201 120.089 102 118C97.5 117 90.0302 114.327 88 111.5Z" fill="#783232"/>
<mask id="mask28_435_20371" style="mask-type:alpha" maskUnits="userSpaceOnUse" x="88" y="111" width="49" height="13">
<path d="M88 111.5C94.5 114 104 116 112.5 116C121 116 130.5 114 137 111.5V123.5H88V111.5Z" fill="#B3B3B3"/>
</mask>
<g mask="url(#mask28_435_20371)">
<path d="M93.8115 123.095C90.6007 118.845 90.7575 113.724 91.3147 111.5L100 112.738C97.9704 116.282 96.3558 119.827 95.4956 122.693C95.2662 123.458 94.2926 123.731 93.8115 123.095Z" fill="white"/>
<path d="M131.189 123.095C134.399 118.845 134.243 113.724 133.685 111.5L125 112.738C127.03 116.282 128.644 119.827 129.504 122.693C129.734 123.458 130.707 123.731 131.189 123.095Z" fill="white"/>
</g>
<path d="M110.511 42.9451H114.107C115.996 42.9451 117.813 43.6706 119.183 44.9719L123.628 49.194C125.092 50.5855 125.921 52.5172 125.921 54.5374V60.408C125.921 62.4283 125.092 64.3599 123.628 65.7514L119.183 69.9736C117.813 71.2748 115.996 72.0004 114.107 72.0004H110.511C108.621 72.0004 106.804 71.2748 105.434 69.9736L100.99 65.7514C99.5253 64.3599 98.696 62.4283 98.696 60.408V54.5374C98.696 52.5172 99.5253 50.5855 100.99 49.194L105.434 44.9719C106.804 43.6706 108.621 42.9451 110.511 42.9451Z" fill="#9CF5FF"/>
<path fill-rule="evenodd" clip-rule="evenodd" d="M117.177 43.6144C116.222 43.1766 115.176 42.9441 114.106 42.9441H110.51C108.621 42.9441 106.804 43.6696 105.434 44.9709L100.99 49.1931C100.285 49.8621 99.7279 50.656 99.339 51.5247L104.909 54.091L114.594 50.5277L117.177 43.6144Z" fill="#82DDE8"/>
<path fill-rule="evenodd" clip-rule="evenodd" d="M125.346 51.6821C125.722 52.5768 125.921 53.546 125.921 54.5365V60.4071C125.921 62.4273 125.092 64.359 123.627 65.7505L119.183 69.9726C117.813 71.2739 115.996 71.9994 114.106 71.9994H110.51C108.621 71.9994 106.804 71.2739 105.434 69.9726L100.99 65.7505C100.237 65.0358 99.6526 64.1787 99.2618 63.2402L125.346 51.6821Z" fill="#1BE7FF"/>
<path fill-rule="evenodd" clip-rule="evenodd" d="M125.291 63.3893C124.901 64.2695 124.339 65.0739 123.627 65.7505L119.183 69.9727C117.813 71.274 115.996 71.9995 114.107 71.9995H110.51C109.465 71.9995 108.443 71.7776 107.506 71.3592L110.101 64.4159L119.786 60.8525L125.291 63.3893Z" fill="#1BC0D4"/>
<path d="M111.67 49.4872H113.002C114.261 49.4872 115.471 49.9703 116.384 50.8368L118.346 52.6987C119.323 53.6264 119.877 54.9149 119.877 56.2625V58.7922C119.877 60.1398 119.323 61.4283 118.346 62.356L116.384 64.2179C115.471 65.0844 114.261 65.5675 113.002 65.5675H111.67C110.411 65.5675 109.201 65.0844 108.288 64.2179L106.326 62.356C105.348 61.4283 104.795 60.1398 104.795 58.7922V56.2625C104.795 54.9149 105.348 53.6264 106.326 52.6987L108.288 50.8368C109.201 49.9703 110.411 49.4872 111.67 49.4872Z" fill="#B9F7FF"/>
<path fill-rule="evenodd" clip-rule="evenodd" d="M119.878 57.6045V56.2628C119.878 54.9151 119.324 53.6266 118.347 52.6989L116.385 50.8371C115.472 49.9706 114.261 49.4875 113.003 49.4875H111.671C110.412 49.4875 109.201 49.9706 108.288 50.8371L106.327 52.6989C106.218 52.8019 106.115 52.9094 106.017 53.0209C109.825 49.984 118.489 53.3524 119.878 57.6045Z" fill="#D7FBFF"/>
<path fill-rule="evenodd" clip-rule="evenodd" d="M120.989 68.2563L119.183 69.9726C117.813 71.2738 115.996 71.9994 114.107 71.9994H110.51C108.621 71.9994 106.804 71.2738 105.434 69.9726L104.006 68.6159L102.472 67.1495C102.012 66.7101 102.024 65.9722 102.498 65.5482C102.964 65.1314 103.681 65.1946 104.124 65.6363C108.509 70.0169 116.791 70.8688 120.989 68.2533L120.989 68.2563Z" fill="#19A5B8"/>
<path fill-rule="evenodd" clip-rule="evenodd" d="M103.63 46.6872L105.436 44.9709C106.806 43.6696 108.623 42.9441 110.512 42.9441H114.109C115.998 42.9441 117.815 43.6696 119.185 44.9709L120.623 46.3368L122.147 47.7939C122.607 48.2333 122.595 48.9712 122.121 49.3952C121.655 49.812 120.937 49.7488 120.495 49.3071C116.11 44.9265 107.828 44.0745 103.629 46.6901L103.63 46.6872Z" fill="#A8F2FB"/>
<path fill-rule="evenodd" clip-rule="evenodd" d="M125.921 58.2157V60.4072C125.921 62.4274 125.092 64.3591 123.627 65.7505L119.183 69.9727C117.813 71.274 115.996 71.9995 114.106 71.9995H110.51C108.621 71.9995 106.804 71.274 105.434 69.9727L100.99 65.7505C99.5249 64.3591 98.6956 62.4274 98.6956 60.4072V57.8477C103.09 56.379 107.98 57.0335 113.034 57.7099C117.279 58.2781 121.64 58.8618 125.921 58.2157Z" fill="#36C5F0" fill-opacity="0.15"/>
<circle cx="101.619" cy="56.4669" r="0.913688" fill="#A8F2FB"/>
<circle cx="113.954" cy="52.7206" r="0.82232" fill="#9CF5FF"/>
<circle cx="105.914" cy="49.0658" r="1.1878" fill="#D5FAFF"/>
<circle cx="116.695" cy="68.2534" r="1.91875" fill="#A8F2FB"/>
<circle cx="107.01" cy="47.9695" r="0.639582" fill="white"/>
<circle cx="111.579" cy="59.1165" r="0.639582" fill="white"/>
<circle cx="116.604" cy="46.9644" r="1.27916" fill="white"/>
<circle cx="109.843" cy="65.2382" r="1.4619" fill="#D5FAFF"/>
<ellipse cx="118.34" cy="67.0656" rx="1.00506" ry="0.913688" fill="#1BE7FF"/>
<ellipse cx="123.274" cy="58.8425" rx="1.55327" ry="1.4619" fill="#1BE7FF"/>
<circle cx="118.066" cy="47.3299" r="0.730951" fill="white"/>
<circle cx="111.487" cy="65.4209" r="0.730951" fill="#D5FAFF"/>
<circle cx="110.574" cy="63.9591" r="0.365475" fill="white"/>
<circle cx="112.31" cy="67.3397" r="0.274107" fill="white"/>
<circle cx="110.848" cy="66.2432" r="0.456844" fill="white"/>
<circle cx="116.33" cy="45.2285" r="0.456844" fill="white"/>
<circle cx="114.32" cy="46.6904" r="0.456844" fill="white"/>
<circle cx="117.518" cy="49.34" r="0.365475" fill="white"/>
</svg>
