<svg width="63" height="55" viewBox="0 0 63 55" fill="none" xmlns="http://www.w3.org/2000/svg">
<g clip-path="url(#clip0_410_18542)">
<g clip-path="url(#clip1_410_18542)">
<path d="M32.0271 29.4732C37.8106 29.8852 39.7765 29.8852 45.56 29.4732L46.1867 34.7424H31.3772L32.0271 29.4732Z" fill="#076C8E"/>
<path d="M32.8628 30.2856C37.7398 30.7499 39.8242 30.7499 44.7011 30.2856L45.0261 34.7424H32.5378L32.8628 30.2856Z" fill="#05516B"/>
<path d="M26.8809 35.3356C30.4088 33.0011 34.5438 31.7524 38.7742 31.7441C43.0045 31.7524 47.1395 33.0011 50.6674 35.3356L53.2201 53.5444H24.7617L26.8809 35.3356Z" fill="#00B0C5"/>
<path d="M56.8886 47.9734H49.8089C46.6752 43.0292 49.4607 36.5762 50.6213 35.3227C53.3827 37.0679 57.4056 41.0417 57.7877 47.0441C57.8203 47.5558 57.4014 47.9734 56.8886 47.9734Z" fill="#00B0C5"/>
<path d="M20.6531 47.9734H27.7329C30.8665 43.0292 28.0811 36.5762 26.9204 35.3227C24.159 37.0679 20.1361 41.0417 19.754 47.0441C19.7214 47.5558 20.1403 47.9734 20.6531 47.9734Z" fill="#00B0C5"/>
<mask id="mask0_410_18542" style="mask-type:alpha" maskUnits="userSpaceOnUse" x="19" y="35" width="11" height="13">
<path d="M20.6531 47.9734H27.7329C30.8665 43.0292 28.0811 36.5762 26.9204 35.3227C24.159 37.0679 20.1361 41.0417 19.754 47.0441C19.7214 47.5558 20.1403 47.9734 20.6531 47.9734Z" fill="#157B9E"/>
</mask>
<g mask="url(#mask0_410_18542)">
<path d="M25.3124 45.4782C25.7578 43.7538 24.9767 42.0608 23.5676 41.6968C22.1586 41.3329 20.6553 42.4358 20.2098 44.1602L16.6736 57.8503C16.2282 59.5748 17.0094 61.2677 18.4184 61.6317C19.8274 61.9956 21.3308 60.8928 21.7762 59.1684L25.3124 45.4782Z" fill="#1889B0"/>
</g>
<mask id="mask1_410_18542" style="mask-type:alpha" maskUnits="userSpaceOnUse" x="48" y="35" width="10" height="13">
<path d="M56.8886 47.9734H49.8089C46.6752 43.0292 49.4607 36.5762 50.6213 35.3227C53.3827 37.0679 57.4056 41.0417 57.7877 47.0441C57.8203 47.5558 57.4014 47.9734 56.8886 47.9734Z" fill="#157B9E"/>
</mask>
<g mask="url(#mask1_410_18542)">
<path d="M52.2293 45.4782C51.7839 43.7538 52.5651 42.0608 53.9741 41.6968C55.3831 41.3329 56.8865 42.4358 57.3319 44.1602L60.8681 57.8503C61.3135 59.5748 60.5324 61.2677 59.1233 61.6317C57.7143 61.9956 56.211 60.8928 55.7656 59.1684L52.2293 45.4782Z" fill="#1BE7FF"/>
</g>
<path d="M29.9613 33.6514C32.6307 32.3283 35.9609 31.7496 38.7742 31.744C41.5875 31.7496 44.7012 32.3283 47.4402 33.5586C47.4402 33.5586 44.4769 37.8761 38.7588 39.9884C33.2189 37.8993 29.9613 33.6514 29.9613 33.6514Z" fill="white"/>
<path d="M24.2442 50.9901C24.7176 49.485 23.976 47.911 22.5877 47.4743C21.1995 47.0377 19.6903 47.9038 19.2169 49.4089L15.4587 61.3578C14.9853 62.8628 15.7269 64.4369 17.1151 64.8735C18.5034 65.3102 20.0125 64.444 20.4859 62.939L24.2442 50.9901Z" fill="#FFD6B0"/>
<path d="M53.2711 50.9901C52.7977 49.485 53.5393 47.911 54.9275 47.4743C56.3158 47.0377 57.8249 47.9038 58.2983 49.4089L62.0566 61.3578C62.53 62.8628 61.7884 64.4369 60.4001 64.8735C59.0119 65.3102 57.5028 64.444 57.0294 62.939L53.2711 50.9901Z" fill="#FFD6B0"/>
<ellipse cx="38.7355" cy="34.4406" rx="4.80496" ry="1.23026" fill="#E1E1E1"/>
<path d="M29.3346 42.7042C29.836 45.174 28.7543 47.7568 28.1508 48.7394C28.5376 48.7162 29.5714 48.7209 30.5184 48.6466C31.4005 47.7181 32.0736 45.6754 31.563 44.7237C31.4701 45.4294 30.8279 46.1629 30.5184 46.4414C30.4101 45.3814 30.0217 43.1499 29.3346 42.7042Z" fill="#076C8E"/>
<path d="M48.1738 42.7042C47.6724 45.174 48.7541 47.7568 49.3577 48.7394C48.9708 48.7162 47.9371 48.7209 46.99 48.6466C46.1079 47.7181 45.4348 45.6754 45.9454 44.7237C46.0383 45.4294 46.6805 46.1629 46.99 46.4414C47.0983 45.3814 47.4867 43.1499 48.1738 42.7042Z" fill="#076C8E"/>
<path d="M38.8052 40.0116C32.8164 39.1296 28.3828 37.5975 26.6187 35.5317C26.1544 32.1658 28.4989 29.0554 32.2593 29.4964C31.0522 35.0674 34.2091 37.1333 38.8052 40.0116Z" fill="#008FA0"/>
<path d="M29.8452 31.6783C30.2589 30.4873 31.7022 30.0303 33.1646 30.332L34.0699 32.2587C33.3503 32.3747 33.0719 32.7955 33.0719 33.3961C33.0719 34.7424 35.1144 36.7619 38.8052 40.0116C31.5629 35.6941 29.0792 33.8835 29.8452 31.6783Z" fill="#05516B"/>
<rect x="34.6733" y="38.6885" width="0.928495" height="6.17449" rx="0.464247" fill="white"/>
<path d="M38.7588 40.0116C44.7476 39.1296 49.1812 37.5975 50.9453 35.5317C51.4095 32.1658 49.0651 29.0554 45.3047 29.4964C46.5117 35.0674 43.3549 37.1333 38.7588 40.0116Z" fill="#008FA0"/>
<path d="M47.7188 31.6784C47.305 30.4874 45.8618 30.0303 44.3994 30.3321L43.4709 32.2587C44.0976 32.3748 44.4921 32.7955 44.4921 33.3961C44.4921 34.7425 42.4496 36.7619 38.7588 40.0116C46.001 35.6941 48.4848 33.8836 47.7188 31.6784Z" fill="#05516B"/>
<rect width="0.928495" height="6.17449" rx="0.464247" transform="matrix(-1 0 0 1 42.8906 38.6885)" fill="white"/>
</g>
</g>
<path d="M34.5574 31.8854H42.7049C42.7049 33.3608 41.9978 34.8072 40.5486 35.0838C39.3095 35.3203 37.8643 35.3032 36.6087 35.0133C35.2301 34.695 34.5574 33.3002 34.5574 31.8854Z" fill="#F4AC6C"/>
<path fill-rule="evenodd" clip-rule="evenodd" d="M38.7508 33.828C33.6398 33.828 29.4738 29.1757 29.4738 23.6005V20.6757C29.4738 15.5647 33.6398 11.3907 38.7508 11.3907C43.8618 11.3907 48.0437 15.5647 48.0437 20.6757V23.6005C48.0437 29.1757 43.8618 33.828 38.7508 33.828Z" fill="#FFB574"/>
<path fill-rule="evenodd" clip-rule="evenodd" d="M29.4738 23.6005C29.4738 29.1757 33.6398 33.828 38.7508 33.828C40.8828 33.828 42.8531 33.0185 44.4256 31.6702C45.7006 30.0775 46.4652 28.0608 46.4652 25.8753V22.9505C46.4652 17.8396 42.2833 13.6656 37.1724 13.6656C34.5168 13.6656 32.1163 14.7924 30.4227 16.5921C29.8153 17.8258 29.4738 19.2124 29.4738 20.6757V23.6005Z" fill="#FFC692"/>
<path fill-rule="evenodd" clip-rule="evenodd" d="M27.0748 23.1809C27.3324 24.5797 28.3251 25.5694 29.2924 25.3918C30.2591 25.2136 30.8342 23.9348 30.5767 22.536C30.3191 21.1366 29.3263 20.1469 28.3591 20.3251C27.3924 20.5032 26.8172 21.782 27.0748 23.1809Z" fill="#FFC692"/>
<path fill-rule="evenodd" clip-rule="evenodd" d="M50.4001 23.1809C50.1425 24.5797 49.1497 25.5694 48.1824 25.3918C47.2158 25.2136 46.6406 23.9348 46.8982 22.536C47.1558 21.1366 48.1485 20.1469 49.1158 20.3251C50.0825 20.5032 50.6576 21.782 50.4001 23.1809Z" fill="#FFB574"/>
<path fill-rule="evenodd" clip-rule="evenodd" d="M27.8615 22.025C27.8615 22.025 28.4675 20.6614 29.0736 21.9493C29.6797 23.2372 28.9221 24.5251 28.9221 24.5251C28.9221 24.5251 29.3009 21.4947 27.8615 22.025Z" fill="#E89040"/>
<path fill-rule="evenodd" clip-rule="evenodd" d="M49.6133 22.025C49.6133 22.025 49.0072 20.6614 48.4011 21.9493C47.7951 23.2372 48.5527 24.5251 48.5527 24.5251C48.5527 24.5251 48.1739 21.4947 49.6133 22.025Z" fill="#E89040"/>
<path fill-rule="evenodd" clip-rule="evenodd" d="M28.3705 25.1964C27.8657 26.077 27.2054 26.7139 26.4834 27.1145C26.2939 27.2197 26.2671 27.4887 26.4678 27.5706C27.5304 28.0044 28.7231 27.3795 29.298 27.0783C29.3061 27.0741 29.3141 27.0699 29.322 27.0658C29.2305 27.5191 29.012 27.9176 28.7889 28.2207C28.6378 28.4259 28.7667 28.7617 29.021 28.745C29.4962 28.7139 30.0726 28.622 30.6224 28.4024C30.1536 27.443 29.8198 26.395 29.6495 25.2913C29.5513 25.3378 29.4475 25.3718 29.3388 25.3918C29.0089 25.4524 28.6761 25.3772 28.3705 25.1964Z" fill="#29404D"/>
<path fill-rule="evenodd" clip-rule="evenodd" d="M47.1088 28.1394C47.7665 28.6034 48.5185 28.8103 49.138 28.8488C49.3848 28.8642 49.4777 28.5532 49.3203 28.3625C49.1035 28.0997 48.8887 27.7443 48.7725 27.2964C48.7817 27.3006 48.7911 27.3049 48.8005 27.3092C49.3954 27.5807 50.3422 28.0128 51.327 27.436C51.4829 27.3447 51.446 27.1209 51.2821 27.0451C50.5084 26.6874 49.7838 26.0728 49.2124 25.1871C48.9026 25.3746 48.5642 25.4534 48.2288 25.3918C48.1345 25.3744 48.044 25.3466 47.9576 25.3092C47.8015 26.3064 47.5115 27.2579 47.1088 28.1394Z" fill="#29404D"/>
<path d="M44.0744 15.0583C41.9156 18.1688 31.8183 20.5829 30.4719 23.4148C30.1934 20.2579 38.1862 15.1667 42.2174 13.0156C42.5888 12.8609 43.4802 13.0528 44.0744 15.0583Z" fill="#FFB574"/>
<path fill-rule="evenodd" clip-rule="evenodd" d="M47.4712 23.0608C47.1562 23.2851 46.7673 22.9008 46.9235 22.547C49.8918 15.8229 39.1452 14.3727 41.6442 8.91094C42.809 6.7995 46.0708 7.19851 48.2879 9.2606C50.419 11.3582 54.0002 18.4116 47.4712 23.0608Z" fill="#29404D"/>
<path fill-rule="evenodd" clip-rule="evenodd" d="M50.6319 19.2893C50.6051 19.3031 50.578 19.3165 50.5506 19.3294C51.8505 16.5439 48.7865 14.5244 45.4671 12.3889C42.5447 10.5087 43.4367 7.38709 45.862 7.79206C46.7092 8.07975 47.5556 8.57945 48.2879 9.26062C49.893 10.8405 52.3206 15.2315 50.6319 19.2893Z" fill="#375769"/>
<path fill-rule="evenodd" clip-rule="evenodd" d="M29.6888 23.4797C29.9029 23.7272 30.3015 23.668 30.4596 23.3815C34.7709 15.5755 45.8672 16.7585 43.3927 8.91095C42.145 4.57203 35.3607 5.17692 31.5039 8.03678C27.9202 10.6954 23.7457 16.6087 29.6888 23.4797Z" fill="#29404D"/>
<path fill-rule="evenodd" clip-rule="evenodd" d="M29.4237 23.1657C29.4676 23.2132 29.5153 23.2576 29.5666 23.2987L29.7007 23.4928C29.9172 23.725 30.3043 23.6628 30.4597 23.3815C32.3419 19.9734 35.5175 18.2788 38.2924 16.798C39.9576 15.9094 41.4784 15.0978 42.4889 14.0392C41.4399 14.8264 39.8989 15.1967 38.1612 15.6142C35.807 16.1799 33.0918 16.8323 30.7504 18.7259C29.1673 20.0979 28.6207 22.0649 29.3201 23.0387C29.3542 23.081 29.3888 23.1233 29.4237 23.1657Z" fill="#1B3340"/>
<path fill-rule="evenodd" clip-rule="evenodd" d="M39.339 5.86623C43.2155 6.28405 40.9871 8.8142 38.2712 10.0677C35.5554 11.3211 25.5741 14.2459 30.6112 8.8142C30.7042 8.71391 30.7969 8.61623 30.8893 8.52112C31.0948 8.34944 31.3003 8.18786 31.504 8.03678C33.6728 6.42851 36.7675 5.53337 39.2828 5.82956C39.302 5.84172 39.3208 5.85394 39.339 5.86623Z" fill="#375769"/>
<path d="M36.7974 30.7963C37.2799 31.0975 38.1437 31.1897 38.7704 31.1903C39.3971 31.1909 40.2377 31.0975 40.7203 30.7963C40.6618 31.1677 39.7999 31.8641 38.7704 31.8641C37.7409 31.8641 36.8559 31.1677 36.7974 30.7963Z" fill="#F18F35"/>
<path fill-rule="evenodd" clip-rule="evenodd" d="M33.6541 27.1938C33.94 29.4271 36.1159 30.4378 38.7577 30.4378C41.4077 30.4378 43.5889 29.4183 43.864 27.1769C43.8861 27.0293 43.6545 26.7846 43.3642 26.7846C39.3385 26.7846 36.2543 26.7846 34.1863 26.7846C33.8943 26.7846 33.6255 27.0112 33.6541 27.1938Z" fill="#0C1317"/>
<mask id="mask2_410_18542" style="mask-type:luminance" maskUnits="userSpaceOnUse" x="33" y="26" width="11" height="5">
<path fill-rule="evenodd" clip-rule="evenodd" d="M33.6541 27.1938C33.94 29.4271 36.1159 30.4378 38.7577 30.4378C41.4077 30.4378 43.5889 29.4183 43.864 27.1769C43.8861 27.0293 43.6545 26.7846 43.3642 26.7846C39.3385 26.7846 36.2543 26.7846 34.1863 26.7846C33.8943 26.7846 33.6255 27.0112 33.6541 27.1938Z" fill="white"/>
</mask>
<g mask="url(#mask2_410_18542)">
<path fill-rule="evenodd" clip-rule="evenodd" d="M34.704 24.7162C34.704 24.4598 34.9118 24.252 35.1682 24.252H42.6187C42.8751 24.252 43.0829 24.4598 43.0829 24.7162V26.2833C43.0829 26.9025 42.6749 27.4532 42.0726 27.5968C39.793 28.1402 37.8514 28.1538 35.6845 27.608C35.0959 27.4598 34.704 26.9159 34.704 26.3089V24.7162Z" fill="white"/>
<ellipse cx="37.4063" cy="31.0144" rx="2.97318" ry="2.11499" fill="#E30000"/>
<ellipse cx="40.11" cy="31.0144" rx="2.97318" ry="2.11499" fill="#E30000"/>
</g>
<ellipse cx="34.8126" cy="21.5969" rx="2.47764" ry="2.89058" transform="rotate(20.7984 34.8126 21.5969)" fill="#FCAF6B"/>
<ellipse cx="34.8126" cy="20.7264" rx="2.47764" ry="2.89058" transform="rotate(20.7984 34.8126 20.7264)" fill="white"/>
<path fill-rule="evenodd" clip-rule="evenodd" d="M33.7863 23.4286C35.0655 23.9145 36.562 23.0986 37.1289 21.6062C37.1673 21.5051 37.2004 21.4034 37.2285 21.3017C36.4282 21.9771 34.8129 22.8493 32.7687 22.6317C33.0217 22.9889 33.3662 23.269 33.7863 23.4286Z" fill="#EEECEC"/>
<path fill-rule="evenodd" clip-rule="evenodd" d="M34.694 22.6525C35.5464 22.8609 36.4545 22.1414 36.7224 21.0455C36.9903 19.9496 36.5165 18.8923 35.6642 18.684C35.2031 18.5713 34.7257 18.7301 34.3421 19.0731C34.3762 19.0748 34.4106 19.0798 34.445 19.0882C34.7391 19.1601 34.9192 19.4568 34.8473 19.7509C34.7754 20.045 34.4787 20.2251 34.1846 20.1532C34.0023 20.1087 33.8638 19.9778 33.802 19.8147C33.7332 19.9633 33.6769 20.1227 33.6358 20.291C33.3679 21.3868 33.8417 22.4441 34.694 22.6525Z" fill="#29404D"/>
<ellipse cx="2.47764" cy="2.89058" rx="2.47764" ry="2.89058" transform="matrix(-0.934835 0.355081 0.355081 0.934835 43.9948 18.015)" fill="#FCAF6B"/>
<ellipse cx="2.47764" cy="2.89058" rx="2.47764" ry="2.89058" transform="matrix(-0.934835 0.355081 0.355081 0.934835 43.9948 17.1444)" fill="white"/>
<path fill-rule="evenodd" clip-rule="evenodd" d="M43.7313 23.4286C42.4521 23.9145 40.9555 23.0986 40.3887 21.6062C40.3503 21.5051 40.3171 21.4034 40.2891 21.3017C41.0894 21.9771 42.7047 22.8493 44.7489 22.6317C44.4958 22.9889 44.1514 23.269 43.7313 23.4286Z" fill="#EEECEC"/>
<path fill-rule="evenodd" clip-rule="evenodd" d="M42.8236 22.6525C41.9712 22.8609 41.0631 22.1414 40.7952 21.0455C40.6943 20.6328 40.6986 20.2256 40.7887 19.8671C40.9008 20.0904 41.1557 20.2151 41.4087 20.1532C41.7028 20.0813 41.883 19.7846 41.8111 19.4905C41.7433 19.2132 41.4757 19.0373 41.1988 19.0783C41.3765 18.8851 41.598 18.7464 41.8534 18.684C42.7058 18.4756 43.6139 19.1951 43.8818 20.291C44.1497 21.3868 43.6759 22.4441 42.8236 22.6525Z" fill="#29404D"/>
<path d="M36.9498 24.6345C36.9498 23.8326 37.7374 23.0666 37.9426 22.3014C38.0698 21.8272 38.4136 21.546 38.7587 21.5352C39.1038 21.546 39.4477 21.8272 39.5749 22.3014C39.7801 23.0666 40.5676 23.8326 40.5676 24.6345C40.5676 25.3123 40.2202 25.5973 39.5712 25.8937C39.2791 26.1013 39.0238 26.177 38.7587 26.177C38.4936 26.177 38.2384 26.1013 37.9463 25.8937C37.2972 25.5973 36.9498 25.3123 36.9498 24.6345Z" fill="#FFA95B"/>
<path fill-rule="evenodd" clip-rule="evenodd" d="M39.0064 21.5896C38.4541 22.8949 38.3701 24.7329 38.7835 26.1768C38.7753 26.177 38.767 26.177 38.7587 26.177C38.4936 26.177 38.2384 26.1013 37.9463 25.8937C37.2972 25.5973 36.9498 25.3123 36.9498 24.6345C36.9498 24.1681 37.2162 23.714 37.4794 23.265C37.6689 22.942 37.8567 22.6216 37.9426 22.3014C38.0698 21.8272 38.4136 21.546 38.7587 21.5352C38.8424 21.5378 38.926 21.5563 39.0064 21.5896Z" fill="#F18F35"/>
<g clip-path="url(#clip2_410_18542)">
<g clip-path="url(#clip3_410_18542)">
<path d="M10.2893 38.5999C13.362 37.546 16.2315 35.8213 19.5119 35.8149C22.7923 35.8213 25.6618 37.546 28.7345 38.5999L30.3778 52.7199H19.68H19.3438H8.646L10.2893 38.5999Z" fill="#B6F7FF"/>
<path d="M12.156 42.37C12.5448 44.2852 11.706 46.288 11.238 47.05C11.538 47.032 12.3396 47.0356 13.074 46.978C13.758 46.258 14.28 44.674 13.884 43.936C13.812 44.4832 13.314 45.052 13.074 45.268C12.99 44.446 12.6888 42.7156 12.156 42.37Z" fill="#00B0C5"/>
<path d="M26.765 42.37C26.3762 44.2852 27.215 46.288 27.683 47.05C27.383 47.032 26.5814 47.0356 25.847 46.978C25.163 46.258 24.641 44.674 25.037 43.936C25.109 44.4832 25.607 45.052 25.847 45.268C25.931 44.446 26.2322 42.7156 26.765 42.37Z" fill="#00B0C5"/>
<path d="M10.5876 47.368C11.0845 45.8236 10.5615 44.1217 9.41942 43.5668C8.27731 43.0118 6.94858 43.814 6.45163 45.3584L2.50629 57.6199C2.00934 59.1643 2.53235 60.8662 3.67446 61.4211C4.81658 61.9761 6.1453 61.1739 6.64226 59.6295L10.5876 47.368Z" fill="#FFB574"/>
<path d="M6.49858 45.2087C7.47404 46.2568 9.34171 47.1069 10.6329 47.1914C11.9094 43.4454 11.2584 39.4766 10.6248 38.4597C8.93397 39.094 7.72895 41.1353 6.49858 45.2087Z" fill="#FFC692"/>
<path d="M32.5009 45.2087C31.5255 46.2568 29.6578 47.1069 28.3666 47.1914C27.0901 43.4454 27.7411 39.4766 28.3747 38.4597C30.0655 39.094 31.2706 41.1353 32.5009 45.2087Z" fill="#FFC692"/>
<path d="M9.34539 46.9903C9.8359 45.4659 9.57169 43.9085 8.75526 43.5118C7.93883 43.1151 6.87934 44.0293 6.38883 45.5537L2.49465 57.6562C2.00414 59.1806 2.26835 60.738 3.08478 61.1347C3.90121 61.5314 4.9607 60.6172 5.45121 59.0927L9.34539 46.9903Z" fill="#FFD6B0"/>
<path d="M29.6541 46.9903C29.1636 45.4659 29.4278 43.9085 30.2443 43.5118C31.0607 43.1151 32.1202 44.0293 32.6107 45.5537L36.5049 57.6562C36.9954 59.1806 36.7312 60.738 35.9147 61.1347C35.0983 61.5314 34.0388 60.6172 33.5483 59.0927L29.6541 46.9903Z" fill="#FFD6B0"/>
<mask id="mask3_410_18542" style="mask-type:alpha" maskUnits="userSpaceOnUse" x="6" y="38" width="6" height="10">
<path d="M6.49858 45.2087C7.47404 46.2568 9.70171 47.1069 10.9929 47.1914C12.2694 43.4454 11.2584 39.4766 10.6248 38.4597C8.93397 39.094 7.72895 41.1353 6.49858 45.2087Z" fill="#FFC692"/>
</mask>
<g mask="url(#mask3_410_18542)">
<path d="M11.097 47.428C7.96122 45.7098 6.80039 42.9693 6.61194 41.8138L9.7967 38.14L11.8319 39.1762L11.097 47.428Z" fill="#008FA0"/>
<path d="M11.85 46.294C8.85484 44.6524 7.74604 42.034 7.56604 40.93L10.608 37.42L12.552 38.41L11.85 46.294Z" fill="#B6F7FF"/>
</g>
<mask id="mask4_410_18542" style="mask-type:alpha" maskUnits="userSpaceOnUse" x="27" y="38" width="6" height="10">
<path d="M32.4986 45.2087C31.5232 46.2568 29.2955 47.1069 28.0043 47.1914C26.7278 43.4454 27.7388 39.4766 28.3724 38.4597C30.0632 39.094 31.2682 41.1353 32.4986 45.2087Z" fill="#FFC692"/>
</mask>
<g mask="url(#mask4_410_18542)">
<path d="M27.9002 47.428C31.036 45.7098 32.1968 42.9693 32.3853 41.8138L29.2005 38.14L27.1653 39.1762L27.9002 47.428Z" fill="#008FA0"/>
<path d="M27.1472 46.294C30.1424 44.6524 31.2512 42.034 31.4312 40.93L28.3892 37.42L26.4452 38.41L27.1472 46.294Z" fill="#B6F7FF"/>
</g>
<mask id="mask5_410_18542" style="mask-type:alpha" maskUnits="userSpaceOnUse" x="8" y="35" width="23" height="18">
<path d="M10.2893 38.5999C13.362 37.546 16.2315 35.8213 19.5119 35.8149C22.7923 35.8213 25.6618 37.546 28.7345 38.5999L30.3778 52.7199H19.68H19.3438H8.646L10.2893 38.5999Z" fill="#157B9E"/>
</mask>
<g mask="url(#mask5_410_18542)">
<path opacity="0.9" d="M25.0799 35.0073C25.0799 36.8107 22.5817 39.0548 19.4999 40.228C16.4182 39.0548 13.9199 36.8107 13.9199 35.0073C13.9199 33.2038 16.4182 32.524 19.4999 32.524C22.5817 32.524 25.0799 33.2038 25.0799 35.0073Z" fill="#008FA0"/>
<path d="M23.604 34.8834C23.604 36.257 21.7666 37.9663 19.5 38.8599C17.2334 37.9663 15.396 36.257 15.396 34.8834C15.396 33.5098 17.2334 32.9919 19.5 32.9919C21.7666 32.9919 23.604 33.5098 23.604 34.8834Z" fill="#FFC692"/>
</g>
</g>
</g>
<path d="M17.178 34.0526H21.696C21.5863 34.8317 21.6258 35.4486 21.876 36.2277C20.5052 36.8801 18.5476 36.9187 16.998 36.1557C17.2483 35.4047 17.2878 34.8036 17.178 34.0526Z" fill="#FFC692"/>
<path fill-rule="evenodd" clip-rule="evenodd" d="M17.1503 35.6014C17.2247 35.2479 17.2484 34.9133 17.2297 34.558H21.6453C21.6259 34.9136 21.646 35.2477 21.713 35.5988C20.0459 36.3422 18.142 36.0487 17.1503 35.6014Z" fill="#F39F51"/>
<path fill-rule="evenodd" clip-rule="evenodd" d="M19.5299 35.559C15.5666 35.559 12.3361 31.9513 12.3361 27.628V25.36C12.3361 21.3967 15.5666 18.16 19.5299 18.16C23.4932 18.16 26.7361 21.3967 26.7361 25.36V27.628C26.7361 31.9513 23.4932 35.559 19.5299 35.559Z" fill="#FFB574"/>
<path fill-rule="evenodd" clip-rule="evenodd" d="M12.3361 27.628C12.3361 31.9513 15.5666 35.5589 19.5299 35.5589C21.1832 35.5589 22.711 34.9312 23.9305 33.8856C24.9191 32.6506 25.5121 31.0867 25.5121 29.392V27.124C25.5121 23.1607 22.2692 19.924 18.3059 19.924C16.2467 19.924 14.3852 20.7978 13.0719 22.1933C12.6009 23.1501 12.3361 24.2253 12.3361 25.36V27.628Z" fill="#FFC692"/>
<path fill-rule="evenodd" clip-rule="evenodd" d="M10.4757 27.3026C10.6754 28.3873 11.4452 29.1548 12.1953 29.0171C12.9449 28.8789 13.3909 27.8873 13.1912 26.8026C12.9914 25.7174 12.2216 24.9499 11.4715 25.0881C10.7219 25.2263 10.2759 26.2179 10.4757 27.3026Z" fill="#FFC692"/>
<path fill-rule="evenodd" clip-rule="evenodd" d="M28.5632 27.3026C28.3634 28.3873 27.5936 29.1548 26.8435 29.0171C26.0939 28.8789 25.6479 27.8873 25.8476 26.8026C26.0474 25.7174 26.8172 24.9499 27.5673 25.0881C28.3169 25.2263 28.7629 26.2179 28.5632 27.3026Z" fill="#FFB574"/>
<path fill-rule="evenodd" clip-rule="evenodd" d="M11.0857 26.4063C11.0857 26.4063 11.5557 25.3488 12.0256 26.3475C12.4956 27.3462 11.9081 28.3449 11.9081 28.3449C11.9081 28.3449 12.2019 25.995 11.0857 26.4063Z" fill="#E89040"/>
<path fill-rule="evenodd" clip-rule="evenodd" d="M27.9532 26.4063C27.9532 26.4063 27.4833 25.3488 27.0133 26.3475C26.5433 27.3462 27.1308 28.3449 27.1308 28.3449C27.1308 28.3449 26.8371 25.995 27.9532 26.4063Z" fill="#E89040"/>
<circle cx="22.2886" cy="27.0216" r="0.310628" transform="rotate(-8.92345 22.2886 27.0216)" fill="#FCAE3A"/>
<circle cx="21.1923" cy="27.7498" r="0.310628" transform="rotate(-8.92345 21.1923 27.7498)" fill="#FCAE3A"/>
<circle cx="23.7595" cy="28.8278" r="0.355003" fill="#FCAE3A"/>
<circle cx="22.0288" cy="28.6947" r="0.355003" fill="#FCAE3A"/>
<circle cx="24.9132" cy="28.2509" r="0.310628" fill="#FCAE3A"/>
<circle cx="22.8941" cy="27.9181" r="0.421566" fill="#FCAE3A"/>
<circle cx="24.0035" cy="27.2969" r="0.421566" fill="#FCAE3A"/>
<circle cx="0.310628" cy="0.310628" r="0.310628" transform="matrix(-0.987896 -0.155115 -0.155115 0.987896 17.1437 26.7629)" fill="#FCAE3A"/>
<circle cx="0.310628" cy="0.310628" r="0.310628" transform="matrix(-0.987896 -0.155115 -0.155115 0.987896 18.24 27.4911)" fill="#FCAE3A"/>
<circle cx="0.355003" cy="0.355003" r="0.355003" transform="matrix(-1 0 0 1 15.6727 28.4728)" fill="#FCAE3A"/>
<circle cx="0.355003" cy="0.355003" r="0.355003" transform="matrix(-1 0 0 1 17.4034 28.3397)" fill="#FCAE3A"/>
<circle cx="0.310628" cy="0.310628" r="0.310628" transform="matrix(-1 0 0 1 14.4746 27.9403)" fill="#FCAE3A"/>
<circle cx="0.421566" cy="0.421566" r="0.421566" transform="matrix(-1 0 0 1 16.6046 27.4965)" fill="#FCAE3A"/>
<circle cx="0.421566" cy="0.421566" r="0.421566" transform="matrix(-1 0 0 1 15.4954 26.8753)" fill="#FCAE3A"/>
<path fill-rule="evenodd" clip-rule="evenodd" d="M10.8925 28.366H9.95996L13.668 37.762C14.9891 36.8384 15.7191 36.3768 17.1084 36.2069C17.0592 36.1846 17.0104 36.1616 16.962 36.1377C17.0263 35.9448 17.0767 35.7617 17.1142 35.5834C17.1475 35.4251 17.1706 35.2707 17.1844 35.1164C14.7157 34.1808 12.8436 31.7946 12.4002 28.9212C12.3241 28.9572 12.2436 28.9836 12.1593 28.9991C11.699 29.0836 11.2314 28.8273 10.8925 28.366ZM21.8155 36.1321C26.1464 35.7926 28.3297 33.3057 27.6815 28.7659C27.4123 28.964 27.1084 29.0543 26.8075 28.9991C26.7344 28.9856 26.6642 28.964 26.5972 28.935C26.2868 30.918 25.2936 32.6679 23.8944 33.8677C23.2203 34.4456 22.4519 34.896 21.6202 35.1831C21.6306 35.2937 21.6455 35.4046 21.6652 35.5169C21.7 35.7149 21.7496 35.9176 21.8155 36.1321Z" fill="#1B3340"/>
<path d="M14.4387 45.8621C12.0896 45.8621 11.4639 43.6343 12.5959 42.388C12.6276 42.353 12.673 42.3335 12.7201 42.3324L16.512 42.2441C16.044 42.7121 15.7831 43.1899 15.99 43.5401C16.1919 43.8819 16.7379 43.8587 17.4408 43.616C17.5864 43.5657 17.7304 43.7017 17.6701 43.8435C17.1699 45.0209 16.196 45.8621 14.4387 45.8621Z" fill="#1B3340"/>
<path d="M12.4128 42.4292C10.872 41.2752 11.5338 39.8651 11.8898 39.3003C12.4359 39.9973 13.1745 40.3907 13.8826 40.7779C15.5124 41.669 14.9522 43.1395 14.568 43.6841C13.7307 42.952 13.388 43.1597 12.4128 42.4292Z" fill="#29404D"/>
<path d="M16.4551 42.3206C17.8574 41.055 17.126 39.5928 16.8041 38.9905C16.3063 39.749 15.8062 40.2114 15.0794 40.8343C13.7696 41.957 14.213 43.1133 14.5606 43.6934C15.3229 42.8928 15.5676 43.1217 16.4551 42.3206Z" fill="#1B3340"/>
<path d="M12.0886 39.7263C10.2837 38.1396 11.0473 36.2127 11.4592 35.4414C12.1007 36.3979 12.9649 36.9397 13.7935 37.473C15.7007 38.7002 14.9711 40.6977 14.5261 41.4412C13.5447 40.4354 13.231 40.7305 12.0886 39.7263Z" fill="#1B3340"/>
<path d="M14.37 39.508C16.3428 38.3848 17.052 36.934 17.178 35.188L12.804 36.16L14.37 39.508Z" fill="#1B3340"/>
<path d="M16.7756 39.5946C18.4362 37.8876 17.5561 35.94 17.169 35.1227C16.5817 36.1474 15.9894 36.7353 15.1287 37.5752C13.5772 39.0891 14.1126 40.657 14.5301 41.4443C15.4319 40.3638 15.7247 40.675 16.7756 39.5946Z" fill="#29404D"/>
<path d="M19.7422 17.0762C18.9973 16.6343 17.8829 16.2161 16.44 16.2161C12.462 16.2161 8.60999 19.3121 8.60999 27.2141C8.60999 31.8941 10.122 34.8101 13.038 37.0781C11.868 33.4961 11.382 26.4581 14.334 23.0561C13.6663 24.3915 12.912 26.6741 14.6484 28.982C14.7396 29.1502 14.9844 29.0552 14.973 28.8643C14.8284 26.4526 15.8515 24.182 18.798 22.3361C19.6569 21.7979 20.2919 21.2661 20.6456 20.6801C21.163 21.9289 21.9945 22.4753 22.8852 23.0607C24.0139 23.8026 25.2379 24.607 26.0388 26.9826C26.0944 27.1475 26.3773 27.0938 26.466 26.9441C27.1374 25.8103 27.51 25.4057 27.51 22.984C27.51 17.3518 22.8972 15.9371 19.7768 17.0592C19.7644 17.0637 19.7528 17.0694 19.7422 17.0762Z" fill="#FFB574"/>
<path fill-rule="evenodd" clip-rule="evenodd" d="M19.8853 15.5276C19.1405 15.0859 18.0264 14.668 16.584 14.668C12.606 14.668 7.69202 19.276 7.69202 27.178C7.69202 33.4996 10.986 37.456 14.73 38.608C13.8715 37.2142 12.9174 33.7544 12.516 30.274C12.1348 26.9678 12.3 25.072 13.326 22.966C13.0336 24.6066 13.2689 27.1266 14.1774 28.1717C14.282 28.292 14.4493 28.1907 14.4321 28.0321C14.1573 25.4883 15.851 23.0846 18.942 21.148C19.7788 20.6238 20.4031 20.0549 20.7618 19.4233C21.2769 20.721 22.1223 21.2767 23.0292 21.8727C24.3397 22.734 25.7785 23.6796 26.5346 27.0703C26.5701 27.2295 26.7821 27.2733 26.8652 27.1329C27.5367 25.9992 28.374 24.2177 28.374 21.796C28.374 16.1609 23.0358 14.3988 19.916 15.5131C19.9051 15.517 19.8949 15.5219 19.8853 15.5276Z" fill="#29404D"/>
<mask id="mask6_410_18542" style="mask-type:alpha" maskUnits="userSpaceOnUse" x="7" y="14" width="22" height="25">
<path d="M19.8862 15.5281C19.1413 15.0863 18.027 14.668 16.584 14.668C12.606 14.668 7.69202 19.276 7.69202 27.178C7.69202 33.4996 10.986 37.456 14.73 38.608C13.8715 37.2142 12.9174 33.7544 12.516 30.274C12.1348 26.9678 12.3 25.072 13.326 22.966C13.0336 24.6066 13.2689 27.1266 14.1774 28.1717C14.282 28.292 14.4493 28.1907 14.4321 28.0321C14.1573 25.4883 15.851 23.0846 18.942 21.148C19.801 20.6099 20.472 20.0061 20.7536 19.42C21.3071 20.7409 22.1385 21.2873 23.0292 21.8727C24.3397 22.734 25.7785 23.6796 26.5346 27.0703C26.5701 27.2295 26.7821 27.2732 26.8652 27.1329C27.5367 25.9992 28.374 24.2177 28.374 21.796C28.374 16.1638 23.0413 14.3891 19.9208 15.5112C19.9084 15.5156 19.8968 15.5213 19.8862 15.5281Z" fill="#29404D"/>
</mask>
<g mask="url(#mask6_410_18542)">
<path d="M16.6982 17.6657C18.87 17.026 19.014 15.082 17.356 14.6875C16.5768 14.1699 5.874 14.6875 7.764 29.32C9.15003 18.646 14.8883 18.1987 16.6982 17.6657Z" fill="#375769"/>
<path d="M23.0118 18.2645C20.1801 17.4129 20.86 14.6888 23.5156 15.243C27.4601 14.3794 29.4137 20.4723 28.2579 23.3027C28.5189 20.4104 25.8435 19.1161 23.0118 18.2645Z" fill="#375769"/>
<path d="M20.7781 19.4921C20.4909 22.7728 23.6941 24.568 27.15 27.9701C28.4821 20.9681 22.7761 21.76 20.7781 19.4921Z" fill="#1B3340"/>
<path d="M20.759 19.492C21.0462 22.7728 17.843 24.856 14.3871 28.258C12.642 21.328 18.7611 21.76 20.759 19.492Z" fill="#1B3340"/>
<path d="M14.6763 38.1554C14.597 35.1244 12.2088 25.4626 13.6389 21.6233C13.6818 21.5081 13.5229 21.3924 13.438 21.4813C11.0339 23.9993 8.29253 30.3048 14.4922 38.2144C14.554 38.2932 14.6789 38.2555 14.6763 38.1554Z" fill="#1B3340"/>
</g>
<path d="M16.6207 30.367C17.5482 30.1355 18.4833 30.0299 19.5181 30.004C20.5528 30.0299 21.4879 30.1355 22.4155 30.367C22.9097 30.4903 23.2423 30.9716 23.0697 31.4508C22.5887 32.7867 21.1926 33.8308 19.5181 33.8308C17.8436 33.8308 16.4475 32.7867 15.9665 31.4508C15.7939 30.9716 16.1265 30.4903 16.6207 30.367Z" fill="#0C1317"/>
<path fill-rule="evenodd" clip-rule="evenodd" d="M21.3694 33.3691C20.8257 33.6604 20.1946 33.8308 19.5181 33.8308C18.8301 33.8308 18.1891 33.6546 17.6393 33.3542C18.4927 32.9404 20.1214 32.6184 21.3694 33.3691Z" fill="#E30000"/>
<path fill-rule="evenodd" clip-rule="evenodd" d="M16.7762 30.3293L16.7926 30.5248C16.8191 30.8415 17.1152 31.0645 17.4295 31.0178C18.449 30.8665 20.0349 30.7464 21.6427 30.9965C21.9791 31.0488 22.3113 30.7967 22.3447 30.4579C22.3481 30.4229 22.3517 30.3876 22.3552 30.3521C21.4474 30.131 20.5305 30.0293 19.5181 30.004C18.5412 30.0285 17.6531 30.124 16.7762 30.3293Z" fill="#F2F2F2"/>
<path d="M21.0714 26.1663C21.1881 25.421 21.7159 25.036 22.164 25.036C22.612 25.036 23.1398 25.421 23.2565 26.1663C23.274 26.2783 23.1341 26.3526 23.0295 26.3089C22.6542 26.152 22.164 26.152 22.164 26.152C22.164 26.152 21.6738 26.152 21.2985 26.3089C21.1938 26.3526 21.0539 26.2783 21.0714 26.1663Z" fill="#532508"/>
<path d="M15.8155 26.1663C15.9321 25.421 16.4599 25.036 16.908 25.036C17.356 25.036 17.8839 25.421 18.0005 26.1663C18.018 26.2783 17.8781 26.3526 17.7735 26.3089C17.3982 26.152 16.908 26.152 16.908 26.152C16.908 26.152 16.4178 26.152 16.0425 26.3089C15.9379 26.3526 15.7979 26.2783 15.8155 26.1663Z" fill="#532508"/>
<path d="M18.8156 28.2109L19.037 27.2562C19.0909 27.0241 19.2977 26.8597 19.536 26.8597C19.7743 26.8597 19.9812 27.0241 20.035 27.2562L20.2565 28.2109C20.4058 28.78 20.1898 29.2091 19.536 29.2091C18.8822 29.2091 18.6662 28.78 18.8156 28.2109Z" fill="#F18F35"/>
<rect x="0.5" y="44.9754" width="62" height="3.04918" rx="1.52459" fill="#29437C"/>
<rect width="31" height="3" rx="1.5" transform="matrix(-1 0 0 1 50.5 48)" fill="#29437C"/>
<rect width="33" height="2" rx="1" transform="matrix(-1 0 0 1 45.5 47)" fill="#4665A9"/>
<rect width="7" height="2" rx="1" transform="matrix(-1 0 0 1 54.5 50)" fill="#4665A9"/>
<rect width="5" height="2" rx="1" transform="matrix(-1 0 0 1 12.5 50)" fill="#29437C"/>
<rect width="5" height="2" rx="1" transform="matrix(-1 0 0 1 32.5 53)" fill="#4665A9"/>
<defs>
<clipPath id="clip0_410_18542">
<rect width="46.4247" height="46.4247" fill="white" transform="translate(15.5464 0.713074)"/>
</clipPath>
<clipPath id="clip1_410_18542">
<rect width="46.4247" height="46.4247" fill="white" transform="translate(15.5464 0.713074)"/>
</clipPath>
<clipPath id="clip2_410_18542">
<rect width="36" height="36" fill="white" transform="translate(1.53601 9.88)"/>
</clipPath>
<clipPath id="clip3_410_18542">
<rect width="36" height="36" fill="white" transform="translate(1.53601 9.88)"/>
</clipPath>
</defs>
</svg>
