<svg width="172" height="19" viewBox="0 0 172 19" fill="none" xmlns="http://www.w3.org/2000/svg">
<g filter="url(#filter0_d_198_9206)">
<mask id="path-1-outside-1_198_9206" maskUnits="userSpaceOnUse" x="-2" y="-2" width="176" height="21" fill="black">
<rect fill="white" x="-2" y="-2" width="176" height="21"/>
<path d="M2.84888 16C1.26488 16 0.376875 15.112 0.376875 13.36V2.584C0.376875 1.072 1.09688 0.352 2.41688 0.352H3.08888C4.48088 0.352 5.20088 1.072 5.20088 2.584V11.8H9.85688C11.3689 11.8 12.0889 12.496 12.0889 13.816V13.888C12.0889 15.28 11.3689 16 9.85688 16H2.84888ZM15.9504 16C14.3664 16 13.4784 15.112 13.4784 13.36V3.16C13.4784 1.408 14.3664 0.472 15.9504 0.472H24.1584C25.6704 0.472 26.3664 1.072 26.3664 2.344V2.464C26.3664 3.784 25.6704 4.312 24.1584 4.312H18.3024V6.352H22.1904C23.7744 6.352 24.4224 6.856 24.4224 8.032V8.104C24.4224 9.376 23.7504 9.904 22.1904 9.904H18.3024V12.208H24.2544C25.7904 12.208 26.4864 12.688 26.4864 13.936V14.056C26.4864 15.376 25.7904 16 24.2544 16H15.9504ZM29.64 16.216C28.32 16.216 27 15.16 27.168 14.728L32.16 1.672C32.4 0.904 33.048 0.352 35.232 0.352C37.416 0.352 37.968 0.904 38.208 1.672L43.416 14.68C43.584 15.112 42.288 16.192 40.848 16.192C39.816 16.192 38.76 15.64 38.088 13.936L37.656 12.808H32.712L32.256 13.984C31.68 15.64 30.672 16.216 29.64 16.216ZM33.504 9.328H36.792L35.16 4.84L33.504 9.328ZM44.6269 13.36V3.16C44.6269 1.408 45.6829 0.472 47.1229 0.472H51.2269C56.3149 0.472 59.4349 3.424 59.4349 8.176C59.4349 12.952 56.2189 16 51.1309 16H47.3149C45.8029 16 44.6269 14.824 44.6269 13.36ZM51.0109 11.92C53.2189 11.92 54.6829 10.552 54.6829 8.176C54.6829 5.848 53.2669 4.552 51.0589 4.552H49.4029V11.92H51.0109ZM63.6458 16C62.0618 16 61.1738 15.112 61.1738 13.36V3.16C61.1738 1.408 62.0618 0.472 63.6458 0.472H71.8538C73.3658 0.472 74.0618 1.072 74.0618 2.344V2.464C74.0618 3.784 73.3658 4.312 71.8538 4.312H65.9978V6.352H69.8858C71.4698 6.352 72.1178 6.856 72.1178 8.032V8.104C72.1178 9.376 71.4458 9.904 69.8858 9.904H65.9978V12.208H71.9498C73.4858 12.208 74.1818 12.688 74.1818 13.936V14.056C74.1818 15.376 73.4858 16 71.9498 16H63.6458ZM77.8153 16.12C76.4953 16.12 75.7753 15.088 75.7753 13.336V3.16C75.7753 1.408 76.6633 0.472 78.2473 0.472H83.0233C87.3193 0.472 89.4553 2.248 89.4553 5.584C89.4553 7.648 88.4713 9.208 86.5753 9.928L86.0713 10.072L89.6233 14.464C89.7673 14.656 88.9273 16.12 86.8633 16.12C85.3753 16.12 84.6313 15.472 83.6473 14.08L81.2713 11.008H80.5993V13.888C80.5993 15.328 79.8793 16.12 78.4873 16.12H77.8153ZM80.5273 7.768H82.4953C83.9353 7.768 84.6553 7.096 84.6553 5.944C84.6553 4.744 83.9593 4.12 82.4713 4.12H80.5273V7.768ZM93.7864 16C92.2024 16 91.3144 15.064 91.3144 13.312V3.16C91.3144 1.408 92.2024 0.472 93.7864 0.472H99.3064C102.954 0.472 104.922 1.864 104.922 4.384C104.922 6.16 103.914 7.168 102.09 7.6C104.418 8.152 105.45 9.592 105.45 11.512C105.45 14.632 103.482 16 98.7304 16H93.7864ZM96.0424 6.904H97.9624C99.3544 6.904 100.05 6.328 100.05 5.248C100.05 4.24 99.3784 3.712 98.0344 3.712H96.0424V6.904ZM96.0424 12.76H98.2504C99.9064 12.76 100.602 12.232 100.602 10.984C100.602 9.808 99.8824 9.328 98.2024 9.328H96.0424V12.76ZM114.815 16.336C110.039 16.336 106.655 12.976 106.655 8.248C106.655 3.52 110.087 0.136 114.815 0.136C119.591 0.136 122.975 3.496 122.975 8.224C122.975 12.976 119.567 16.336 114.815 16.336ZM114.815 12.04C116.879 12.04 118.223 10.552 118.223 8.248C118.223 5.92 116.855 4.384 114.815 4.384C112.751 4.384 111.407 5.848 111.407 8.224C111.407 10.552 112.775 12.04 114.815 12.04ZM125.71 16.216C124.39 16.216 123.07 15.16 123.238 14.728L128.23 1.672C128.47 0.904 129.118 0.352 131.302 0.352C133.486 0.352 134.038 0.904 134.278 1.672L139.486 14.68C139.654 15.112 138.358 16.192 136.918 16.192C135.886 16.192 134.83 15.64 134.158 13.936L133.726 12.808H128.782L128.326 13.984C127.75 15.64 126.742 16.216 125.71 16.216ZM129.574 9.328H132.862L131.23 4.84L129.574 9.328ZM142.737 16.12C141.417 16.12 140.697 15.088 140.697 13.336V3.16C140.697 1.408 141.585 0.472 143.169 0.472H147.945C152.241 0.472 154.377 2.248 154.377 5.584C154.377 7.648 153.393 9.208 151.497 9.928L150.993 10.072L154.545 14.464C154.689 14.656 153.849 16.12 151.785 16.12C150.297 16.12 149.553 15.472 148.569 14.08L146.193 11.008H145.521V13.888C145.521 15.328 144.801 16.12 143.409 16.12H142.737ZM145.449 7.768H147.417C148.857 7.768 149.577 7.096 149.577 5.944C149.577 4.744 148.881 4.12 147.393 4.12H145.449V7.768ZM156.236 13.36V3.16C156.236 1.408 157.292 0.472 158.732 0.472H162.836C167.924 0.472 171.044 3.424 171.044 8.176C171.044 12.952 167.828 16 162.74 16H158.924C157.412 16 156.236 14.824 156.236 13.36ZM162.62 11.92C164.828 11.92 166.292 10.552 166.292 8.176C166.292 5.848 164.876 4.552 162.668 4.552H161.012V11.92H162.62Z"/>
</mask>
<path d="M2.84888 16C1.26488 16 0.376875 15.112 0.376875 13.36V2.584C0.376875 1.072 1.09688 0.352 2.41688 0.352H3.08888C4.48088 0.352 5.20088 1.072 5.20088 2.584V11.8H9.85688C11.3689 11.8 12.0889 12.496 12.0889 13.816V13.888C12.0889 15.28 11.3689 16 9.85688 16H2.84888ZM15.9504 16C14.3664 16 13.4784 15.112 13.4784 13.36V3.16C13.4784 1.408 14.3664 0.472 15.9504 0.472H24.1584C25.6704 0.472 26.3664 1.072 26.3664 2.344V2.464C26.3664 3.784 25.6704 4.312 24.1584 4.312H18.3024V6.352H22.1904C23.7744 6.352 24.4224 6.856 24.4224 8.032V8.104C24.4224 9.376 23.7504 9.904 22.1904 9.904H18.3024V12.208H24.2544C25.7904 12.208 26.4864 12.688 26.4864 13.936V14.056C26.4864 15.376 25.7904 16 24.2544 16H15.9504ZM29.64 16.216C28.32 16.216 27 15.16 27.168 14.728L32.16 1.672C32.4 0.904 33.048 0.352 35.232 0.352C37.416 0.352 37.968 0.904 38.208 1.672L43.416 14.68C43.584 15.112 42.288 16.192 40.848 16.192C39.816 16.192 38.76 15.64 38.088 13.936L37.656 12.808H32.712L32.256 13.984C31.68 15.64 30.672 16.216 29.64 16.216ZM33.504 9.328H36.792L35.16 4.84L33.504 9.328ZM44.6269 13.36V3.16C44.6269 1.408 45.6829 0.472 47.1229 0.472H51.2269C56.3149 0.472 59.4349 3.424 59.4349 8.176C59.4349 12.952 56.2189 16 51.1309 16H47.3149C45.8029 16 44.6269 14.824 44.6269 13.36ZM51.0109 11.92C53.2189 11.92 54.6829 10.552 54.6829 8.176C54.6829 5.848 53.2669 4.552 51.0589 4.552H49.4029V11.92H51.0109ZM63.6458 16C62.0618 16 61.1738 15.112 61.1738 13.36V3.16C61.1738 1.408 62.0618 0.472 63.6458 0.472H71.8538C73.3658 0.472 74.0618 1.072 74.0618 2.344V2.464C74.0618 3.784 73.3658 4.312 71.8538 4.312H65.9978V6.352H69.8858C71.4698 6.352 72.1178 6.856 72.1178 8.032V8.104C72.1178 9.376 71.4458 9.904 69.8858 9.904H65.9978V12.208H71.9498C73.4858 12.208 74.1818 12.688 74.1818 13.936V14.056C74.1818 15.376 73.4858 16 71.9498 16H63.6458ZM77.8153 16.12C76.4953 16.12 75.7753 15.088 75.7753 13.336V3.16C75.7753 1.408 76.6633 0.472 78.2473 0.472H83.0233C87.3193 0.472 89.4553 2.248 89.4553 5.584C89.4553 7.648 88.4713 9.208 86.5753 9.928L86.0713 10.072L89.6233 14.464C89.7673 14.656 88.9273 16.12 86.8633 16.12C85.3753 16.12 84.6313 15.472 83.6473 14.08L81.2713 11.008H80.5993V13.888C80.5993 15.328 79.8793 16.12 78.4873 16.12H77.8153ZM80.5273 7.768H82.4953C83.9353 7.768 84.6553 7.096 84.6553 5.944C84.6553 4.744 83.9593 4.12 82.4713 4.12H80.5273V7.768ZM93.7864 16C92.2024 16 91.3144 15.064 91.3144 13.312V3.16C91.3144 1.408 92.2024 0.472 93.7864 0.472H99.3064C102.954 0.472 104.922 1.864 104.922 4.384C104.922 6.16 103.914 7.168 102.09 7.6C104.418 8.152 105.45 9.592 105.45 11.512C105.45 14.632 103.482 16 98.7304 16H93.7864ZM96.0424 6.904H97.9624C99.3544 6.904 100.05 6.328 100.05 5.248C100.05 4.24 99.3784 3.712 98.0344 3.712H96.0424V6.904ZM96.0424 12.76H98.2504C99.9064 12.76 100.602 12.232 100.602 10.984C100.602 9.808 99.8824 9.328 98.2024 9.328H96.0424V12.76ZM114.815 16.336C110.039 16.336 106.655 12.976 106.655 8.248C106.655 3.52 110.087 0.136 114.815 0.136C119.591 0.136 122.975 3.496 122.975 8.224C122.975 12.976 119.567 16.336 114.815 16.336ZM114.815 12.04C116.879 12.04 118.223 10.552 118.223 8.248C118.223 5.92 116.855 4.384 114.815 4.384C112.751 4.384 111.407 5.848 111.407 8.224C111.407 10.552 112.775 12.04 114.815 12.04ZM125.71 16.216C124.39 16.216 123.07 15.16 123.238 14.728L128.23 1.672C128.47 0.904 129.118 0.352 131.302 0.352C133.486 0.352 134.038 0.904 134.278 1.672L139.486 14.68C139.654 15.112 138.358 16.192 136.918 16.192C135.886 16.192 134.83 15.64 134.158 13.936L133.726 12.808H128.782L128.326 13.984C127.75 15.64 126.742 16.216 125.71 16.216ZM129.574 9.328H132.862L131.23 4.84L129.574 9.328ZM142.737 16.12C141.417 16.12 140.697 15.088 140.697 13.336V3.16C140.697 1.408 141.585 0.472 143.169 0.472H147.945C152.241 0.472 154.377 2.248 154.377 5.584C154.377 7.648 153.393 9.208 151.497 9.928L150.993 10.072L154.545 14.464C154.689 14.656 153.849 16.12 151.785 16.12C150.297 16.12 149.553 15.472 148.569 14.08L146.193 11.008H145.521V13.888C145.521 15.328 144.801 16.12 143.409 16.12H142.737ZM145.449 7.768H147.417C148.857 7.768 149.577 7.096 149.577 5.944C149.577 4.744 148.881 4.12 147.393 4.12H145.449V7.768ZM156.236 13.36V3.16C156.236 1.408 157.292 0.472 158.732 0.472H162.836C167.924 0.472 171.044 3.424 171.044 8.176C171.044 12.952 167.828 16 162.74 16H158.924C157.412 16 156.236 14.824 156.236 13.36ZM162.62 11.92C164.828 11.92 166.292 10.552 166.292 8.176C166.292 5.848 164.876 4.552 162.668 4.552H161.012V11.92H162.62Z" fill="#DAE6FF"/>
<path d="M5.20088 11.8H3.20088V13.8H5.20088V11.8ZM2.84888 14C2.4247 14 2.40155 13.8888 2.46715 13.9577C2.51768 14.0107 2.37687 13.9205 2.37687 13.36H-1.62312C-1.62312 14.5515 -1.31993 15.7813 -0.429401 16.7163C0.476204 17.6672 1.68905 18 2.84888 18V14ZM2.37687 13.36V2.584H-1.62312V13.36H2.37687ZM2.37687 2.584C2.37687 2.35887 2.40434 2.24039 2.41782 2.19756C2.42889 2.16236 2.42184 2.20376 2.3628 2.2669C2.33531 2.29631 2.30488 2.32125 2.27519 2.34039C2.24605 2.35918 2.22511 2.36759 2.21869 2.3699C2.20889 2.37343 2.26375 2.352 2.41688 2.352V-1.648C1.40256 -1.648 0.281659 -1.3641 -0.55905 -0.464906C-1.377 0.409949 -1.62312 1.54286 -1.62312 2.584H2.37687ZM2.41688 2.352H3.08888V-1.648H2.41688V2.352ZM3.08888 2.352C3.27035 2.352 3.34629 2.37615 3.3519 2.3781C3.35277 2.3784 3.3364 2.37275 3.30975 2.35611C3.28243 2.33905 3.25219 2.31534 3.22363 2.28557C3.16155 2.22087 3.15157 2.17491 3.16101 2.20452C3.17327 2.24302 3.20088 2.35837 3.20088 2.584H7.20088C7.20088 1.5436 6.95477 0.396868 6.11012 -0.483576C5.25039 -1.37973 4.11087 -1.648 3.08888 -1.648V2.352ZM3.20088 2.584V11.8H7.20088V2.584H3.20088ZM5.20088 13.8H9.85688V9.8H5.20088V13.8ZM9.85688 13.8C10.0877 13.8 10.2108 13.8273 10.2573 13.8415C10.2962 13.8535 10.2535 13.8471 10.1868 13.7858C10.1555 13.757 10.1283 13.7246 10.1071 13.6921C10.0862 13.6601 10.0763 13.6362 10.0729 13.6269C10.0674 13.6116 10.0889 13.6626 10.0889 13.816H14.0889C14.0889 12.8009 13.8041 11.6772 12.893 10.8402C12.0138 10.0325 10.8821 9.8 9.85688 9.8V13.8ZM10.0889 13.816V13.888H14.0889V13.816H10.0889ZM10.0889 13.888C10.0889 14.0695 10.0647 14.1454 10.0628 14.151C10.0625 14.1519 10.0681 14.1355 10.0848 14.1089C10.1018 14.0816 10.1255 14.0513 10.1553 14.0228C10.22 13.9607 10.266 13.9507 10.2364 13.9601C10.1979 13.9724 10.0825 14 9.85688 14V18C10.8973 18 12.044 17.7539 12.9245 16.9092C13.8206 16.0495 14.0889 14.91 14.0889 13.888H10.0889ZM9.85688 14H2.84888V18H9.85688V14ZM18.3024 4.312V2.312H16.3024V4.312H18.3024ZM18.3024 6.352H16.3024V8.352H18.3024V6.352ZM18.3024 9.904V7.904H16.3024V9.904H18.3024ZM18.3024 12.208H16.3024V14.208H18.3024V12.208ZM15.9504 14C15.5263 14 15.5031 13.8888 15.5687 13.9577C15.6192 14.0107 15.4784 13.9205 15.4784 13.36H11.4784C11.4784 14.5515 11.7816 15.7813 12.6722 16.7163C13.5778 17.6672 14.7906 18 15.9504 18V14ZM15.4784 13.36V3.16H11.4784V13.36H15.4784ZM15.4784 3.16C15.4784 2.59951 15.6197 2.48357 15.5871 2.51878C15.5737 2.53324 15.567 2.53003 15.6002 2.51753C15.6413 2.50207 15.7485 2.472 15.9504 2.472V-1.528C14.7612 -1.528 13.5485 -1.16581 12.6538 -0.200785C11.7812 0.740427 11.4784 1.96849 11.4784 3.16H15.4784ZM15.9504 2.472H24.1584V-1.528H15.9504V2.472ZM24.1584 2.472C24.4121 2.472 24.5526 2.49804 24.6129 2.51455C24.6666 2.52926 24.6167 2.52513 24.533 2.45395C24.4923 2.41927 24.4542 2.37742 24.4223 2.33137C24.3908 2.28588 24.3726 2.24678 24.3633 2.22202C24.3462 2.1768 24.3664 2.2017 24.3664 2.344H28.3664C28.3664 1.34753 28.0825 0.222386 27.1258 -0.591947C26.2383 -1.34749 25.1197 -1.528 24.1584 -1.528V2.472ZM24.3664 2.344V2.464H28.3664V2.344H24.3664ZM24.3664 2.464C24.3664 2.62719 24.3438 2.65406 24.3633 2.60248C24.3742 2.57358 24.3955 2.52791 24.4327 2.47515C24.4705 2.42169 24.5155 2.37395 24.563 2.33508C24.6588 2.25667 24.7156 2.25361 24.6519 2.26967C24.5821 2.2873 24.4296 2.312 24.1584 2.312V6.312C25.0694 6.312 26.1943 6.16857 27.0959 5.43091C28.0924 4.61557 28.3664 3.46419 28.3664 2.464H24.3664ZM24.1584 2.312H18.3024V6.312H24.1584V2.312ZM16.3024 4.312V6.352H20.3024V4.312H16.3024ZM18.3024 8.352H22.1904V4.352H18.3024V8.352ZM22.1904 8.352C22.49 8.352 22.6665 8.37679 22.7564 8.3976C22.8431 8.41766 22.7926 8.42089 22.692 8.3446C22.6406 8.30562 22.5871 8.25399 22.5392 8.19064C22.4915 8.12767 22.4601 8.06746 22.4408 8.01954C22.4047 7.92977 22.4224 7.91249 22.4224 8.032H26.4224C26.4224 7.07073 26.1392 5.93869 25.1089 5.1574C24.2156 4.47993 23.1073 4.352 22.1904 4.352V8.352ZM22.4224 8.032V8.104H26.4224V8.032H22.4224ZM22.4224 8.104C22.4224 8.25525 22.4012 8.26966 22.4251 8.20721C22.4383 8.17274 22.4624 8.12245 22.5029 8.06617C22.5437 8.00924 22.5914 7.95982 22.6405 7.92052C22.7385 7.84196 22.7933 7.8414 22.7201 7.85938C22.6415 7.8787 22.4774 7.904 22.1904 7.904V11.904C23.1139 11.904 24.2405 11.7645 25.1424 11.0415C26.152 10.2321 26.4224 9.08349 26.4224 8.104H22.4224ZM22.1904 7.904H18.3024V11.904H22.1904V7.904ZM16.3024 9.904V12.208H20.3024V9.904H16.3024ZM18.3024 14.208H24.2544V10.208H18.3024V14.208ZM24.2544 14.208C24.5441 14.208 24.7156 14.2316 24.8041 14.2519C24.8893 14.2714 24.8403 14.2748 24.7423 14.2009C24.6921 14.163 24.6401 14.1131 24.5937 14.052C24.5475 13.9914 24.5177 13.9341 24.4998 13.8899C24.4664 13.8074 24.4864 13.8009 24.4864 13.936H28.4864C28.4864 12.9338 28.1881 11.7895 27.1506 11.0071C26.2508 10.3286 25.1429 10.208 24.2544 10.208V14.208ZM24.4864 13.936V14.056H28.4864V13.936H24.4864ZM24.4864 14.056C24.4864 14.2174 24.4643 14.26 24.4753 14.2299C24.4817 14.2124 24.4964 14.1786 24.5244 14.1368C24.553 14.0943 24.5883 14.0539 24.6277 14.0194C24.7094 13.9477 24.7602 13.9424 24.7095 13.9566C24.6513 13.973 24.5111 14 24.2544 14V18C25.2358 18 26.3718 17.8102 27.2652 17.0266C28.2153 16.1934 28.4864 15.0547 28.4864 14.056H24.4864ZM24.2544 14H15.9504V18H24.2544V14ZM27.168 14.728L29.032 15.4529L29.0361 15.4423L27.168 14.728ZM32.16 1.672L34.0281 2.38628L34.0504 2.32805L34.069 2.26855L32.16 1.672ZM38.208 1.672L36.299 2.26855L36.3223 2.34298L36.3513 2.41537L38.208 1.672ZM43.416 14.68L45.28 13.9551L45.2764 13.9458L45.2727 13.9366L43.416 14.68ZM38.088 13.936L36.2203 14.6513L36.2238 14.6605L36.2275 14.6697L38.088 13.936ZM37.656 12.808L39.5237 12.0927L39.0317 10.808H37.656V12.808ZM32.712 12.808V10.808H31.3424L30.8473 12.0849L32.712 12.808ZM32.256 13.984L30.3913 13.2609L30.3786 13.2937L30.367 13.327L32.256 13.984ZM33.504 9.328L31.6277 8.63566L30.6342 11.328H33.504V9.328ZM36.792 9.328V11.328H39.6474L38.6716 8.64451L36.792 9.328ZM35.16 4.84L37.0396 4.15651L35.1737 -0.974655L33.2837 4.14766L35.16 4.84ZM29.64 14.216C29.4725 14.216 29.1943 14.1302 28.9602 13.9731C28.8468 13.8971 28.8419 13.8688 28.8932 13.9368C28.9179 13.9694 29.008 14.0928 29.0757 14.3034C29.1435 14.5139 29.2286 14.9474 29.032 15.4529L25.304 14.0031C25.0654 14.6166 25.155 15.1776 25.268 15.5286C25.3809 15.8796 25.5568 16.1563 25.7023 16.3487C25.9951 16.7362 26.3712 17.0529 26.7318 17.2949C27.4457 17.7738 28.4875 18.216 29.64 18.216V14.216ZM29.0361 15.4423L34.0281 2.38628L30.2919 0.957725L25.2999 14.0137L29.0361 15.4423ZM34.069 2.26855C34.072 2.25896 34.0541 2.31888 33.9919 2.39604C33.9262 2.47769 33.8659 2.51062 33.866 2.51054C33.8784 2.50433 33.9715 2.46108 34.2025 2.42146C34.4329 2.38193 34.7648 2.352 35.232 2.352V-1.648C34.024 -1.648 32.946 -1.50437 32.068 -1.06254C31.0542 -0.552406 30.5096 0.247999 30.251 1.07545L34.069 2.26855ZM35.232 2.352C35.7001 2.352 36.0223 2.38207 36.2383 2.42004C36.4544 2.45802 36.5232 2.49689 36.5116 2.4907C36.4844 2.47626 36.4133 2.4278 36.348 2.34055C36.291 2.26444 36.2832 2.21782 36.299 2.26855L40.117 1.07545C39.8856 0.335123 39.4127 -0.498166 38.3864 -1.0427C37.511 -1.50721 36.432 -1.648 35.232 -1.648V2.352ZM36.3513 2.41537L41.5593 15.4234L45.2727 13.9366L40.0647 0.928628L36.3513 2.41537ZM41.552 15.4049C41.3581 14.9064 41.4392 14.4794 41.5042 14.2719C41.5695 14.063 41.6574 13.9398 41.6828 13.9056C41.7354 13.8349 41.7328 13.862 41.6208 13.9371C41.3976 14.0868 41.0948 14.192 40.848 14.192V18.192C42.0412 18.192 43.1064 17.7572 43.8492 17.2589C44.2202 17.01 44.6001 16.6861 44.8935 16.2914C45.0392 16.0952 45.212 15.8168 45.3217 15.4661C45.431 15.1168 45.5159 14.5616 45.28 13.9551L41.552 15.4049ZM40.848 14.192C40.7049 14.192 40.611 14.1603 40.5184 14.0921C40.4127 14.0144 40.1813 13.7925 39.9485 13.2023L36.2275 14.6697C36.6667 15.7835 37.2993 16.6896 38.1476 17.3139C39.009 17.9477 39.9591 18.192 40.848 18.192V14.192ZM39.9557 13.2207L39.5237 12.0927L35.7883 13.5233L36.2203 14.6513L39.9557 13.2207ZM37.656 10.808H32.712V14.808H37.656V10.808ZM30.8473 12.0849L30.3913 13.2609L34.1207 14.7071L34.5767 13.5311L30.8473 12.0849ZM30.367 13.327C30.1731 13.8844 29.9699 14.0812 29.894 14.14C29.8322 14.1879 29.7668 14.216 29.64 14.216V18.216C30.5452 18.216 31.4998 17.9561 32.344 17.302C33.1741 16.6588 33.7629 15.7396 34.145 14.641L30.367 13.327ZM33.504 11.328H36.792V7.328H33.504V11.328ZM38.6716 8.64451L37.0396 4.15651L33.2804 5.52349L34.9124 10.0115L38.6716 8.64451ZM33.2837 4.14766L31.6277 8.63566L35.3803 10.0203L37.0363 5.53234L33.2837 4.14766ZM49.4029 4.552V2.552H47.4029V4.552H49.4029ZM49.4029 11.92H47.4029V13.92H49.4029V11.92ZM46.6269 13.36V3.16H42.6269V13.36H46.6269ZM46.6269 3.16C46.6269 2.69009 46.7603 2.56189 46.7632 2.55895C46.7669 2.55514 46.8412 2.472 47.1229 2.472V-1.528C45.9645 -1.528 44.7908 -1.14314 43.9065 -0.240954C43.0214 0.662111 42.6269 1.87791 42.6269 3.16H46.6269ZM47.1229 2.472H51.2269V-1.528H47.1229V2.472ZM51.2269 2.472C53.3895 2.472 54.9072 3.09445 55.8685 3.99876C56.8157 4.8897 57.4349 6.25227 57.4349 8.176H61.4349C61.4349 5.34773 60.4941 2.8583 58.6092 1.08524C56.7386 -0.674456 54.1523 -1.528 51.2269 -1.528V2.472ZM57.4349 8.176C57.4349 10.0987 56.7998 11.4981 55.8182 12.4245C54.8243 13.3625 53.2777 14 51.1309 14V18C54.072 18 56.6775 17.1135 58.5636 15.3335C60.462 13.5419 61.4349 11.0293 61.4349 8.176H57.4349ZM51.1309 14H47.3149V18H51.1309V14ZM47.3149 14C46.8838 14 46.6269 13.6959 46.6269 13.36H42.6269C42.6269 15.9521 44.722 18 47.3149 18V14ZM51.0109 13.92C52.5299 13.92 53.9954 13.4418 55.0858 12.3565C56.1795 11.2679 56.6829 9.78066 56.6829 8.176H52.6829C52.6829 8.94734 52.4543 9.33207 52.264 9.52148C52.0704 9.71418 51.6998 9.92 51.0109 9.92V13.92ZM56.6829 8.176C56.6829 6.60096 56.1942 5.13196 55.096 4.05985C54.0057 2.99555 52.5499 2.552 51.0589 2.552V6.552C51.7759 6.552 52.1321 6.75644 52.3018 6.92215C52.4635 7.08004 52.6829 7.42304 52.6829 8.176H56.6829ZM51.0589 2.552H49.4029V6.552H51.0589V2.552ZM47.4029 4.552V11.92H51.4029V4.552H47.4029ZM49.4029 13.92H51.0109V9.92H49.4029V13.92ZM65.9977 4.312V2.312H63.9977V4.312H65.9977ZM65.9977 6.352H63.9977V8.352H65.9977V6.352ZM65.9977 9.904V7.904H63.9977V9.904H65.9977ZM65.9977 12.208H63.9977V14.208H65.9977V12.208ZM63.6458 14C63.2216 14 63.1984 13.8888 63.264 13.9577C63.3146 14.0107 63.1738 13.9205 63.1738 13.36H59.1738C59.1738 14.5515 59.4769 15.7813 60.3675 16.7163C61.2731 17.6672 62.4859 18 63.6458 18V14ZM63.1738 13.36V3.16H59.1738V13.36H63.1738ZM63.1738 3.16C63.1738 2.59951 63.315 2.48357 63.2824 2.51878C63.269 2.53324 63.2623 2.53003 63.2955 2.51753C63.3366 2.50207 63.4438 2.472 63.6458 2.472V-1.528C62.4565 -1.528 61.2439 -1.16581 60.3491 -0.200785C59.4765 0.740427 59.1738 1.96849 59.1738 3.16H63.1738ZM63.6458 2.472H71.8538V-1.528H63.6458V2.472ZM71.8538 2.472C72.1074 2.472 72.2479 2.49804 72.3082 2.51455C72.3619 2.52926 72.312 2.52513 72.2284 2.45395C72.1876 2.41927 72.1495 2.37742 72.1176 2.33137C72.0861 2.28588 72.0679 2.24678 72.0586 2.22202C72.0415 2.1768 72.0618 2.2017 72.0618 2.344H76.0618C76.0618 1.34753 75.7778 0.222386 74.8211 -0.591947C73.9336 -1.34749 72.815 -1.528 71.8538 -1.528V2.472ZM72.0618 2.344V2.464H76.0618V2.344H72.0618ZM72.0618 2.464C72.0618 2.62719 72.0391 2.65406 72.0586 2.60248C72.0695 2.57358 72.0908 2.52791 72.1281 2.47515C72.1658 2.42169 72.2108 2.37395 72.2583 2.33508C72.3541 2.25667 72.4109 2.25361 72.3472 2.26967C72.2774 2.2873 72.125 2.312 71.8538 2.312V6.312C72.7647 6.312 73.8896 6.16857 74.7912 5.43091C75.7878 4.61557 76.0618 3.46419 76.0618 2.464H72.0618ZM71.8538 2.312H65.9977V6.312H71.8538V2.312ZM63.9977 4.312V6.352H67.9977V4.312H63.9977ZM65.9977 8.352H69.8857V4.352H65.9977V8.352ZM69.8857 8.352C70.1854 8.352 70.3618 8.37679 70.4517 8.3976C70.5384 8.41766 70.4879 8.42089 70.3873 8.3446C70.3359 8.30562 70.2824 8.25399 70.2345 8.19064C70.1868 8.12767 70.1554 8.06746 70.1362 8.01954C70.1001 7.92977 70.1178 7.91249 70.1178 8.032H74.1178C74.1178 7.07073 73.8345 5.93869 72.8042 5.1574C71.9109 4.47993 70.8026 4.352 69.8857 4.352V8.352ZM70.1178 8.032V8.104H74.1178V8.032H70.1178ZM70.1178 8.104C70.1178 8.25525 70.0965 8.26966 70.1204 8.20721C70.1336 8.17274 70.1578 8.12245 70.1982 8.06617C70.239 8.00924 70.2868 7.95982 70.3358 7.92052C70.4338 7.84196 70.4886 7.8414 70.4155 7.85938C70.3368 7.8787 70.1727 7.904 69.8857 7.904V11.904C70.8092 11.904 71.9358 11.7645 72.8377 11.0415C73.8473 10.2321 74.1178 9.08349 74.1178 8.104H70.1178ZM69.8857 7.904H65.9977V11.904H69.8857V7.904ZM63.9977 9.904V12.208H67.9977V9.904H63.9977ZM65.9977 14.208H71.9498V10.208H65.9977V14.208ZM71.9498 14.208C72.2394 14.208 72.4109 14.2316 72.4994 14.2519C72.5846 14.2714 72.5356 14.2748 72.4376 14.2009C72.3874 14.163 72.3355 14.1131 72.289 14.052C72.2429 13.9914 72.213 13.9341 72.1951 13.8899C72.1617 13.8074 72.1817 13.8009 72.1817 13.936H76.1817C76.1817 12.9338 75.8834 11.7895 74.8459 11.0071C73.9461 10.3286 72.8382 10.208 71.9498 10.208V14.208ZM72.1817 13.936V14.056H76.1817V13.936H72.1817ZM72.1817 14.056C72.1817 14.2174 72.1596 14.26 72.1706 14.2299C72.177 14.2124 72.1917 14.1786 72.2198 14.1368C72.2483 14.0943 72.2837 14.0539 72.323 14.0194C72.4048 13.9477 72.4555 13.9424 72.4049 13.9566C72.3466 13.973 72.2064 14 71.9498 14V18C72.9312 18 74.0671 17.8102 74.9605 17.0266C75.9106 16.1934 76.1817 15.0547 76.1817 14.056H72.1817ZM71.9498 14H63.6458V18H71.9498V14ZM86.5753 9.928L87.1248 11.851L87.2062 11.8278L87.2853 11.7977L86.5753 9.928ZM86.0713 10.072L85.5219 8.14895L82.6154 8.97936L84.5162 11.3297L86.0713 10.072ZM89.6233 14.464L91.2233 13.264L91.2014 13.2348L91.1784 13.2063L89.6233 14.464ZM83.6473 14.08L85.2805 12.9255L85.2556 12.8904L85.2293 12.8564L83.6473 14.08ZM81.2713 11.008L82.8533 9.7844L82.2528 9.008H81.2713V11.008ZM80.5993 11.008V9.008H78.5993V11.008H80.5993ZM80.5273 7.768H78.5273V9.768H80.5273V7.768ZM80.5273 4.12V2.12H78.5273V4.12H80.5273ZM77.8153 14.12C77.7495 14.12 77.7646 14.1084 77.8203 14.1357C77.8796 14.1647 77.9139 14.2033 77.9209 14.2129C77.9221 14.2146 77.8839 14.1618 77.8456 14.0126C77.8071 13.863 77.7753 13.6415 77.7753 13.336H73.7753C73.7753 14.4436 73.9965 15.6124 74.6798 16.5571C75.4292 17.5932 76.5635 18.12 77.8153 18.12V14.12ZM77.7753 13.336V3.16H73.7753V13.336H77.7753ZM77.7753 3.16C77.7753 2.59951 77.9166 2.48357 77.8839 2.51878C77.8705 2.53324 77.8638 2.53003 77.8971 2.51753C77.9382 2.50207 78.0454 2.472 78.2473 2.472V-1.528C77.0581 -1.528 75.8454 -1.16581 74.9507 -0.200785C74.078 0.740427 73.7753 1.96849 73.7753 3.16H77.7753ZM78.2473 2.472H83.0233V-1.528H78.2473V2.472ZM83.0233 2.472C84.9437 2.472 86.0258 2.87637 86.5972 3.33575C87.0896 3.73159 87.4553 4.37078 87.4553 5.584H91.4553C91.4553 3.46122 90.753 1.54441 89.1034 0.218248C87.5329 -1.04437 85.3989 -1.528 83.0233 -1.528V2.472ZM87.4553 5.584C87.4553 6.2964 87.2877 6.80594 87.0529 7.16477C86.8236 7.51502 86.4586 7.83297 85.8653 8.05828L87.2853 11.7977C88.588 11.303 89.663 10.481 90.3998 9.35523C91.1309 8.23806 91.4553 6.9356 91.4553 5.584H87.4553ZM86.0259 8.00495L85.5219 8.14895L86.6208 11.995L87.1248 11.851L86.0259 8.00495ZM84.5162 11.3297L88.0682 15.7217L91.1784 13.2063L87.6264 8.81434L84.5162 11.3297ZM88.0233 15.664C87.7144 15.2521 87.6544 14.8383 87.6422 14.6319C87.6291 14.4097 87.6597 14.2388 87.6801 14.1488C87.7212 13.9672 87.7796 13.8599 87.7925 13.8365C87.8268 13.7745 87.8272 13.7956 87.7615 13.8526C87.6572 13.9429 87.391 14.12 86.8633 14.12V18.12C88.3996 18.12 89.5854 17.5651 90.3812 16.8754C90.7654 16.5424 91.0778 16.1615 91.2936 15.771C91.3973 15.5833 91.5138 15.3302 91.5814 15.0318C91.615 14.8834 91.6509 14.6614 91.6353 14.3965C91.6206 14.1477 91.5502 13.6999 91.2233 13.264L88.0233 15.664ZM86.8633 14.12C86.4475 14.12 86.298 14.0408 86.1896 13.9672C86.0068 13.8432 85.7452 13.583 85.2805 12.9255L82.0142 15.2345C82.5334 15.969 83.1358 16.7288 83.9431 17.2768C84.8247 17.8752 85.7911 18.12 86.8633 18.12V14.12ZM85.2293 12.8564L82.8533 9.7844L79.6893 12.2316L82.0653 15.3036L85.2293 12.8564ZM81.2713 9.008H80.5993V13.008H81.2713V9.008ZM78.5993 11.008V13.888H82.5993V11.008H78.5993ZM78.5993 13.888C78.5993 14.0861 78.574 14.1919 78.5616 14.2304C78.5513 14.2623 78.5566 14.2291 78.6055 14.1769C78.6281 14.1527 78.6528 14.1326 78.676 14.1174C78.6989 14.1025 78.7137 14.0969 78.7146 14.0965C78.715 14.0964 78.699 14.1023 78.6617 14.1083C78.6241 14.1143 78.567 14.12 78.4873 14.12V18.12C79.5604 18.12 80.6874 17.8056 81.5251 16.9111C82.342 16.0389 82.5993 14.9164 82.5993 13.888H78.5993ZM78.4873 14.12H77.8153V18.12H78.4873V14.12ZM80.5273 9.768H82.4953V5.768H80.5273V9.768ZM82.4953 9.768C83.4935 9.768 84.573 9.53795 85.4252 8.79938C86.3239 8.02048 86.6553 6.95248 86.6553 5.944H82.6553C82.6553 6.02599 82.6424 6.02461 82.6634 5.97222C82.674 5.94568 82.6913 5.91129 82.7176 5.87401C82.7441 5.83651 82.7744 5.80352 82.8055 5.77662C82.8698 5.72086 82.9064 5.7171 82.8656 5.72935C82.82 5.74303 82.7047 5.768 82.4953 5.768V9.768ZM86.6553 5.944C86.6553 4.95078 86.3526 3.85375 85.4166 3.05812C84.5444 2.31672 83.4453 2.12 82.4713 2.12V6.12C82.7103 6.12 82.8429 6.14581 82.8985 6.16147C82.9485 6.17552 82.9035 6.17173 82.826 6.10588C82.7883 6.07381 82.752 6.03453 82.7208 5.99024C82.6899 5.94632 82.6707 5.90686 82.6597 5.87853C82.6386 5.82456 82.6553 5.83249 82.6553 5.944H86.6553ZM82.4713 2.12H80.5273V6.12H82.4713V2.12ZM78.5273 4.12V7.768H82.5273V4.12H78.5273ZM102.09 7.6L101.629 5.65384L101.629 9.54604L102.09 7.6ZM96.0424 6.904H94.0424V8.904H96.0424V6.904ZM96.0424 3.712V1.712H94.0424V3.712H96.0424ZM96.0424 12.76H94.0424V14.76H96.0424V12.76ZM96.0424 9.328V7.328H94.0424V9.328H96.0424ZM93.7864 14C93.5844 14 93.4772 13.9699 93.4361 13.9545C93.4029 13.942 93.4096 13.9388 93.423 13.9532C93.4556 13.9884 93.3144 13.8725 93.3144 13.312H89.3144C89.3144 14.5035 89.6171 15.7316 90.4898 16.6728C91.3845 17.6378 92.5971 18 93.7864 18V14ZM93.3144 13.312V3.16H89.3144V13.312H93.3144ZM93.3144 3.16C93.3144 2.59951 93.4556 2.48357 93.423 2.51878C93.4096 2.53324 93.4029 2.53003 93.4361 2.51753C93.4772 2.50207 93.5844 2.472 93.7864 2.472V-1.528C92.5971 -1.528 91.3845 -1.16581 90.4898 -0.200785C89.6171 0.740427 89.3144 1.96849 89.3144 3.16H93.3144ZM93.7864 2.472H99.3064V-1.528H93.7864V2.472ZM99.3064 2.472C100.925 2.472 101.86 2.78888 102.336 3.12195C102.705 3.38002 102.922 3.72141 102.922 4.384H106.922C106.922 2.52659 106.156 0.911977 104.629 -0.155952C103.209 -1.14888 101.336 -1.528 99.3064 -1.528V2.472ZM102.922 4.384C102.922 4.86927 102.797 5.05539 102.71 5.15065C102.591 5.28158 102.303 5.49441 101.629 5.65384L102.551 9.54616C103.702 9.27359 104.829 8.76642 105.67 7.84134C106.544 6.8806 106.922 5.67473 106.922 4.384H102.922ZM101.629 9.54604C102.479 9.74753 102.891 10.0602 103.097 10.3117C103.298 10.5557 103.45 10.9194 103.45 11.512H107.45C107.45 10.1846 107.087 8.86828 106.189 7.77426C105.298 6.68776 104.03 6.00447 102.552 5.65396L101.629 9.54604ZM103.45 11.512C103.45 12.6007 103.146 13.0039 102.755 13.2676C102.179 13.6555 101.002 14 98.7304 14V18C101.21 18 103.394 17.6605 104.99 16.5844C106.771 15.3841 107.45 13.5433 107.45 11.512H103.45ZM98.7304 14H93.7864V18H98.7304V14ZM96.0424 8.904H97.9624V4.904H96.0424V8.904ZM97.9624 8.904C98.8866 8.904 99.9328 8.72013 100.779 8.04142C101.705 7.29904 102.05 6.24685 102.05 5.248H98.0504C98.0504 5.30556 98.0411 5.27039 98.0776 5.18386C98.096 5.14041 98.123 5.09133 98.1602 5.04201C98.1974 4.99264 98.2382 4.95198 98.2773 4.92058C98.3562 4.85739 98.3998 4.85399 98.3518 4.86702C98.3002 4.88102 98.1784 4.904 97.9624 4.904V8.904ZM102.05 5.248C102.05 4.25949 101.693 3.22854 100.764 2.5157C99.9318 1.87637 98.9158 1.712 98.0344 1.712V5.712C98.2455 5.712 98.3647 5.73337 98.4151 5.7464C98.4628 5.75877 98.4147 5.75461 98.3283 5.6883C98.2321 5.6144 98.1459 5.50694 98.0932 5.38702C98.0452 5.27772 98.0504 5.21642 98.0504 5.248H102.05ZM98.0344 1.712H96.0424V5.712H98.0344V1.712ZM94.0424 3.712V6.904H98.0424V3.712H94.0424ZM96.0424 14.76H98.2504V10.76H96.0424V14.76ZM98.2504 14.76C99.2048 14.76 100.341 14.6255 101.253 13.9355C102.303 13.1421 102.602 11.9882 102.602 10.984H98.6024C98.6024 11.1189 98.5824 11.1153 98.614 11.0372C98.631 10.9953 98.6593 10.941 98.703 10.8835C98.747 10.8257 98.7956 10.7791 98.8414 10.7445C98.9305 10.6771 98.9672 10.686 98.8655 10.7095C98.7607 10.7338 98.5676 10.76 98.2504 10.76V14.76ZM102.602 10.984C102.602 9.94736 102.251 8.80984 101.162 8.0647C100.255 7.44386 99.1421 7.328 98.2024 7.328V11.328C98.5363 11.328 98.7505 11.3527 98.8776 11.3792C99.0049 11.4058 98.9851 11.4218 98.9025 11.3653C98.8585 11.3352 98.8053 11.2901 98.7533 11.2281C98.7012 11.1659 98.6628 11.1015 98.6368 11.0432C98.5866 10.9304 98.6024 10.8866 98.6024 10.984H102.602ZM98.2024 7.328H96.0424V11.328H98.2024V7.328ZM94.0424 9.328V12.76H98.0424V9.328H94.0424ZM114.815 14.336C112.908 14.336 111.389 13.6727 110.353 12.6449C109.317 11.6181 108.655 10.1208 108.655 8.248H104.655C104.655 11.1032 105.685 13.6499 107.536 15.4851C109.386 17.3193 111.947 18.336 114.815 18.336V14.336ZM108.655 8.248C108.655 4.64022 111.176 2.136 114.815 2.136V-1.864C108.998 -1.864 104.655 2.39978 104.655 8.248H108.655ZM114.815 2.136C116.723 2.136 118.242 2.79931 119.278 3.82711C120.313 4.85388 120.975 6.35117 120.975 8.224H124.975C124.975 5.36883 123.945 2.82211 122.095 0.986894C120.245 -0.847309 117.684 -1.864 114.815 -1.864V2.136ZM120.975 8.224C120.975 11.8557 118.478 14.336 114.815 14.336V18.336C120.656 18.336 124.975 14.0963 124.975 8.224H120.975ZM114.815 14.04C116.355 14.04 117.768 13.4697 118.78 12.3459C119.772 11.2432 120.223 9.7821 120.223 8.248H116.223C116.223 9.0179 116.002 9.45282 115.807 9.67007C115.63 9.86625 115.34 10.04 114.815 10.04V14.04ZM120.223 8.248C120.223 6.69907 119.765 5.22916 118.782 4.118C117.78 2.9848 116.368 2.384 114.815 2.384V6.384C115.302 6.384 115.594 6.5512 115.786 6.768C115.997 7.00684 116.223 7.46893 116.223 8.248H120.223ZM114.815 2.384C113.285 2.384 111.865 2.94239 110.848 4.07843C109.85 5.19147 109.407 6.66798 109.407 8.224H113.407C113.407 7.40402 113.636 6.96053 113.827 6.74757C113.997 6.55761 114.282 6.384 114.815 6.384V2.384ZM109.407 8.224C109.407 9.77421 109.866 11.2399 110.86 12.3433C111.871 13.466 113.282 14.04 114.815 14.04V10.04C114.308 10.04 114.016 9.86998 113.833 9.6667C113.632 9.44407 113.407 9.00179 113.407 8.224H109.407ZM123.238 14.728L125.102 15.4529L125.106 15.4423L123.238 14.728ZM128.23 1.672L130.098 2.38628L130.121 2.32805L130.139 2.26855L128.23 1.672ZM134.278 1.672L132.369 2.26855L132.393 2.34298L132.422 2.41537L134.278 1.672ZM139.486 14.68L141.35 13.9551L141.347 13.9458L141.343 13.9366L139.486 14.68ZM134.158 13.936L132.291 14.6513L132.294 14.6605L132.298 14.6697L134.158 13.936ZM133.726 12.808L135.594 12.0927L135.102 10.808H133.726V12.808ZM128.782 12.808V10.808H127.413L126.918 12.0849L128.782 12.808ZM128.326 13.984L126.462 13.2609L126.449 13.2937L126.437 13.327L128.326 13.984ZM129.574 9.328L127.698 8.63566L126.705 11.328H129.574V9.328ZM132.862 9.328V11.328H135.718L134.742 8.64451L132.862 9.328ZM131.23 4.84L133.11 4.15651L131.244 -0.974655L129.354 4.14766L131.23 4.84ZM125.71 14.216C125.543 14.216 125.265 14.1302 125.031 13.9731C124.917 13.8971 124.912 13.8688 124.964 13.9368C124.988 13.9694 125.078 14.0928 125.146 14.3034C125.214 14.5139 125.299 14.9474 125.102 15.4529L121.374 14.0031C121.136 14.6166 121.225 15.1776 121.338 15.5286C121.451 15.8796 121.627 16.1563 121.773 16.3487C122.065 16.7362 122.441 17.0529 122.802 17.2949C123.516 17.7738 124.558 18.216 125.71 18.216V14.216ZM125.106 15.4423L130.098 2.38628L126.362 0.957725L121.37 14.0137L125.106 15.4423ZM130.139 2.26855C130.142 2.25896 130.124 2.31888 130.062 2.39604C129.997 2.47769 129.936 2.51062 129.936 2.51054C129.949 2.50433 130.042 2.46108 130.273 2.42146C130.503 2.38193 130.835 2.352 131.302 2.352V-1.648C130.094 -1.648 129.016 -1.50437 128.138 -1.06254C127.125 -0.552406 126.58 0.247999 126.321 1.07545L130.139 2.26855ZM131.302 2.352C131.77 2.352 132.093 2.38207 132.309 2.42004C132.525 2.45802 132.594 2.49689 132.582 2.4907C132.555 2.47626 132.484 2.4278 132.418 2.34055C132.361 2.26444 132.354 2.21782 132.369 2.26855L136.187 1.07545C135.956 0.335123 135.483 -0.498166 134.457 -1.0427C133.581 -1.50721 132.502 -1.648 131.302 -1.648V2.352ZM132.422 2.41537L137.63 15.4234L141.343 13.9366L136.135 0.928628L132.422 2.41537ZM137.622 15.4049C137.428 14.9064 137.51 14.4794 137.574 14.2719C137.64 14.063 137.728 13.9398 137.753 13.9056C137.806 13.8349 137.803 13.862 137.691 13.9371C137.468 14.0868 137.165 14.192 136.918 14.192V18.192C138.111 18.192 139.177 17.7572 139.919 17.2589C140.291 17.01 140.67 16.6861 140.964 16.2914C141.11 16.0952 141.282 15.8168 141.392 15.4661C141.501 15.1168 141.586 14.5616 141.35 13.9551L137.622 15.4049ZM136.918 14.192C136.775 14.192 136.681 14.1603 136.589 14.0921C136.483 14.0144 136.252 13.7925 136.019 13.2023L132.298 14.6697C132.737 15.7835 133.37 16.6896 134.218 17.3139C135.079 17.9477 136.029 18.192 136.918 18.192V14.192ZM136.026 13.2207L135.594 12.0927L131.859 13.5233L132.291 14.6513L136.026 13.2207ZM133.726 10.808H128.782V14.808H133.726V10.808ZM126.918 12.0849L126.462 13.2609L130.191 14.7071L130.647 13.5311L126.918 12.0849ZM126.437 13.327C126.243 13.8844 126.04 14.0812 125.964 14.14C125.903 14.1879 125.837 14.216 125.71 14.216V18.216C126.616 18.216 127.57 17.9561 128.414 17.302C129.244 16.6588 129.833 15.7396 130.215 14.641L126.437 13.327ZM129.574 11.328H132.862V7.328H129.574V11.328ZM134.742 8.64451L133.11 4.15651L129.351 5.52349L130.983 10.0115L134.742 8.64451ZM129.354 4.14766L127.698 8.63566L131.451 10.0203L133.107 5.53234L129.354 4.14766ZM151.497 9.928L152.047 11.851L152.128 11.8278L152.207 11.7977L151.497 9.928ZM150.993 10.072L150.444 8.14895L147.537 8.97936L149.438 11.3297L150.993 10.072ZM154.545 14.464L156.145 13.264L156.123 13.2348L156.1 13.2063L154.545 14.464ZM148.569 14.08L150.202 12.9255L150.178 12.8904L150.151 12.8564L148.569 14.08ZM146.193 11.008L147.775 9.7844L147.175 9.008H146.193V11.008ZM145.521 11.008V9.008H143.521V11.008H145.521ZM145.449 7.768H143.449V9.768H145.449V7.768ZM145.449 4.12V2.12H143.449V4.12H145.449ZM142.737 14.12C142.671 14.12 142.686 14.1084 142.742 14.1357C142.801 14.1647 142.836 14.2033 142.843 14.2129C142.844 14.2146 142.806 14.1618 142.767 14.0126C142.729 13.863 142.697 13.6415 142.697 13.336H138.697C138.697 14.4436 138.918 15.6124 139.602 16.5571C140.351 17.5932 141.485 18.12 142.737 18.12V14.12ZM142.697 13.336V3.16H138.697V13.336H142.697ZM142.697 3.16C142.697 2.59951 142.838 2.48357 142.806 2.51878C142.792 2.53324 142.786 2.53003 142.819 2.51753C142.86 2.50207 142.967 2.472 143.169 2.472V-1.528C141.98 -1.528 140.767 -1.16581 139.873 -0.200785C139 0.740427 138.697 1.96849 138.697 3.16H142.697ZM143.169 2.472H147.945V-1.528H143.169V2.472ZM147.945 2.472C149.866 2.472 150.948 2.87637 151.519 3.33575C152.011 3.73159 152.377 4.37078 152.377 5.584H156.377C156.377 3.46122 155.675 1.54441 154.025 0.218248C152.455 -1.04437 150.321 -1.528 147.945 -1.528V2.472ZM152.377 5.584C152.377 6.2964 152.21 6.80594 151.975 7.16477C151.745 7.51502 151.38 7.83297 150.787 8.05828L152.207 11.7977C153.51 11.303 154.585 10.481 155.322 9.35523C156.053 8.23806 156.377 6.9356 156.377 5.584H152.377ZM150.948 8.00495L150.444 8.14895L151.543 11.995L152.047 11.851L150.948 8.00495ZM149.438 11.3297L152.99 15.7217L156.1 13.2063L152.548 8.81434L149.438 11.3297ZM152.945 15.664C152.636 15.2521 152.576 14.8383 152.564 14.6319C152.551 14.4097 152.582 14.2388 152.602 14.1488C152.643 13.9672 152.701 13.8599 152.714 13.8365C152.749 13.7745 152.749 13.7956 152.683 13.8526C152.579 13.9429 152.313 14.12 151.785 14.12V18.12C153.321 18.12 154.507 17.5651 155.303 16.8754C155.687 16.5424 156 16.1615 156.216 15.771C156.319 15.5833 156.436 15.3302 156.503 15.0318C156.537 14.8834 156.573 14.6614 156.557 14.3965C156.542 14.1477 156.472 13.6999 156.145 13.264L152.945 15.664ZM151.785 14.12C151.369 14.12 151.22 14.0408 151.111 13.9672C150.929 13.8432 150.667 13.583 150.202 12.9255L146.936 15.2345C147.455 15.969 148.058 16.7288 148.865 17.2768C149.747 17.8752 150.713 18.12 151.785 18.12V14.12ZM150.151 12.8564L147.775 9.7844L144.611 12.2316L146.987 15.3036L150.151 12.8564ZM146.193 9.008H145.521V13.008H146.193V9.008ZM143.521 11.008V13.888H147.521V11.008H143.521ZM143.521 13.888C143.521 14.0861 143.496 14.1919 143.483 14.2304C143.473 14.2623 143.478 14.2291 143.527 14.1769C143.55 14.1527 143.575 14.1326 143.598 14.1174C143.621 14.1025 143.636 14.0969 143.637 14.0965C143.637 14.0964 143.621 14.1023 143.584 14.1083C143.546 14.1143 143.489 14.12 143.409 14.12V18.12C144.482 18.12 145.609 17.8056 146.447 16.9111C147.264 16.0389 147.521 14.9164 147.521 13.888H143.521ZM143.409 14.12H142.737V18.12H143.409V14.12ZM145.449 9.768H147.417V5.768H145.449V9.768ZM147.417 9.768C148.415 9.768 149.495 9.53795 150.347 8.79938C151.246 8.02048 151.577 6.95248 151.577 5.944H147.577C147.577 6.02599 147.564 6.02461 147.585 5.97222C147.596 5.94568 147.613 5.91129 147.639 5.87401C147.666 5.83651 147.696 5.80352 147.727 5.77662C147.792 5.72086 147.828 5.7171 147.787 5.72935C147.742 5.74303 147.627 5.768 147.417 5.768V9.768ZM151.577 5.944C151.577 4.95078 151.275 3.85375 150.338 3.05812C149.466 2.31672 148.367 2.12 147.393 2.12V6.12C147.632 6.12 147.765 6.14581 147.82 6.16147C147.87 6.17552 147.825 6.17173 147.748 6.10588C147.71 6.07381 147.674 6.03453 147.643 5.99024C147.612 5.94632 147.593 5.90686 147.582 5.87853C147.561 5.82456 147.577 5.83249 147.577 5.944H151.577ZM147.393 2.12H145.449V6.12H147.393V2.12ZM143.449 4.12V7.768H147.449V4.12H143.449ZM161.012 4.552V2.552H159.012V4.552H161.012ZM161.012 11.92H159.012V13.92H161.012V11.92ZM158.236 13.36V3.16H154.236V13.36H158.236ZM158.236 3.16C158.236 2.69009 158.37 2.56189 158.373 2.55895C158.376 2.55514 158.451 2.472 158.732 2.472V-1.528C157.574 -1.528 156.4 -1.14314 155.516 -0.240954C154.631 0.662111 154.236 1.87791 154.236 3.16H158.236ZM158.732 2.472H162.836V-1.528H158.732V2.472ZM162.836 2.472C164.999 2.472 166.517 3.09445 167.478 3.99876C168.425 4.8897 169.044 6.25227 169.044 8.176H173.044C173.044 5.34773 172.103 2.8583 170.219 1.08524C168.348 -0.674456 165.762 -1.528 162.836 -1.528V2.472ZM169.044 8.176C169.044 10.0987 168.409 11.4981 167.428 12.4245C166.434 13.3625 164.887 14 162.74 14V18C165.681 18 168.287 17.1135 170.173 15.3335C172.071 13.5419 173.044 11.0293 173.044 8.176H169.044ZM162.74 14H158.924V18H162.74V14ZM158.924 14C158.493 14 158.236 13.6959 158.236 13.36H154.236C154.236 15.9521 156.331 18 158.924 18V14ZM162.62 13.92C164.139 13.92 165.605 13.4418 166.695 12.3565C167.789 11.2679 168.292 9.78066 168.292 8.176H164.292C164.292 8.94734 164.064 9.33207 163.873 9.52148C163.68 9.71418 163.309 9.92 162.62 9.92V13.92ZM168.292 8.176C168.292 6.60096 167.804 5.13196 166.705 4.05985C165.615 2.99555 164.159 2.552 162.668 2.552V6.552C163.385 6.552 163.741 6.75644 163.911 6.92215C164.073 7.08004 164.292 7.42304 164.292 8.176H168.292ZM162.668 2.552H161.012V6.552H162.668V2.552ZM159.012 4.552V11.92H163.012V4.552H159.012ZM161.012 13.92H162.62V9.92H161.012V13.92Z" fill="#192D59" mask="url(#path-1-outside-1_198_9206)"/>
</g>
<defs>
<filter id="filter0_d_198_9206" x="0.376831" y="0.135986" width="170.667" height="18.2" filterUnits="userSpaceOnUse" color-interpolation-filters="sRGB">
<feFlood flood-opacity="0" result="BackgroundImageFix"/>
<feColorMatrix in="SourceAlpha" type="matrix" values="0 0 0 0 0 0 0 0 0 0 0 0 0 0 0 0 0 0 127 0" result="hardAlpha"/>
<feOffset dy="2"/>
<feComposite in2="hardAlpha" operator="out"/>
<feColorMatrix type="matrix" values="0 0 0 0 0.0980392 0 0 0 0 0.176471 0 0 0 0 0.34902 0 0 0 1 0"/>
<feBlend mode="normal" in2="BackgroundImageFix" result="effect1_dropShadow_198_9206"/>
<feBlend mode="normal" in="SourceGraphic" in2="effect1_dropShadow_198_9206" result="shape"/>
</filter>
</defs>
</svg>
