<svg width="55" height="49" viewBox="0 0 55 49" fill="none" xmlns="http://www.w3.org/2000/svg">
<path d="M23.4736 9.5565L21.9077 15.7278C21.7389 16.393 20.8533 16.6508 20.0896 16.257L13.0043 12.6039C12.504 12.3459 12.1974 11.8726 12.2366 11.4187L12.5187 8.15478C12.5514 7.77609 12.8205 7.4722 13.2282 7.35354L15.7353 6.62375L18.2425 5.89396C18.6502 5.7753 19.1371 5.85914 19.5263 6.11502L22.881 8.32035C23.3475 8.62705 23.5842 9.12069 23.4736 9.5565Z" fill="#C2C3FF"/>
<path fill-rule="evenodd" clip-rule="evenodd" d="M16.7204 6.3143L19.5334 8.62538C20.1703 9.14859 20.5883 9.82793 20.7041 10.528L21.6405 16.1874C21.7791 16.0705 21.8801 15.9171 21.9258 15.7324L23.4497 9.56235C23.5565 9.12965 23.3206 8.64054 22.8575 8.33457L19.4917 6.11091C19.1009 5.85273 18.611 5.76727 18.2014 5.8858L16.7204 6.3143Z" fill="#D5D5FE"/>
<path fill-rule="evenodd" clip-rule="evenodd" d="M14.9451 7.09415L15.1465 10.2054C15.1916 10.9017 15.5441 11.6003 16.1337 12.1618L20.5844 16.4C20.439 16.3696 20.2924 16.3182 20.15 16.2443L13.0653 12.5652C12.5685 12.3072 12.2634 11.8381 12.2995 11.3876L12.5618 8.11426C12.5911 7.7488 12.8413 7.45264 13.2247 7.32503L14.9451 7.09415Z" fill="#A8A8F5"/>
<path d="M23.4736 9.5565L21.9077 15.7278C21.7389 16.393 20.8533 16.6508 20.0896 16.257L13.0043 12.6039C12.504 12.3459 12.1974 11.8726 12.2366 11.4187L12.5187 8.15478C12.5514 7.77609 12.8205 7.4722 13.2282 7.35354L15.7353 6.62375L18.2425 5.89396C18.6502 5.7753 19.1371 5.85914 19.5263 6.11502L22.881 8.32035C23.3475 8.62705 23.5842 9.12069 23.4736 9.5565Z" fill="#18DE20"/>
<path fill-rule="evenodd" clip-rule="evenodd" d="M16.7204 6.3143L19.5334 8.62538C20.1703 9.14859 20.5883 9.82793 20.7041 10.528L21.6405 16.1874C21.7791 16.0705 21.8801 15.9171 21.9258 15.7324L23.4497 9.56235C23.5565 9.12965 23.3206 8.64054 22.8575 8.33457L19.4917 6.11091C19.1009 5.85273 18.611 5.76727 18.2014 5.8858L16.7204 6.3143Z" fill="#6FF474"/>
<path fill-rule="evenodd" clip-rule="evenodd" d="M14.9451 7.09415L15.1465 10.2054C15.1916 10.9017 15.5441 11.6003 16.1337 12.1618L20.5844 16.4C20.439 16.3696 20.2924 16.3182 20.15 16.2443L13.0653 12.5652C12.5685 12.3072 12.2634 11.8381 12.2995 11.3876L12.5618 8.11426C12.5911 7.7488 12.8413 7.45264 13.2247 7.32503L14.9451 7.09415Z" fill="#2EE336"/>
<path fill-rule="evenodd" clip-rule="evenodd" d="M22.4213 13.6906L23.4864 9.55379C23.599 9.11617 23.362 8.61993 22.8935 8.31275L19.5452 6.11734C19.2852 5.94686 18.9817 5.8533 18.6875 5.84567L16.8328 6.39361L18.7285 7.92899C18.2711 7.55688 18.33 6.96103 18.8416 6.78547L18.9473 6.74922C19.2742 6.63703 19.6764 6.70222 19.99 6.91818L22.424 8.59493C22.7442 8.81547 22.9223 9.15195 22.8872 9.47L22.4213 13.6906Z" fill="#C7FFC9"/>
<path fill-rule="evenodd" clip-rule="evenodd" d="M12.6957 7.64808L14.9518 7.10391L15.149 10.2041C15.1934 10.9019 15.5463 11.6021 16.1371 12.1646L19.3318 15.2058L16.2197 12.7317C15.2516 11.9621 14.6417 10.9261 14.5358 9.87141L14.5033 9.54815C14.4403 8.92063 13.6644 8.44811 13.0086 8.63781C12.7475 8.71332 12.5686 8.90371 12.5324 9.14454L12.3456 10.3865L12.6496 7.70938C12.664 7.68835 12.6794 7.66791 12.6957 7.64808Z" fill="#C7FFC9"/>
<path fill-rule="evenodd" clip-rule="evenodd" d="M12.2992 10.7675C12.6343 11.4941 13.3649 12.5073 14.7566 13.3889C15.043 13.5704 15.3386 13.7572 15.6375 13.9459L13.0138 12.5842C12.5165 12.3261 12.2112 11.8565 12.2476 11.4056L12.2992 10.7675Z" fill="#1EC025"/>
<ellipse cx="0.388441" cy="0.403814" rx="0.388441" ry="0.403814" transform="matrix(-0.961692 0.289639 0.481591 0.882644 16.2336 7.99323)" fill="#C7FFC9"/>
<ellipse cx="0.388441" cy="0.403814" rx="0.388441" ry="0.403814" transform="matrix(-0.961692 0.289639 0.481591 0.882644 20.4807 12.7797)" fill="#6FF474"/>
<ellipse cx="0.388441" cy="0.403814" rx="0.388441" ry="0.403814" transform="matrix(-0.961692 0.289639 0.481591 0.882644 16.0515 12.0696)" fill="#1EC025"/>
<ellipse cx="0.388441" cy="0.403814" rx="0.388441" ry="0.403814" transform="matrix(-0.961692 0.289639 0.481591 0.882644 12.9971 11.2852)" fill="#1EC025"/>
<ellipse cx="0.12948" cy="0.134605" rx="0.12948" ry="0.134605" transform="matrix(-0.961692 0.289639 0.481591 0.882644 16.8221 9.104)" fill="#C7FFC9"/>
<ellipse cx="0.12948" cy="0.134605" rx="0.12948" ry="0.134605" transform="matrix(-0.961692 0.289639 0.481591 0.882644 20.0022 12.0472)" fill="#1EC025"/>
<ellipse cx="0.12948" cy="0.134605" rx="0.12948" ry="0.134605" transform="matrix(-0.961692 0.289639 0.481591 0.882644 14.3873 11.4778)" fill="#1EC025"/>
<ellipse cx="0.12948" cy="0.134605" rx="0.12948" ry="0.134605" transform="matrix(-0.961692 0.289639 0.481591 0.882644 20.9415 8.23486)" fill="#C7FFC9"/>
<ellipse cx="0.12948" cy="0.134605" rx="0.12948" ry="0.134605" transform="matrix(-0.961692 0.289639 0.481591 0.882644 18.8765 12.9449)" fill="#6FF474"/>
<ellipse cx="0.12948" cy="0.134605" rx="0.12948" ry="0.134605" transform="matrix(-0.961692 0.289639 0.481591 0.882644 13.4902 10.6151)" fill="#C7FFC9"/>
<path fill-rule="evenodd" clip-rule="evenodd" d="M21.9028 15.7261L23.4802 9.5547C23.5622 9.23374 23.456 8.88134 23.2084 8.59522C21.468 8.77604 19.9923 9.49172 18.3853 10.2711C16.7461 11.066 14.9703 11.9273 12.6376 12.3547C12.7423 12.4525 12.8647 12.5391 13.0015 12.6095L20.0866 16.2556C20.8492 16.648 21.733 16.3904 21.9028 15.7261Z" fill="#01FF48" fill-opacity="0.3"/>
<ellipse cx="0.388441" cy="0.403814" rx="0.388441" ry="0.403814" transform="matrix(-0.961692 0.289639 0.481591 0.882644 18.532 10.5601)" fill="#6FF474"/>
<ellipse cx="0.208323" cy="0.216568" rx="0.208323" ry="0.216568" transform="matrix(-0.961692 0.289639 0.481591 0.882644 21.1857 9.23938)" fill="#18DE20"/>
<path d="M41.765 10.7901L40.443 16.0002C40.3005 16.5618 39.5529 16.7794 38.9081 16.447L32.9265 13.3628C32.504 13.145 32.2452 12.7455 32.2783 12.3623L32.5165 9.60673C32.5441 9.28702 32.7713 9.03046 33.1154 8.93029L35.2321 8.31417L37.3487 7.69805C37.6929 7.59787 38.1039 7.66866 38.4325 7.88467L41.2647 9.74651C41.6586 10.0054 41.8584 10.4222 41.765 10.7901Z" fill="#C2C3FF"/>
<path fill-rule="evenodd" clip-rule="evenodd" d="M36.0638 8.05349L38.4388 10.0047C38.9764 10.4464 39.3293 11.0199 39.4271 11.611L40.2176 16.3887C40.3345 16.29 40.4198 16.1605 40.4583 16.0047L41.7449 10.7956C41.8351 10.4303 41.6359 10.0174 41.2449 9.7591L38.4033 7.8818C38.0734 7.66383 37.6599 7.59168 37.314 7.69175L36.0638 8.05349Z" fill="#D5D5FE"/>
<path fill-rule="evenodd" clip-rule="evenodd" d="M34.5647 8.71116L34.7348 11.3378C34.7729 11.9257 35.0704 12.5154 35.5682 12.9894L39.3253 16.5672C39.2027 16.5415 39.0791 16.4982 38.9591 16.4359L32.9778 13.3298C32.5584 13.112 32.3008 12.7159 32.3313 12.3356L32.5528 9.57214C32.5775 9.26396 32.7882 9.01414 33.1113 8.90621L34.5647 8.71116Z" fill="#A8A8F5"/>
<path d="M41.765 10.7901L40.443 16.0002C40.3005 16.5618 39.5529 16.7794 38.9081 16.447L32.9265 13.3628C32.504 13.145 32.2452 12.7455 32.2783 12.3623L32.5165 9.60673C32.5441 9.28702 32.7713 9.03046 33.1154 8.93029L35.2321 8.31417L37.3487 7.69805C37.6929 7.59787 38.1039 7.66866 38.4325 7.88467L41.2647 9.74651C41.6586 10.0054 41.8584 10.4222 41.765 10.7901Z" fill="#18DE20"/>
<path fill-rule="evenodd" clip-rule="evenodd" d="M36.0638 8.05349L38.4388 10.0047C38.9764 10.4464 39.3293 11.0199 39.4271 11.611L40.2176 16.3887C40.3345 16.29 40.4198 16.1605 40.4583 16.0047L41.7449 10.7956C41.8351 10.4303 41.6359 10.0174 41.2449 9.7591L38.4033 7.8818C38.0734 7.66383 37.6599 7.59168 37.314 7.69175L36.0638 8.05349Z" fill="#6FF474"/>
<path fill-rule="evenodd" clip-rule="evenodd" d="M34.5647 8.71116L34.7348 11.3378C34.7729 11.9257 35.0704 12.5154 35.5682 12.9894L39.3253 16.5672C39.2027 16.5415 39.0791 16.4982 38.9591 16.4359L32.9778 13.3298C32.5584 13.112 32.3008 12.7159 32.3313 12.3356L32.5528 9.57214C32.5775 9.26396 32.7882 9.01414 33.1113 8.90621L34.5647 8.71116Z" fill="#2EE336"/>
<path fill-rule="evenodd" clip-rule="evenodd" d="M40.8766 14.2805L41.7757 10.7881C41.8708 10.4187 41.6706 9.99974 41.2751 9.7404L38.4483 7.88695C38.2289 7.74304 37.9727 7.66406 37.7244 7.6576L36.1585 8.12022L37.7589 9.41645C37.3727 9.1023 37.4225 8.59926 37.8544 8.45105L37.9436 8.42044C38.2196 8.32573 38.5592 8.38076 38.8239 8.56308L40.8788 9.97866C41.1491 10.1649 41.2995 10.4489 41.2698 10.7174L40.8766 14.2805Z" fill="#C7FFC9"/>
<path fill-rule="evenodd" clip-rule="evenodd" d="M32.6659 9.17803L34.5705 8.71864L34.737 11.3357C34.7745 11.9249 35.0724 12.516 35.5712 12.9908L38.2686 15.5586L35.6411 13.4698C34.8238 12.8201 34.3089 11.9455 34.2195 11.055L34.1921 10.7821C34.1389 10.2523 33.4839 9.85343 32.9302 10.0136C32.7098 10.0773 32.5587 10.2381 32.5281 10.4414L32.3704 11.4899L32.6271 9.22958C32.6393 9.2119 32.6522 9.1947 32.6659 9.17803Z" fill="#C7FFC9"/>
<path fill-rule="evenodd" clip-rule="evenodd" d="M32.3312 11.8135C32.6142 12.427 33.231 13.2822 34.4057 14.0264C34.6476 14.1796 34.8973 14.3375 35.1498 14.4968L32.9345 13.3471C32.5147 13.1293 32.2569 12.7328 32.2877 12.3521L32.3312 11.8135Z" fill="#1EC025"/>
<ellipse cx="0.327937" cy="0.340916" rx="0.327937" ry="0.340916" transform="matrix(-0.961692 0.289639 0.481591 0.882644 35.6526 9.47083)" fill="#C7FFC9"/>
<ellipse cx="0.327937" cy="0.340916" rx="0.327937" ry="0.340916" transform="matrix(-0.961692 0.289639 0.481591 0.882644 39.2384 13.5112)" fill="#6FF474"/>
<ellipse cx="0.327937" cy="0.340916" rx="0.327937" ry="0.340916" transform="matrix(-0.961692 0.289639 0.481591 0.882644 35.4988 12.9122)" fill="#1EC025"/>
<ellipse cx="0.327937" cy="0.340916" rx="0.327937" ry="0.340916" transform="matrix(-0.961692 0.289639 0.481591 0.882644 32.9203 12.2496)" fill="#1EC025"/>
<ellipse cx="0.109312" cy="0.113639" rx="0.109312" ry="0.113639" transform="matrix(-0.961692 0.289639 0.481591 0.882644 36.1495 10.4087)" fill="#C7FFC9"/>
<ellipse cx="0.109312" cy="0.113639" rx="0.109312" ry="0.113639" transform="matrix(-0.961692 0.289639 0.481591 0.882644 38.834 12.894)" fill="#1EC025"/>
<ellipse cx="0.109312" cy="0.113639" rx="0.109312" ry="0.113639" transform="matrix(-0.961692 0.289639 0.481591 0.882644 34.0941 12.4124)" fill="#1EC025"/>
<ellipse cx="0.109312" cy="0.113639" rx="0.109312" ry="0.113639" transform="matrix(-0.961692 0.289639 0.481591 0.882644 39.6273 9.67517)" fill="#C7FFC9"/>
<ellipse cx="0.109312" cy="0.113639" rx="0.109312" ry="0.113639" transform="matrix(-0.961692 0.289639 0.481591 0.882644 37.8839 13.6511)" fill="#6FF474"/>
<ellipse cx="0.109312" cy="0.113639" rx="0.109312" ry="0.113639" transform="matrix(-0.961692 0.289639 0.481591 0.882644 33.3368 11.6841)" fill="#C7FFC9"/>
<path fill-rule="evenodd" clip-rule="evenodd" d="M40.4388 15.9995L41.7705 10.7893C41.8398 10.5183 41.7501 10.2208 41.5411 9.97928C40.0718 10.132 38.826 10.7361 37.4694 11.3941C36.0855 12.0653 34.5862 12.7924 32.6168 13.1532C32.7052 13.2358 32.8085 13.3088 32.924 13.3683L38.9055 16.4464C39.5494 16.7778 40.2955 16.5602 40.4388 15.9995Z" fill="#01FF48" fill-opacity="0.3"/>
<ellipse cx="0.327937" cy="0.340916" rx="0.327937" ry="0.340916" transform="matrix(-0.961692 0.289639 0.481591 0.882644 37.5929 11.6374)" fill="#6FF474"/>
<ellipse cx="0.175875" cy="0.182835" rx="0.175875" ry="0.182835" transform="matrix(-0.961692 0.289639 0.481591 0.882644 39.8334 10.5223)" fill="#18DE20"/>
<path d="M26.9259 3.89467L25.6039 9.10471C25.4614 9.66632 24.7137 9.88395 24.069 9.55151L18.0873 6.4674C17.6649 6.2496 17.4061 5.85004 17.4392 5.46682L17.6774 2.71128C17.705 2.39157 17.9321 2.13502 18.2763 2.03484L20.393 1.41872L22.5096 0.802605C22.8538 0.702428 23.2648 0.773208 23.5934 0.989228L26.4256 2.85106C26.8195 3.10999 27.0193 3.52674 26.9259 3.89467Z" fill="#C2C3FF"/>
<path fill-rule="evenodd" clip-rule="evenodd" d="M21.2247 1.15792L23.5997 3.10911C24.1373 3.55082 24.4902 4.12435 24.588 4.71538L25.3785 9.49311C25.4954 9.39443 25.5807 9.26498 25.6192 9.10911L26.9057 3.90007C26.996 3.53477 26.7968 3.12184 26.4058 2.86353L23.5642 0.986231C23.2343 0.768265 22.8208 0.696114 22.4749 0.796183L21.2247 1.15792Z" fill="#D5D5FE"/>
<path fill-rule="evenodd" clip-rule="evenodd" d="M19.7258 1.8165L19.8959 4.44311C19.934 5.031 20.2316 5.62074 20.7294 6.09477L24.4866 9.67261C24.3639 9.64697 24.2403 9.60364 24.1202 9.5413L18.139 6.43522C17.7195 6.21739 17.4619 5.82135 17.4924 5.44107L17.7139 2.67756C17.7386 2.36925 17.9495 2.11935 18.2728 2.0115L19.7258 1.8165Z" fill="#A8A8F5"/>
<path d="M26.9259 3.89467L25.6039 9.10471C25.4614 9.66632 24.7137 9.88395 24.069 9.55151L18.0873 6.4674C17.6649 6.2496 17.4061 5.85004 17.4392 5.46682L17.6774 2.71128C17.705 2.39157 17.9321 2.13502 18.2763 2.03484L20.393 1.41872L22.5096 0.802605C22.8538 0.702428 23.2648 0.773208 23.5934 0.989228L26.4256 2.85106C26.8195 3.10999 27.0193 3.52674 26.9259 3.89467Z" fill="#18DE20"/>
<path fill-rule="evenodd" clip-rule="evenodd" d="M21.2247 1.15792L23.5997 3.10911C24.1373 3.55082 24.4902 4.12435 24.588 4.71538L25.3785 9.49311C25.4954 9.39443 25.5807 9.26498 25.6192 9.10911L26.9057 3.90007C26.996 3.53477 26.7968 3.12184 26.4058 2.86353L23.5642 0.986231C23.2343 0.768265 22.8208 0.696114 22.4749 0.796183L21.2247 1.15792Z" fill="#6FF474"/>
<path fill-rule="evenodd" clip-rule="evenodd" d="M19.7258 1.8165L19.8959 4.44311C19.934 5.031 20.2316 5.62074 20.7294 6.09477L24.4866 9.67261C24.3639 9.64697 24.2403 9.60364 24.1202 9.5413L18.139 6.43522C17.7195 6.21739 17.4619 5.82135 17.4924 5.44107L17.7139 2.67756C17.7386 2.36925 17.9495 2.11935 18.2728 2.0115L19.7258 1.8165Z" fill="#2EE336"/>
<path fill-rule="evenodd" clip-rule="evenodd" d="M26.0375 7.38519L26.9366 3.89276C27.0317 3.52331 26.8316 3.10436 26.436 2.84502L23.6093 0.991572C23.3897 0.847618 23.1335 0.768631 22.8851 0.76222L21.3194 1.22477L22.9198 2.52099C22.5337 2.20684 22.5834 1.7038 23.0153 1.55559L23.1045 1.52498C23.3805 1.43027 23.7201 1.4853 23.9848 1.66763L26.0398 3.08321C26.31 3.2694 26.4604 3.55347 26.4308 3.82198L26.0375 7.38519Z" fill="#C7FFC9"/>
<path fill-rule="evenodd" clip-rule="evenodd" d="M17.8279 2.28377L19.7316 1.82459L19.8981 4.44222C19.9356 5.0314 20.2335 5.62252 20.7324 6.09738L23.427 8.66257L20.802 6.57575C19.9847 5.92606 19.4699 5.05144 19.3804 4.16102L19.353 3.88812C19.2998 3.35834 18.6448 2.95941 18.0911 3.11957C17.8707 3.18332 17.7196 3.34405 17.689 3.54737L17.5313 4.59592L17.7879 2.33686C17.8004 2.31863 17.8137 2.30093 17.8279 2.28377Z" fill="#C7FFC9"/>
<path fill-rule="evenodd" clip-rule="evenodd" d="M17.492 4.91775C17.7748 5.53122 18.3917 6.38684 19.5668 7.13132C19.8071 7.28352 20.055 7.44024 20.3057 7.5985L18.0953 6.45132C17.6755 6.23344 17.4177 5.83696 17.4485 5.45632L17.492 4.91775Z" fill="#1EC025"/>
<ellipse cx="0.327937" cy="0.340916" rx="0.327937" ry="0.340916" transform="matrix(-0.961692 0.289639 0.481591 0.882644 20.8136 2.57538)" fill="#C7FFC9"/>
<ellipse cx="0.327937" cy="0.340916" rx="0.327937" ry="0.340916" transform="matrix(-0.961692 0.289639 0.481591 0.882644 24.3993 6.61603)" fill="#6FF474"/>
<ellipse cx="0.327937" cy="0.340916" rx="0.327937" ry="0.340916" transform="matrix(-0.961692 0.289639 0.481591 0.882644 20.6597 6.0163)" fill="#1EC025"/>
<ellipse cx="0.327937" cy="0.340916" rx="0.327937" ry="0.340916" transform="matrix(-0.961692 0.289639 0.481591 0.882644 18.0812 5.3537)" fill="#1EC025"/>
<ellipse cx="0.109312" cy="0.113639" rx="0.109312" ry="0.113639" transform="matrix(-0.961692 0.289639 0.481591 0.882644 21.3104 3.51294)" fill="#C7FFC9"/>
<ellipse cx="0.109312" cy="0.113639" rx="0.109312" ry="0.113639" transform="matrix(-0.961692 0.289639 0.481591 0.882644 23.995 5.99817)" fill="#1EC025"/>
<ellipse cx="0.109312" cy="0.113639" rx="0.109312" ry="0.113639" transform="matrix(-0.961692 0.289639 0.481591 0.882644 19.2549 5.51758)" fill="#1EC025"/>
<ellipse cx="0.109312" cy="0.113639" rx="0.109312" ry="0.113639" transform="matrix(-0.961692 0.289639 0.481591 0.882644 24.7883 2.77905)" fill="#C7FFC9"/>
<ellipse cx="0.109312" cy="0.113639" rx="0.109312" ry="0.113639" transform="matrix(-0.961692 0.289639 0.481591 0.882644 23.0449 6.75568)" fill="#6FF474"/>
<ellipse cx="0.109312" cy="0.113639" rx="0.109312" ry="0.113639" transform="matrix(-0.961692 0.289639 0.481591 0.882644 18.4978 4.78864)" fill="#C7FFC9"/>
<path fill-rule="evenodd" clip-rule="evenodd" d="M25.6 9.10376L26.9317 3.8936C27.001 3.62261 26.9113 3.32505 26.7022 3.08349C25.2329 3.23615 23.9871 3.84035 22.6304 4.4983C21.2465 5.16946 19.7473 5.89656 17.7779 6.25737C17.8664 6.34002 17.9697 6.41311 18.0852 6.47257L24.0667 9.55074C24.7105 9.88205 25.4567 9.66454 25.6 9.10376Z" fill="#01FF48" fill-opacity="0.3"/>
<ellipse cx="0.327937" cy="0.340916" rx="0.327937" ry="0.340916" transform="matrix(-0.961692 0.289639 0.481591 0.882644 22.7539 4.742)" fill="#6FF474"/>
<ellipse cx="0.175875" cy="0.182835" rx="0.175875" ry="0.182835" transform="matrix(-0.961692 0.289639 0.481591 0.882644 24.9943 3.62659)" fill="#18DE20"/>
<path d="M38.8241 7.74903L34.1492 10.0326C33.6459 10.2784 33.072 10.0969 32.9708 9.65997L32.0313 5.60107C31.965 5.31473 32.1259 4.99574 32.4343 4.80231L34.6542 3.41C34.9115 3.24866 35.2301 3.20113 35.4943 3.28468L37.1214 3.79918L38.7485 4.31368C39.0127 4.39722 39.1841 4.59969 39.2003 4.84751L39.3407 6.98616C39.3602 7.28328 39.1539 7.58793 38.8241 7.74903Z" fill="#C2C3FF"/>
<path fill-rule="evenodd" clip-rule="evenodd" d="M37.6526 4.11579L37.4823 6.14803C37.4441 6.60383 37.204 7.0566 36.8102 7.41549L33.8268 10.1342C33.9323 10.1181 34.0395 10.0852 34.1437 10.0341L38.8188 7.73839C39.1469 7.57728 39.3525 7.27465 39.3345 6.97923L39.204 4.8359C39.1889 4.58742 39.0175 4.38431 38.7523 4.30076L38.6843 4.27932L37.6526 4.11579Z" fill="#D5D5FE"/>
<path fill-rule="evenodd" clip-rule="evenodd" d="M36.5299 3.60229L34.6574 5.07198C34.2331 5.40495 33.9503 5.8441 33.8657 6.30133L33.1838 9.98357C33.0897 9.90408 33.022 9.79941 32.9935 9.67363L32.0748 5.61508C32.0103 5.33026 32.171 5.01347 32.4777 4.82039L34.7033 3.4195C34.9614 3.25709 35.2814 3.20886 35.5465 3.29242L36.5299 3.60229Z" fill="#A8A8F5"/>
<path d="M38.8241 7.74903L34.1492 10.0326C33.6459 10.2784 33.072 10.0969 32.9708 9.65997L32.0313 5.60107C31.965 5.31473 32.1259 4.99574 32.4343 4.80231L34.6542 3.41C34.9115 3.24866 35.2301 3.20113 35.4943 3.28468L37.1214 3.79918L38.7485 4.31368C39.0127 4.39722 39.1841 4.59969 39.2003 4.84751L39.3407 6.98616C39.3602 7.28328 39.1539 7.58793 38.8241 7.74903Z" fill="#18DE20"/>
<path fill-rule="evenodd" clip-rule="evenodd" d="M37.6526 4.11579L37.4823 6.14803C37.4441 6.60383 37.204 7.0566 36.8102 7.41549L33.8268 10.1342C33.9323 10.1181 34.0395 10.0852 34.1437 10.0341L38.8188 7.73839C39.1469 7.57728 39.3525 7.27465 39.3345 6.97923L39.204 4.8359C39.1889 4.58742 39.0175 4.38431 38.7523 4.30076L38.6843 4.27932L37.6526 4.11579Z" fill="#6FF474"/>
<path fill-rule="evenodd" clip-rule="evenodd" d="M36.5299 3.60229L34.6574 5.07198C34.2331 5.40495 33.9503 5.8441 33.8657 6.30133L33.1838 9.98357C33.0897 9.90408 33.022 9.79941 32.9935 9.67363L32.0748 5.61508C32.0103 5.33026 32.171 5.01347 32.4777 4.82039L34.7033 3.4195C34.9614 3.25709 35.2814 3.20886 35.5465 3.29242L36.5299 3.60229Z" fill="#2EE336"/>
<path fill-rule="evenodd" clip-rule="evenodd" d="M36.5576 8.85912L38.8262 7.75509C39.1571 7.59404 39.364 7.28813 39.3437 6.98991L39.198 4.85416C39.1943 4.79987 39.1832 4.74776 39.1653 4.6986L37.6244 4.20496L37.5298 5.55544C37.5536 5.22887 37.9581 4.97726 38.306 5.07262L38.3783 5.09246C38.6007 5.15341 38.7456 5.3211 38.754 5.52715L38.8191 7.12746C38.8277 7.33743 38.6973 7.55159 38.4801 7.68433L36.5576 8.85912Z" fill="#C7FFC9"/>
<path fill-rule="evenodd" clip-rule="evenodd" d="M34.3112 3.62428C34.405 3.6123 34.499 3.61993 34.5842 3.64824C35.008 3.7891 35.0699 4.27484 34.7034 4.58355L34.5191 4.73877C33.9046 5.25636 33.5356 5.94067 33.5011 6.62711L33.3862 8.90787L33.8659 6.30272C33.9502 5.84442 34.2335 5.40422 34.6587 5.07073L36.4871 3.63665L35.6887 3.32994L35.5147 3.27414C35.2492 3.18897 34.9276 3.23665 34.6684 3.39964L34.3112 3.62428Z" fill="#C7FFC9"/>
<path fill-rule="evenodd" clip-rule="evenodd" d="M32.9256 4.50437C32.6553 4.95202 32.4189 5.6029 32.4932 6.38563C32.5598 7.08813 32.6388 7.87581 32.7059 8.53365L32.041 5.60264C31.9763 5.31763 32.137 5.00056 32.4439 4.80742L32.9256 4.50437Z" fill="#1EC025"/>
<ellipse cx="0.253057" cy="0.264527" rx="0.253057" ry="0.264527" transform="matrix(-0.955101 -0.310453 -0.501483 0.871281 36.2343 4.4657)" fill="#C7FFC9"/>
<ellipse cx="0.253057" cy="0.264527" rx="0.253057" ry="0.264527" transform="matrix(-0.955101 -0.310453 -0.501483 0.871281 35.4626 8.28656)" fill="#6FF474"/>
<ellipse cx="0.253057" cy="0.264527" rx="0.253057" ry="0.264527" transform="matrix(-0.955101 -0.310453 -0.501483 0.871281 33.8442 6.25366)" fill="#1EC025"/>
<ellipse cx="0.253057" cy="0.264527" rx="0.253057" ry="0.264527" transform="matrix(-0.955101 -0.310453 -0.501483 0.871281 32.8954 4.71832)" fill="#1EC025"/>
<ellipse cx="0.0843524" cy="0.0881758" rx="0.0843524" ry="0.0881758" transform="matrix(-0.955101 -0.310453 -0.501483 0.871281 35.8557 5.20386)" fill="#C7FFC9"/>
<ellipse cx="0.0843524" cy="0.0881758" rx="0.0843524" ry="0.0881758" transform="matrix(-0.955101 -0.310453 -0.501483 0.871281 35.6403 7.77228)" fill="#1EC025"/>
<ellipse cx="0.0843524" cy="0.0881758" rx="0.0843524" ry="0.0881758" transform="matrix(-0.955101 -0.310453 -0.501483 0.871281 33.4019 5.34735)" fill="#1EC025"/>
<ellipse cx="0.0843524" cy="0.0881758" rx="0.0843524" ry="0.0881758" transform="matrix(-0.955101 -0.310453 -0.501483 0.871281 38.2268 6.39594)" fill="#C7FFC9"/>
<ellipse cx="0.0843524" cy="0.0881758" rx="0.0843524" ry="0.0881758" transform="matrix(-0.955101 -0.310453 -0.501483 0.871281 34.6191 7.74768)" fill="#6FF474"/>
<ellipse cx="0.0843524" cy="0.0881758" rx="0.0843524" ry="0.0881758" transform="matrix(-0.955101 -0.310453 -0.501483 0.871281 33.4814 4.60754)" fill="#C7FFC9"/>
<path fill-rule="evenodd" clip-rule="evenodd" d="M34.1499 10.0302L38.8252 7.75164C39.0778 7.6285 39.2581 7.42101 39.3201 7.19707C38.4205 6.72325 37.3236 6.54932 36.1329 6.3605C34.8356 6.15479 33.4269 5.9314 32.04 5.28334C32.0088 5.38763 32.0033 5.49506 32.0274 5.59825L32.9728 9.65737C33.0744 10.0938 33.6472 10.2752 34.1499 10.0302Z" fill="#01FF48" fill-opacity="0.3"/>
<ellipse cx="0.253057" cy="0.264527" rx="0.253057" ry="0.264527" transform="matrix(-0.955101 -0.310453 -0.501483 0.871281 35.8301 6.52191)" fill="#6FF474"/>
<ellipse cx="0.135716" cy="0.141868" rx="0.135716" ry="0.141868" transform="matrix(-0.955101 -0.310453 -0.501483 0.871281 37.775 6.94684)" fill="#18DE20"/>
<path d="M33.2166 3.63577L31.5675 6.5019C31.3529 6.87485 30.7962 6.92224 30.3833 6.60272L27.2101 4.14714C26.9016 3.90837 26.7667 3.53191 26.8808 3.22827L27.4396 1.74221C27.5244 1.51655 27.7343 1.36734 27.9984 1.34485L29.4487 1.22138L30.899 1.09791C31.1631 1.07542 31.4464 1.18265 31.6534 1.38346L33.0165 2.7059C33.295 2.97612 33.377 3.35708 33.2166 3.63577Z" fill="#C2C3FF"/>
<path fill-rule="evenodd" clip-rule="evenodd" d="M30.0212 1.13479L31.0903 2.45994C31.4405 2.89403 31.619 3.40618 31.5876 3.88737L31.4016 6.73956C31.4985 6.68618 31.5789 6.60802 31.633 6.50582L33.1465 3.64717C33.2902 3.37591 33.2028 3.00997 32.9308 2.74343L31.5396 1.38025C31.3267 1.17165 31.0343 1.05775 30.7642 1.07828L30.0212 1.13479Z" fill="#D5D5FE"/>
<path fill-rule="evenodd" clip-rule="evenodd" d="M28.87 1.39177L28.6208 2.87371C28.5421 3.34158 28.6731 3.8574 28.9859 4.31141L30.642 6.71464C30.5777 6.68226 30.5149 6.64252 30.455 6.59531L27.2831 4.09286C26.9821 3.85541 26.8443 3.49334 26.9426 3.19866L27.4457 1.69139C27.5056 1.5121 27.6459 1.38025 27.8323 1.32078L28.87 1.39177Z" fill="#A8A8F5"/>
<path d="M33.2166 3.63577L31.5675 6.5019C31.3529 6.87485 30.7962 6.92224 30.3833 6.60272L27.2101 4.14714C26.9016 3.90837 26.7667 3.53191 26.8808 3.22827L27.4396 1.74221C27.5244 1.51655 27.7343 1.36734 27.9984 1.34485L29.4487 1.22138L30.899 1.09791C31.1631 1.07542 31.4464 1.18265 31.6534 1.38346L33.0165 2.7059C33.295 2.97612 33.377 3.35708 33.2166 3.63577Z" fill="#18DE20"/>
<path fill-rule="evenodd" clip-rule="evenodd" d="M30.0212 1.13479L31.0903 2.45994C31.4405 2.89403 31.619 3.40618 31.5876 3.88737L31.4016 6.73956C31.4985 6.68618 31.5789 6.60802 31.633 6.50582L33.1465 3.64717C33.2902 3.37591 33.2028 3.00997 32.9308 2.74343L31.5396 1.38025C31.3267 1.17165 31.0343 1.05775 30.7642 1.07828L30.0212 1.13479Z" fill="#6FF474"/>
<path fill-rule="evenodd" clip-rule="evenodd" d="M28.87 1.39177L28.6208 2.87371C28.5421 3.34158 28.6731 3.8574 28.9859 4.31141L30.642 6.71464C30.5777 6.68226 30.5149 6.64252 30.455 6.59531L27.2831 4.09286C26.9821 3.85541 26.8443 3.49334 26.9426 3.19866L27.4457 1.69139C27.5056 1.5121 27.6459 1.38025 27.8323 1.32078L28.87 1.39177Z" fill="#2EE336"/>
<path fill-rule="evenodd" clip-rule="evenodd" d="M31.9829 5.7725L33.2246 3.63471C33.387 3.3551 33.3056 2.97224 33.0263 2.70154L31.6667 1.38402C31.4604 1.1841 31.1782 1.07763 30.9147 1.10034L30.6169 1.126L30.061 1.17527L30.8762 2.16909C30.6828 1.93218 30.781 1.62581 31.062 1.58941L31.1792 1.57422C31.3643 1.55025 31.5662 1.6256 31.7076 1.77139L32.722 2.81738C32.9083 3.0095 32.9746 3.2686 32.8912 3.47913L31.9829 5.7725Z" fill="#C7FFC9"/>
<path fill-rule="evenodd" clip-rule="evenodd" d="M28.6266 2.87056L28.881 1.39243L28.7856 1.38602L27.6463 1.43177L27.0963 2.82538L27.3718 2.19487C27.4252 2.07282 27.5433 1.99308 27.6885 1.98105C28.0716 1.94933 28.4312 2.30603 28.3741 2.66109L28.3575 2.76391C28.2659 3.33374 28.456 3.95527 28.8771 4.46244L30.1383 5.98139L28.9902 4.31492C28.6762 3.8591 28.5457 3.34055 28.6266 2.87056Z" fill="#C7FFC9"/>
<path fill-rule="evenodd" clip-rule="evenodd" d="M26.9908 2.96629C27.0509 3.37804 27.2953 4.02072 27.974 4.6617C27.9912 4.67799 28.0085 4.69434 28.0259 4.71076L27.2507 4.09973C26.9493 3.86214 26.8116 3.49923 26.9109 3.20402L26.9908 2.96629Z" fill="#1EC025"/>
<ellipse cx="0.225562" cy="0.209548" rx="0.225562" ry="0.209548" transform="matrix(-0.996587 0.102941 0.240804 0.973574 29.5861 1.92004)" fill="#C7FFC9"/>
<ellipse cx="0.225562" cy="0.209548" rx="0.225562" ry="0.209548" transform="matrix(-0.996587 0.102941 0.240804 0.973574 31.1498 4.91888)" fill="#6FF474"/>
<ellipse cx="0.225562" cy="0.209548" rx="0.225562" ry="0.209548" transform="matrix(-0.996587 0.102941 0.240804 0.973574 28.8799 4.08752)" fill="#1EC025"/>
<ellipse cx="0.225562" cy="0.209548" rx="0.225562" ry="0.209548" transform="matrix(-0.996587 0.102941 0.240804 0.973574 27.3586 3.35596)" fill="#1EC025"/>
<ellipse cx="0.0759495" cy="0.0705575" rx="0.0759495" ry="0.0705575" transform="matrix(-0.996587 0.102941 0.240804 0.973574 29.7301 2.57129)" fill="#C7FFC9"/>
<ellipse cx="0.0759495" cy="0.0705575" rx="0.0759495" ry="0.0705575" transform="matrix(-0.996587 0.102941 0.240804 0.973574 30.9963 4.47327)" fill="#1EC025"/>
<ellipse cx="0.0759495" cy="0.0705575" rx="0.0759495" ry="0.0705575" transform="matrix(-0.996587 0.102941 0.240804 0.973574 28.0699 3.59656)" fill="#1EC025"/>
<ellipse cx="0.0759495" cy="0.0705575" rx="0.0759495" ry="0.0705575" transform="matrix(-0.996587 0.102941 0.240804 0.973574 32.0693 2.52368)" fill="#C7FFC9"/>
<ellipse cx="0.0759495" cy="0.0705575" rx="0.0759495" ry="0.0705575" transform="matrix(-0.996587 0.102941 0.240804 0.973574 30.2592 4.84027)" fill="#6FF474"/>
<ellipse cx="0.0759495" cy="0.0705575" rx="0.0759495" ry="0.0705575" transform="matrix(-0.996587 0.102941 0.240804 0.973574 27.7178 3.04285)" fill="#C7FFC9"/>
<path fill-rule="evenodd" clip-rule="evenodd" d="M31.5643 6.50219L33.2198 3.63582C33.3235 3.45622 33.3266 3.23409 33.2413 3.02648C32.2635 2.94575 31.3538 3.16698 30.3635 3.4078C29.3678 3.64994 28.2907 3.91187 26.9812 3.90658C27.0402 3.99625 27.1165 4.07927 27.2081 4.15011L30.3812 6.60341C30.7935 6.92214 31.3493 6.8746 31.5643 6.50219Z" fill="#01FF48" fill-opacity="0.3"/>
<ellipse cx="0.225562" cy="0.209548" rx="0.225562" ry="0.209548" transform="matrix(-0.996587 0.102941 0.240804 0.973574 30.4354 3.52985)" fill="#6FF474"/>
<ellipse cx="0.12097" cy="0.112382" rx="0.12097" ry="0.112382" transform="matrix(-0.996587 0.102941 0.240804 0.973574 32.0521 3.0885)" fill="#18DE20"/>
<path d="M35.1456 13.3061L24.993 17.922C24.0188 18.3649 22.9313 17.9861 22.7588 17.1436L20.9603 8.36407C20.8469 7.81051 21.1712 7.20635 21.772 6.85196L26.6428 3.97878C27.1428 3.68387 27.7541 3.61033 28.255 3.78483L31.7012 4.98544L35.1473 6.18605C35.6482 6.36055 35.9659 6.75776 35.9852 7.23356L36.1731 11.8691C36.1963 12.4409 35.7857 13.015 35.1456 13.3061Z" fill="#C2C3FF"/>
<path fill-rule="evenodd" clip-rule="evenodd" d="M32.7662 5.63817L32.2992 10.0032C32.2054 10.8798 31.7214 11.7401 30.9453 12.4096L24.3448 18.1033C24.5571 18.0806 24.7745 18.0227 24.9865 17.9259L35.139 13.2914C35.7769 13.0002 36.1863 12.4286 36.1648 11.859L35.9899 7.21722C35.9719 6.74061 35.654 6.3426 35.1519 6.16809L34.6529 5.99462L32.7662 5.63817Z" fill="#D5D5FE"/>
<path fill-rule="evenodd" clip-rule="evenodd" d="M30.5171 4.56097L26.4023 7.61007C25.5689 8.22765 25.003 9.05917 24.8194 9.93621L23.1756 17.7886C22.9935 17.6301 22.8645 17.4225 22.8146 17.175L21.043 8.39588C20.9317 7.84429 21.2553 7.24282 21.8539 6.88874L26.7319 4.0032C27.2327 3.70691 27.8458 3.63248 28.3479 3.807L30.5171 4.56097Z" fill="#A8A8F5"/>
<path d="M35.1456 13.3061L24.993 17.922C24.0188 18.3649 22.9313 17.9861 22.7588 17.1436L20.9603 8.36407C20.8469 7.81051 21.1712 7.20635 21.772 6.85196L26.6428 3.97878C27.1428 3.68387 27.7541 3.61033 28.255 3.78483L31.7012 4.98544L35.1473 6.18605C35.6482 6.36055 35.9659 6.75776 35.9852 7.23356L36.1731 11.8691C36.1963 12.4409 35.7857 13.015 35.1456 13.3061Z" fill="#18DE20"/>
<path fill-rule="evenodd" clip-rule="evenodd" d="M32.7662 5.63817L32.2992 10.0032C32.2054 10.8798 31.7214 11.7401 30.9453 12.4096L24.3448 18.1033C24.5571 18.0806 24.7745 18.0227 24.9865 17.9259L35.139 13.2914C35.7769 13.0002 36.1863 12.4286 36.1648 11.859L35.9899 7.21722C35.9719 6.74061 35.654 6.3426 35.1519 6.16809L34.6529 5.99462L32.7662 5.63817Z" fill="#6FF474"/>
<path fill-rule="evenodd" clip-rule="evenodd" d="M30.5171 4.56097L26.4023 7.61007C25.5689 8.22765 25.003 9.05917 24.8194 9.93621L23.1756 17.7886C22.9935 17.6301 22.8645 17.4225 22.8146 17.175L21.043 8.39588C20.9317 7.84429 21.2553 7.24282 21.8539 6.88874L26.7319 4.0032C27.2327 3.70691 27.8458 3.63248 28.3479 3.807L30.5171 4.56097Z" fill="#2EE336"/>
<path fill-rule="evenodd" clip-rule="evenodd" d="M29.9485 15.6755L35.1513 13.3172C35.7933 13.0262 36.2047 12.45 36.1801 11.8764L35.9814 7.24598C35.977 7.14402 35.959 7.04568 35.9284 6.95237L32.717 5.82218L32.4485 8.64579C32.5154 7.96341 33.3747 7.45988 34.0965 7.68003L34.2518 7.72742C34.7137 7.86829 35.008 8.22811 35.0148 8.66048L35.069 12.0761C35.0754 12.48 34.8144 12.8846 34.3907 13.1276L29.9485 15.6755Z" fill="#C7FFC9"/>
<path fill-rule="evenodd" clip-rule="evenodd" d="M25.8078 4.46695C26.0233 4.43729 26.2398 4.45647 26.433 4.52677C27.3145 4.84742 27.4167 5.87169 26.6298 6.49818L26.2418 6.80707C24.9249 7.85545 24.1141 9.26895 24.0052 10.706L23.6325 15.6262L24.8185 9.9408C25.0018 9.06224 25.5684 8.22925 26.4032 7.61098L30.4382 4.62254L28.9732 4.01226L28.2841 3.76892C27.7811 3.5913 27.165 3.66468 26.6618 3.96213L25.8078 4.46695Z" fill="#C7FFC9"/>
<path fill-rule="evenodd" clip-rule="evenodd" d="M22.9588 6.16646C22.3527 7.08876 21.7946 8.46348 21.9122 10.1477C22.0152 11.6242 22.1394 13.28 22.2458 14.6625L20.9736 8.36879C20.862 7.81691 21.1857 7.21506 21.7846 6.86088L22.9588 6.16646Z" fill="#1EC025"/>
<ellipse cx="0.527641" cy="0.554418" rx="0.527641" ry="0.554418" transform="matrix(-0.946152 -0.336219 -0.525107 0.856871 29.8634 6.32501)" fill="#C7FFC9"/>
<ellipse cx="0.527641" cy="0.554418" rx="0.527641" ry="0.554418" transform="matrix(-0.946152 -0.336219 -0.525107 0.856871 27.9807 14.2665)" fill="#6FF474"/>
<ellipse cx="0.527641" cy="0.554418" rx="0.527641" ry="0.554418" transform="matrix(-0.946152 -0.336219 -0.525107 0.856871 24.746 9.9444)" fill="#1EC025"/>
<ellipse cx="0.527641" cy="0.554418" rx="0.527641" ry="0.554418" transform="matrix(-0.946152 -0.336219 -0.525107 0.856871 22.873 6.69104)" fill="#1EC025"/>
<ellipse cx="0.17588" cy="0.184806" rx="0.17588" ry="0.184806" transform="matrix(-0.946152 -0.336219 -0.525107 0.856871 29.0226 7.84698)" fill="#C7FFC9"/>
<ellipse cx="0.17588" cy="0.184806" rx="0.17588" ry="0.184806" transform="matrix(-0.946152 -0.336219 -0.525107 0.856871 28.3896 13.2014)" fill="#1EC025"/>
<ellipse cx="0.17588" cy="0.184806" rx="0.17588" ry="0.184806" transform="matrix(-0.946152 -0.336219 -0.525107 0.856871 23.8881 8.02771)" fill="#1EC025"/>
<ellipse cx="0.17588" cy="0.184806" rx="0.17588" ry="0.184806" transform="matrix(-0.946152 -0.336219 -0.525107 0.856871 33.8885 10.4517)" fill="#C7FFC9"/>
<ellipse cx="0.17588" cy="0.184806" rx="0.17588" ry="0.184806" transform="matrix(-0.946152 -0.336219 -0.525107 0.856871 26.2594 13.0998)" fill="#6FF474"/>
<ellipse cx="0.17588" cy="0.184806" rx="0.17588" ry="0.184806" transform="matrix(-0.946152 -0.336219 -0.525107 0.856871 24.1068 6.48676)" fill="#C7FFC9"/>
<path fill-rule="evenodd" clip-rule="evenodd" d="M24.9972 17.9202L35.1494 13.3125C35.6396 13.09 35.9953 12.7013 36.1249 12.2746C34.2653 11.2115 31.9693 10.7792 29.4745 10.3096C26.7747 9.80126 23.8422 9.24915 20.9782 7.80635C20.9258 7.98999 20.9156 8.17899 20.9535 8.36241L22.7649 17.1418C22.9386 17.9833 24.0242 18.3618 24.9972 17.9202Z" fill="#01FF48" fill-opacity="0.3"/>
<ellipse cx="0.527641" cy="0.554418" rx="0.527641" ry="0.554418" transform="matrix(-0.946152 -0.336219 -0.525107 0.856871 28.8733 10.6005)" fill="#6FF474"/>
<ellipse cx="0.282977" cy="0.297337" rx="0.282977" ry="0.297337" transform="matrix(-0.946152 -0.336219 -0.525107 0.856871 32.9058 11.5806)" fill="#18DE20"/>
<ellipse cx="42.3195" cy="6.73607" rx="1.34722" ry="1.34722" fill="#11E82C"/>
<ellipse cx="45.6875" cy="8.75692" rx="0.67361" ry="0.67361" fill="#11E82C"/>
<ellipse cx="12.6806" cy="2.69445" rx="1.34722" ry="1.34722" fill="#11E82C"/>
<ellipse cx="9.31265" cy="6.06246" rx="0.67361" ry="0.67361" fill="#C7FFC9"/>
<ellipse cx="47.0347" cy="4.7153" rx="0.67361" ry="0.67361" fill="#8CFFA2"/>
<path d="M13.5203 41.7638L27.5 41.7638L41.4797 41.7638C41.9937 41.7638 42.453 42.0845 42.6301 42.5669L43.1699 44.0376C43.4302 44.7469 42.9929 45.5205 42.251 45.6631L30.0455 48.0104C28.3639 48.3338 26.6361 48.3338 24.9545 48.0104L12.749 45.6631C12.0071 45.5205 11.5698 44.7469 11.8301 44.0376L12.3699 42.5669C12.547 42.0845 13.0063 41.7638 13.5203 41.7638Z" fill="#FFBA08"/>
<path fill-rule="evenodd" clip-rule="evenodd" d="M42.4341 43.1667L42.7764 44.0876C43.0408 44.7989 42.6019 45.577 41.8564 45.7185L29.7241 48.0221C29.5647 48.0524 29.405 48.0797 29.245 48.1042L28.7483 48.1524C28.0767 48.2175 27.4951 47.6896 27.4951 47.0149C27.4951 45.2356 28.8562 43.7521 30.6288 43.5991L41.3432 42.6744C41.7756 42.637 42.1856 42.8307 42.4341 43.1667Z" fill="#FFD159"/>
<path d="M20.4087 19.3954C20.4087 18.448 21.1768 17.6799 22.1242 17.6799L32.399 17.6799C33.3464 17.6799 34.1145 18.448 34.1145 19.3954L34.1145 39.6764L20.4087 39.6764L20.4087 19.3954Z" fill="#FFA20B"/>
<ellipse cx="30.0017" cy="43.7529" rx="0.742404" ry="0.570569" fill="#FEECBF"/>
<ellipse cx="30.9212" cy="43.6267" rx="0.465411" ry="0.357687" fill="#FEECBF"/>
<path d="M29.2195 44.5461L28.1478 45.5822C28.1111 45.6177 28.0562 45.6266 28.0101 45.6047C27.9375 45.5701 27.9174 45.4761 27.9696 45.4149L29.0953 44.0924C29.2531 43.907 29.4548 43.7641 29.6821 43.6768L29.7807 43.6389C29.9451 43.5757 30.1175 43.5361 30.293 43.5211L35.4093 43.0843C35.4621 43.0798 35.5074 43.1214 35.5074 43.1744C35.5074 43.2196 35.4739 43.2579 35.4291 43.2639L30.4946 43.9283C30.0146 43.993 29.5678 44.2094 29.2195 44.5461Z" fill="#FEECBF"/>
<ellipse cx="29.353" cy="43.7532" rx="0.45321" ry="0.34831" fill="white"/>
<ellipse cx="28.6732" cy="43.25" rx="0.226631" ry="0.174176" fill="white"/>
<ellipse cx="30.3814" cy="44.6044" rx="0.152195" ry="0.116968" fill="white"/>
<ellipse cx="30.131" cy="43.541" rx="0.152195" ry="0.116968" fill="white"/>
<ellipse cx="28.5985" cy="44.2065" rx="0.152195" ry="0.116968" fill="#FEECBF"/>
<path d="M34.1146 38.4371C34.1146 35.7251 31.916 33.5265 29.204 33.5265L25.3194 33.5265C22.6074 33.5265 20.4088 35.7251 20.4088 38.4371L20.4088 32.3442L34.1146 32.3442L34.1146 38.4371Z" fill="#FF6600"/>
<mask id="mask0_445_32567" style="mask-type:alpha" maskUnits="userSpaceOnUse" x="11" y="17" width="33" height="16">
<path d="M19.9913 32.3332L27.5 32.3332L35.0087 32.3332C35.9498 32.3332 36.8754 32.0263 37.5931 31.4176C44.9192 25.2033 44.1434 19.6779 42.7536 17.615L12.2465 17.615C10.8566 19.6779 10.0808 25.2033 17.4069 31.4176C18.1246 32.0263 19.0503 32.3332 19.9913 32.3332Z" fill="#C4C4C4"/>
</mask>
<g mask="url(#mask0_445_32567)">
<path d="M18.5399 32.3332L27.5 32.3332L36.4601 32.3332C44.9936 25.7515 44.2114 19.7787 42.7536 17.615L12.2465 17.615C10.7887 19.7787 10.0064 25.7515 18.5399 32.3332Z" fill="#FFBA08"/>
<path d="M28.9463 20.2083L43.6667 20.2083L43.0735 17.0112L10.8597 17.0112L10.8597 32.9371L25.5801 32.9371L25.5801 32.2578C15.5959 25.1326 19.0262 20.2083 28.9463 20.2083Z" fill="#FFA20B"/>
<ellipse cx="4.91781" cy="6.46723" rx="4.91781" ry="6.46723" transform="matrix(0.94431 0.329058 -0.571235 0.820786 37.6621 18.9734)" fill="#FFD159"/>
<ellipse cx="2.22858" cy="3.24531" rx="2.22858" ry="3.24531" transform="matrix(0.94431 0.329058 -0.571235 0.820786 34.6213 21.0869)" fill="#FFF6E0"/>
</g>
<mask id="mask1_445_32567" style="mask-type:alpha" maskUnits="userSpaceOnUse" x="9" y="13" width="37" height="6">
<rect x="9.98621" y="13.4722" width="35.0277" height="5.33485" rx="1.41139" fill="#FFD159"/>
</mask>
<g mask="url(#mask1_445_32567)">
<rect x="9.98621" y="13.4722" width="35.0277" height="5.33485" rx="1.41139" fill="#FFD159"/>
<path d="M46.3191 20.0517C43.1645 13.8277 15.969 13.9166 9.76848 16.1394L9.44214 12.0493L46.3191 12.0493C47.4432 13.4127 49.0169 16.9219 46.3191 20.0517Z" fill="#FFDD84"/>
</g>
<ellipse cx="35.4487" cy="26.0687" rx="1.40142" ry="1.05669" fill="white"/>
<ellipse cx="33.947" cy="25.6911" rx="0.700711" ry="0.528347" fill="white"/>
<rect x="28.2023" y="34.8227" width="5.91232" height="4.13078" rx="2.06539" fill="#FFBA08"/>
<rect x="15.3751" y="39.0693" width="22.9027" height="2.69444" rx="1.34722" fill="#FFBA08"/>
<path fill-rule="evenodd" clip-rule="evenodd" d="M15.4155 40.4642C15.3892 40.5595 15.3751 40.6599 15.3751 40.7636C15.3751 41.3845 15.8784 41.8878 16.4993 41.8878L37.1537 41.8878C37.7746 41.8878 38.2779 41.3845 38.2779 40.7636C38.2779 40.663 38.2646 40.5654 38.2398 40.4725C29.9368 41.8306 20.0102 41.0895 15.4155 40.4642Z" fill="#FF6600"/>
</svg>
